<svg width="112" height="165" viewBox="0 0 112 165" fill="none" xmlns="http://www.w3.org/2000/svg">
<path d="M24.6359 155.631C17.3441 155.631 13.0566 151.375 13.0566 144.834C13.0566 138.293 17.3441 134.037 24.6359 134.037C31.6775 134.037 35.9024 137.386 35.9024 142.988V143.52H29.3303V142.988C29.3303 140.609 28.2037 139.67 24.7298 139.67C20.4736 139.67 19.3157 140.672 19.3157 144.834C19.3157 148.996 20.4736 149.998 24.7298 149.998C28.2037 149.998 29.3303 149.059 29.3303 146.681V146.148H35.9024V146.681C35.9024 152.282 31.6775 155.631 24.6359 155.631ZM48.7502 155.631C41.4583 155.631 37.1395 151.375 37.1395 144.834C37.1395 138.293 41.4583 134.037 48.7502 134.037C56.2299 134.037 60.4861 138.293 60.4861 144.834C60.4861 151.375 56.2299 155.631 48.7502 155.631ZM48.7502 149.998C53.0064 149.998 54.227 148.996 54.227 144.834C54.227 140.672 53.0064 139.67 48.7502 139.67C44.494 139.67 43.3987 140.672 43.3987 144.834C43.3987 148.996 44.494 149.998 48.7502 149.998ZM67.9386 155.318H62.055V134.35H67.9386V142.143H77.7029V134.35H83.5864V155.318H77.7029V147.432H67.9386V155.318ZM91.3492 155.318H85.4657V134.35H91.3492V155.318Z" fill="white"/>
<g clip-path="url(#clip0_1_1721)">
<path fill-rule="evenodd" clip-rule="evenodd" d="M101.202 40.9861C102.02 40.8139 102.924 40.7708 103.828 40.6417C104.172 40.5986 104.344 40.5126 104.646 40.4265C104.818 41.1152 104.947 41.1152 105.205 41.6318C105.42 42.0622 105.55 42.4497 105.722 42.9232C106.023 43.9563 106.152 44.8172 106.281 45.9364C106.454 47.1418 106.281 48.1749 106.281 49.3371C106.281 50.4563 106.195 51.6186 106.066 52.6948C106.023 53.1683 105.937 53.7709 105.851 54.2875C105.808 54.8041 105.765 55.4067 105.722 55.9233C105.679 56.0955 105.334 56.6981 105.205 57.2147C104.732 59.1948 104.99 59.324 104.215 61.6055C103.871 62.5955 103.699 63.4565 103.699 64.7048C103.957 64.7909 104.732 65.2644 104.99 65.3936L106.281 66.1684C106.281 66.685 106.152 67.5889 106.152 68.3207C106.152 68.7082 106.238 68.7082 106.238 69.0956C105.722 69.3539 105.937 69.2247 105.636 69.9996C105.55 70.1717 105.55 70.2578 105.463 70.43C105.248 70.9896 105.076 71.5062 104.818 72.0658C104.344 73.142 103.871 74.089 103.311 75.0791C102.106 77.3175 100.513 79.4268 98.8343 81.3208C98.7051 81.45 98.6621 81.493 98.5329 81.6652L93.7978 87.1322C93.1951 87.907 92.8938 88.3375 92.5064 89.2845C91.0428 93.2017 90.8276 97.4203 86.7812 99.4435C85.7481 99.9601 84.5858 100.348 83.5096 100.692L81.7017 101.165C80.7116 101.381 80.9268 101.424 80.3672 102.112C79.5924 103.102 77.8275 104.265 77.44 105.341C77.3539 105.556 77.397 105.599 77.1387 105.599C76.45 105.642 76.2347 105.901 75.589 106.245C74.685 106.675 73.0062 107.407 71.887 107.407C70.983 107.407 69.1751 106.417 68.2711 106.073C67.6684 105.814 67.1088 105.599 66.5062 105.384C65.9035 105.169 65.2578 104.91 64.6552 104.695C62.8472 104.093 60.6949 103.361 58.8438 103.059C57.5955 102.887 54.41 102.93 53.1617 102.93C50.1054 102.93 44.8536 103.232 42.0556 104.351C41.6682 104.523 41.7543 104.48 41.2808 104.523C40.7212 104.609 40.4629 104.91 39.9033 105.04C39.9463 105.341 39.9463 105.341 39.7741 105.599C37.3635 105.04 36.7609 107.45 32.0688 104.308C31.0356 103.619 30.2178 102.758 29.2277 102.069C29.0124 101.94 29.0124 101.897 28.6681 101.897C28.625 101.768 28.582 101.596 28.5389 101.467C28.4528 101.251 28.4098 101.208 28.3667 100.993C27.0753 100.993 27.635 100.95 26.6879 100.606C26.1714 100.391 25.6978 100.218 25.2243 100.046C24.2343 99.6588 23.2872 99.2713 22.2541 98.8839C21.7806 98.7117 21.6084 98.1521 21.3071 97.7647C20.4461 96.6455 20.2309 98.1952 19.0256 93.8474L17.7772 88.8971C17.6051 88.2514 17.519 88.0361 17.1315 87.4765L14.5057 83.9037C14.3335 83.6884 14.2474 83.5162 14.0752 83.301C13.7309 82.8705 13.86 82.9136 13.4295 82.9566C13.1282 81.7083 9.51228 76.844 8.56525 75.2513C7.35994 73.2281 6.32682 71.0757 5.59502 68.7943C4.69104 66.1254 5.12151 66.2975 5.12151 64.0161C5.72416 63.973 7.53212 62.8108 8.26392 62.6386C8.26392 61.9498 8.09173 61.3472 7.91955 60.7876L6.88642 57.4299C5.9394 54.6749 5.25065 50.8868 5.25065 47.6583C5.25065 43.1814 6.84338 40.2112 6.84338 38.8768H9.46923C9.46923 39.6086 9.85665 39.996 10.5884 39.996C11.1911 39.996 13.3434 34.486 13.6448 33.7112C14.3766 32.1184 15.0653 30.5257 15.9262 28.976C16.2276 28.4595 16.4858 27.9429 16.7872 27.4263L19.4561 23.0786L22.6846 19.2475C23.2872 18.6879 23.7607 17.9991 24.2773 17.3534C24.5786 17.009 24.6647 17.1382 24.6647 16.4925C25.0952 16.4064 25.827 15.8468 26.1714 15.5885C29.1416 13.6514 28.625 16.019 28.9694 18.0852C29.0555 18.4726 29.1416 18.9892 29.1846 19.3766C29.4429 19.2905 30.6482 18.3004 30.9065 18.1283C32.0257 17.2673 33.231 16.4925 34.3072 15.5454L35.5986 14.5984C35.943 14.3401 35.8999 13.8666 36.2013 13.7375C36.847 13.4792 36.8039 13.7805 37.7079 12.9626C37.9662 12.7044 38.2675 12.5322 38.5688 12.3169C38.741 12.2308 38.9132 12.1448 39.0854 12.0587C39.3006 11.9726 39.4728 11.9726 39.645 11.8434C40.0755 11.5421 40.2046 11.5421 40.6781 11.3699C42.5291 10.6812 43.5192 9.99242 45.4133 9.30367C46.4894 8.91625 47.4795 8.39969 48.5557 7.92617C49.0722 7.71094 49.6749 7.53875 50.1914 7.32352C51.7411 6.59173 53.2478 5.85993 54.7114 5.04204C55.3571 4.69767 55.9167 4.39634 56.7346 4.39634C57.9399 4.39634 59.6617 5.34337 60.5227 5.77384C62.2876 6.63477 63.9234 7.62485 65.6452 8.48578L70.7678 11.1977L71.3274 11.1116C71.7579 11.8865 72.1022 11.9295 72.8771 12.3169C73.0923 12.403 73.1354 12.4461 73.3075 12.5752L74.5559 13.3931C74.8142 13.5653 75.1155 13.7375 75.3738 13.9097C77.5261 15.2872 78.9036 16.1481 81.099 17.7839C81.7878 18.3004 83.8109 19.8071 84.4997 19.8932C84.5427 19.6349 84.758 19.2905 84.8441 18.9892C85.3606 17.3965 85.9633 15.6746 87.5991 17.6547C87.9434 18.0852 88.1587 18.6018 88.7183 18.7309C88.7183 19.2905 88.5461 19.0753 88.8044 19.5488C89.1918 20.2806 89.6223 20.9263 90.0527 21.572C91.4733 23.7674 92.7647 26.0058 94.2283 28.2012C94.5296 28.6747 94.6587 29.1913 94.917 29.7078C95.3905 30.6979 95.9071 31.6019 96.4667 32.5059L101.116 40.8569L101.202 40.9861ZM39.4728 7.71094C39.4728 7.96922 39.4298 8.09836 39.3437 8.27055C37.794 8.27055 36.4595 9.21758 35.2973 9.99242C34.7377 10.3798 34.1781 10.7673 33.7045 11.2838C32.8436 12.1878 33.1019 12.0587 31.8535 12.3169L29.4429 9.94937C29.1416 9.64804 28.6681 9.90632 28.2807 9.99242C27.4197 10.1646 26.6018 10.4229 25.87 10.7242C23.8899 11.5851 24.5356 11.8865 24.1482 12.2308H24.019C23.029 12.36 22.3402 13.3501 21.6515 14.0388C19.9726 15.7176 19.9296 15.8898 18.6812 17.6547L16.8733 20.2375C16.0984 21.3568 15.4527 22.5621 14.8501 23.7674C14.7209 24.0257 14.6348 24.2839 14.5057 24.5422L11.5355 30.4396C11.0189 31.4297 10.6315 32.5059 10.1149 33.4959H5.50893C5.33674 33.8403 5.07846 34.1847 4.90627 34.5291C4.5619 35.1317 3.9162 36.0357 3.65792 36.6383C3.39964 37.284 3.22745 37.198 3.52878 37.8437C2.92612 38.2741 2.5387 39.049 2.28042 39.8669C1.33339 42.6649 1.54863 45.9364 1.54863 49.0358C1.54863 51.3173 1.29035 51.2742 1.893 53.4696C2.36652 55.1915 2.88308 56.9995 3.14136 58.8505C3.1844 59.2379 3.2705 60.0127 3.2705 60.4432L1.2473 61.3472C0.300273 61.8207 0.0419922 62.2512 0.0419922 63.4565C0.0419922 64.9631 0.386366 66.4697 0.773787 67.8472C1.07511 68.8373 1.9791 71.6353 2.45261 72.4963C3.2705 73.9168 5.07846 76.3705 6.02549 77.9632C6.36986 78.5228 6.71424 78.9533 7.01556 79.5129C7.66127 80.5891 8.43611 81.493 8.99571 82.6123C9.12485 82.8705 9.42618 83.2149 9.51228 83.3871C9.8136 84.1189 9.68446 84.205 10.3732 85.0659C10.4593 85.1951 10.5454 85.2812 10.6315 85.4103L12.7408 87.7779C13.4295 88.6388 13.903 89.0693 14.0752 90.3607C14.5057 93.2017 15.2375 96.215 16.3137 98.3674C17.6051 100.95 19.0256 102.155 21.5223 103.404C22.9429 104.093 24.4495 104.695 25.827 105.427C26.3866 105.728 26.9462 106.073 27.5919 106.288C28.0224 106.417 28.0654 106.546 28.4098 106.805C28.6681 107.02 28.8833 107.149 29.1846 107.278C29.529 107.407 29.7873 107.45 30.0886 107.665C30.433 107.924 33.5324 110.119 33.9198 110.248C34.1781 110.334 34.7377 110.377 35.082 110.377H48.3404C49.4596 110.377 50.5358 110.119 51.4398 109.904C54.0226 109.215 54.4961 109.086 57.0359 109.603C59.4034 110.119 61.5558 110.377 64.0955 110.377H74.4268C75.9334 110.377 77.5261 109.344 78.344 108.526C78.6884 108.182 78.6453 108.139 79.0758 107.967C79.8076 107.665 80.4533 107.149 81.056 106.632C84.801 103.447 84.4566 105.169 88.1587 103.275C90.0958 102.285 91.9037 100.993 93.1951 99.2283C96.0362 95.3971 95.3475 93.6753 96.4667 90.7481C96.9402 89.5428 98.5329 87.7779 99.523 86.7017C99.6522 86.5295 99.6952 86.4865 99.8243 86.3143C101.073 84.9368 103.053 82.6983 103.914 81.2778C104.387 80.4599 104.99 79.7712 105.55 78.9963C105.937 78.4798 106.238 77.9632 106.583 77.4466C107.659 75.8109 108.52 74.046 109.165 72.1949C109.295 71.8075 109.467 71.7645 109.682 71.4201C110.672 69.7413 111.232 65.7379 111.232 63.8008C111.232 63.5856 111.06 63.5856 110.844 63.4995C109.768 63.026 108.692 61.7346 108.692 60.4862C108.692 58.6352 109.079 57.473 109.725 55.8372C110.5 53.9431 110.672 53.2113 110.672 50.9299C110.672 45.6782 109.553 41.9761 108.046 37.4562C107.616 36.2079 107.185 34.6151 106.626 33.539C105.98 33.7112 102.752 34.3569 102.02 34.3569C101.934 33.3668 100.814 31.6449 100.04 30.9131C99.6091 30.5257 99.9965 30.0952 99.3939 28.8038C99.0925 28.1581 98.7482 27.6416 98.4038 27.0389L95.4336 21.7442C95.3475 21.5289 95.2614 21.4428 95.1753 21.3137C95.0892 21.1415 95.0461 21.0554 94.917 20.8832L94.4865 20.2806C94.3574 20.1514 94.4435 20.2806 94.3144 20.1084C94.2283 19.9793 94.2283 19.8501 94.0991 19.6779C93.2382 18.0852 92.119 16.6216 90.9567 15.2441C90.8276 15.115 90.7415 15.0289 90.6123 14.8997C89.7084 13.6944 87.6852 12.0156 86.3077 11.6712C82.9931 10.8103 84.8441 14.5123 78.8175 11.9295C77.9996 11.5851 77.3539 11.1547 76.5791 10.7673C74.8572 9.90632 74.642 9.90632 72.8771 8.78711L70.7678 7.49571C70.5095 7.32352 70.3373 7.19438 70.036 7.06524C69.5625 6.76391 69.1751 6.50563 68.6585 6.20431C66.334 4.78376 63.9664 3.36322 61.8141 1.72745C61.2545 1.29698 59.6187 0.0486226 58.9299 0.0486226C56.8637 0.0486226 56.6485 -0.0805175 54.6683 0.952604L50.4497 3.06189C48.9 3.79369 41.496 6.59173 40.5059 7.36657C40.2476 7.5818 39.688 7.66789 39.3006 7.75399L39.4728 7.71094Z" fill="white"/>
<path fill-rule="evenodd" clip-rule="evenodd" d="M55.1519 90.4862C52.5261 90.4862 51.8804 90.2709 49.5989 89.4961C48.8241 89.2378 48.0923 88.8934 47.3174 88.5921C45.7678 87.9464 44.4764 87.2577 43.0558 86.5259C41.2909 85.6649 38.7942 84.0292 37.2445 82.8239C36.5988 82.3073 34.5326 80.3271 34.059 79.6814C33.1551 78.5622 32.2511 78.0026 31.1319 76.2808C29.4961 73.8271 30.0987 75.0324 28.8934 72.2344C28.3338 70.986 27.9895 69.9098 27.2146 68.8337C27.0855 68.6615 27.1285 68.7476 27.1285 68.5754C27.1285 68.3602 27.2146 68.1019 27.2146 67.8866C27.2146 67.4131 26.9133 66.6813 26.7841 66.2078C26.612 65.6052 26.5259 65.0456 26.4398 64.3568L26.2676 62.3336C26.1815 61.731 26.2245 60.87 26.1384 60.2243C26.0524 59.3203 26.3967 55.2309 26.612 54.1978C27.4298 50.0653 28.8504 46.5785 30.6584 42.9195C32.1219 39.9924 33.3703 38.1414 35.6087 35.8599C35.824 35.6446 35.9961 35.5585 36.2114 35.3433C36.3836 35.1711 36.5558 35.042 36.771 34.8698L38.0193 33.9228C38.2346 33.7506 38.4498 33.6214 38.665 33.4493C39.0955 33.1479 39.526 32.8466 39.9564 32.5453C41.1187 31.7704 41.6353 31.5982 42.7114 30.9956C43.228 30.6943 43.6154 30.5221 44.175 30.2638C44.6485 30.0055 45.2081 29.8333 45.7247 29.6181C50.4168 27.9393 54.6354 27.681 59.6718 28.0684C60.6619 28.1545 61.7811 28.2837 62.7282 28.4558C65.9136 28.9724 67.6785 29.6181 70.3044 31.0817C71.3375 31.6413 74.566 33.7936 75.3409 34.5685C75.7283 34.9559 75.8574 35.2572 76.374 35.2572C76.417 35.7307 77.9237 37.1513 78.3541 37.6678L79.0859 38.4427C80.3773 40.0785 80.5065 39.9924 81.6687 41.8434C81.7548 42.0156 81.8409 42.1447 81.927 42.2738C83.5628 45.1149 83.9072 44.297 84.4668 47.913L85.2846 53.0786C85.4138 53.8534 85.5429 54.8865 85.586 55.7044C85.7151 57.3832 85.9734 59.5786 85.8012 61.3435C85.7151 62.2475 85.629 63.1085 85.4999 64.0124C85.3707 64.9595 85.2416 65.6913 85.0264 66.5952C84.682 68.231 84.2085 69.7376 83.6919 71.2443C83.2615 72.4926 82.5297 74.2145 81.927 75.3768C81.2813 76.7112 80.2482 78.304 79.3442 79.4232C79.2151 79.5954 79.0859 79.6384 78.9998 79.8106C78.6124 80.3271 78.4402 80.4563 78.3541 81.0159L78.3111 81.1881C78.225 81.4464 77.1919 82.0921 76.9336 82.3073C76.374 82.7378 75.8144 83.1682 75.2117 83.5556L72.6289 85.4497C72.4567 85.5788 72.3276 85.6649 72.1984 85.751C71.768 86.0524 71.9402 86.1385 70.907 86.655C67.0759 88.5921 65.311 89.2809 60.748 89.9696C59.0261 90.2279 57.1751 90.4001 55.238 90.4001L55.1519 90.4862ZM32.208 32.3731C32.7246 32.6314 33.3703 32.6744 33.7577 33.0618C34.3604 33.6214 34.1451 34.0089 34.4465 34.6115C33.112 35.3433 31.9067 36.2903 30.5292 36.936C29.2809 37.5387 27.9895 38.1414 26.655 38.5288C26.2245 38.6579 25.5788 39.2175 25.2775 39.5619C24.2444 40.595 24.1152 41.2407 23.5126 42.5321L22.5225 44.7275C22.2642 45.4163 21.8768 46.3633 21.8768 47.2673C22.2642 47.1812 22.5656 47.1812 22.953 47.052C24.2013 46.6216 23.8139 46.4063 26.3967 46.4063C26.1384 47.4825 25.751 48.3434 25.0192 49.0752C24.6318 49.4626 24.4166 49.807 23.9861 50.1083C23.5556 50.4097 23.1682 50.6249 22.7378 50.9262L21.9629 51.5719C19.6384 53.6382 19.3801 54.9726 19.6814 58.0289C19.7245 58.4594 19.7675 59.019 19.8536 59.5356L20.241 64.1846C20.3271 65.7774 20.7146 67.1979 20.7146 68.7906C22.5656 67.8005 22.2642 67.0688 23.2543 65.9926C23.4265 65.8204 23.7278 65.433 23.9431 65.3899C24.2013 65.3469 24.804 65.5191 24.9762 65.6913C25.3206 66.0356 25.2775 66.8966 25.3636 67.3701C25.5788 68.2741 25.4927 67.8005 24.804 68.7906C24.2874 69.5224 23.3835 71.3734 23.3835 72.2344C23.3835 73.9993 23.7709 74.9894 24.5027 76.4529L25.3206 77.9165C26.2245 79.3371 27.2146 80.6285 28.1616 82.006C28.7212 82.8239 29.7544 83.6848 30.4001 84.4166L31.5193 85.5788C31.6484 85.708 31.6484 85.751 31.7776 85.8802L33.1981 87.3868C33.8008 87.9895 34.4034 88.506 34.92 89.1517L37.718 92.1219C37.9763 92.3802 38.1054 92.4663 38.3207 92.6816C39.4399 93.6716 40.6021 93.3703 41.9366 93.1981C43.4002 92.9829 44.9068 92.6385 46.4135 92.6385C46.8009 92.6385 47.1022 92.6385 47.4035 92.5955H57.3043C57.6056 92.5955 57.95 92.5955 58.2513 92.5955C58.6818 92.5955 58.7679 92.6816 59.1983 92.6816C60.6189 92.6816 61.8242 92.7676 63.2017 92.7676C63.9335 92.7676 64.45 92.8537 65.1388 92.8537C66.0428 92.8537 68.2381 92.8968 68.9699 93.0259C69.7878 93.1551 71.1223 93.5855 71.8541 93.069L73.2746 91.8206C73.4468 91.6484 73.4898 91.6484 73.662 91.5193L76.1587 89.2809C76.5031 88.9365 76.6323 88.9795 76.6323 88.3769C77.7945 88.1186 78.9568 86.4828 79.8177 85.5788L80.6786 84.7179C81.4104 83.9861 82.0131 83.1682 82.7449 82.4364C83.5197 81.6616 85.629 79.294 86.1025 78.5192C86.1456 78.4331 86.1886 78.304 86.2747 78.2609C86.7052 77.6582 86.1886 78.6483 86.9635 77.7443C87.437 77.1847 87.9535 76.7112 88.341 76.1086C89.7185 73.9993 89.0728 71.933 88.4701 69.6516C88.2549 68.7476 88.1257 67.8436 87.9966 66.8966C87.9535 66.5091 87.8675 66.1217 88.341 66.1217C89.0297 66.1217 90.4502 67.5423 91.3542 67.9727C91.6986 68.1449 92.1721 68.2741 92.6456 68.3171V62.4628C92.6456 61.3866 92.3874 59.6647 92.1721 58.6746C91.6125 56.1349 90.1489 54.0686 88.8575 51.8733C88.2118 50.8401 87.6522 49.764 86.8774 48.8169C86.6621 48.5587 86.4039 47.9991 86.4039 47.5686C87.437 47.3103 87.0496 46.7507 88.4701 47.5255C88.8145 47.6977 89.0728 47.8269 89.4171 47.956C89.8476 48.1282 90.9668 48.6878 91.4834 48.6878C91.4403 47.5686 90.0198 45.1149 89.3741 44.1679C87.7383 41.7142 86.7052 40.7242 84.3807 39.1745C83.3475 38.4857 80.0329 36.7208 79.3442 35.9029C78.9998 35.4294 78.9998 35.2572 78.8707 34.6546H82.0131C81.97 34.5685 81.927 34.4824 81.884 34.3963C81.5826 33.7506 81.7979 34.0089 81.4965 33.9658C80.8939 33.8367 81.4535 33.7075 81.1522 33.3632L77.0627 30.3068C76.5892 29.9194 76.1157 29.532 75.5991 29.1876L72.6289 26.9062C70.5196 25.3134 68.8838 23.8498 66.6024 22.5584C65.0096 21.6545 62.3407 20.1478 60.9632 19.0717L58.7679 17.3498C58.1652 16.8763 57.6486 16.4458 56.7877 16.4458C55.4963 16.4458 53.9466 18.1677 52.8274 18.7273L48.3936 20.7074C47.834 20.9227 47.2744 21.224 46.6287 21.4823C46.026 21.7405 44.6485 22.3432 44.175 22.7737C43.8307 23.075 43.5293 23.4194 43.1419 23.6777C42.7975 23.8929 42.5823 23.5055 40.2147 25.2273C39.9564 25.4426 39.7412 25.5717 39.526 25.7439L35.824 28.4558C34.7478 29.3168 32.2511 31.1678 32.1219 32.4161L32.208 32.3731Z" fill="white"/>
<path fill-rule="evenodd" clip-rule="evenodd" d="M53.334 75.8686C53.291 75.4381 53.291 75.6533 53.334 75.2659H52.7744C52.9466 73.2858 54.4963 73.9745 55.6585 72.7692C55.7446 72.6831 55.8738 72.5109 55.9599 72.5109C56.132 72.4679 56.0459 72.597 56.2181 72.5109C56.993 72.2957 59.791 70.2725 60.3937 69.7559C62.4169 68.1202 64.0096 66.0109 65.1719 63.7294C66.4633 61.1466 67.2381 58.3055 67.6686 55.4214C67.9699 53.3551 67.9699 52.3651 67.9699 50.3849C67.9699 49.2227 68.3573 49.0505 69.3474 49.0074C69.4335 49.8253 69.7348 50.471 69.907 51.2028C70.0792 51.9346 70.2083 52.6664 70.4236 53.4412C71.1123 56.5836 71.1554 56.7558 71.1554 59.9413C71.1554 62.3519 70.1653 64.9347 69.3043 66.4844C68.7447 67.4314 68.099 68.3784 67.3242 69.1963L66.0328 70.5738C65.8176 70.7891 65.6884 70.8752 65.4301 71.0904C65.2579 71.2626 65.0858 71.3917 64.8705 71.5639C64.6983 71.7361 64.4831 71.8652 64.3109 72.0374C61.8142 74.0176 58.6718 75.8255 55.3572 75.7825C54.7976 75.7825 53.7214 75.7394 53.377 75.9116L53.334 75.8686ZM65.9037 53.5273C65.2579 54.4743 65.0858 54.2161 64.6983 54.6035C64.354 54.9909 64.6553 54.8618 64.0526 55.034C63.8374 55.1201 63.8374 55.034 63.7513 55.2922C63.7083 55.3783 63.6652 55.6797 63.6222 55.8088C62.7182 55.5936 63.1917 55.6366 62.546 56.024C61.1685 56.885 57.5956 58.1764 56.993 58.6068C56.3042 59.0804 56.0459 59.9413 55.8738 60.7161C55.7877 61.1896 55.7016 61.534 55.6155 62.0075C55.4002 62.9546 55.2711 64.0738 55.0559 64.6764C54.4532 66.2261 54.4532 71.4778 53.7214 71.4778C53.291 71.4778 52.7313 71.2626 52.5161 71.0473C51.7843 70.3586 50.8373 67.6897 50.3207 66.5705C50.1055 66.14 49.9764 65.7956 49.8042 65.3652C49.632 64.9778 49.5028 64.5903 49.3737 64.1168C49.2015 63.342 48.9002 63.4711 48.771 62.9976C45.4134 62.9976 44.2081 63.8155 41.324 63.8155C41.324 63.4711 41.5392 63.0837 41.7114 62.9115L43.5624 60.63C43.9929 60.0704 44.3803 59.64 44.8107 59.1234C45.93 57.7029 45.973 57.2724 45.2843 55.1201C44.8108 53.7426 44.5525 52.4942 43.9929 51.1167C43.8637 50.7723 43.7776 50.471 43.6915 50.1266C43.4763 49.3087 43.4333 49.1366 43.5624 48.4048C44.122 48.4048 48.0823 49.3518 48.728 49.524C49.8472 49.7823 50.7082 50.0405 51.8274 49.524C53.8075 48.5339 55.4863 44.2292 57.3804 43.7988C57.7678 44.3584 57.8539 44.8319 57.7248 45.6928C57.6817 45.9941 57.6387 46.5107 57.6387 46.769L57.5095 50.1266C57.5095 51.5902 58.6718 51.6763 60.2215 52.1068C61.7712 52.5803 62.4169 52.7094 64.0096 53.0108C65.2579 53.226 65.2579 53.3551 65.9037 53.5273ZM41.8405 46.6398C41.5822 46.769 41.367 46.812 41.1087 46.9412C39.9034 47.6299 39.1716 50.6432 38.7412 51.8916C37.4498 55.7227 37.1054 62.2658 38.9994 65.9678C39.5591 67.044 39.6021 67.5175 40.3769 68.6798C40.6783 69.1102 40.9365 69.4116 41.1948 69.842C41.7114 70.6599 41.5392 70.3155 42.3571 70.703C42.3571 71.3056 42.0988 71.0473 43.2611 71.9083C43.7346 72.2526 44.122 72.554 44.5525 72.8984L48.4697 75.8255C49.5459 76.6434 49.8903 76.9878 51.2678 77.5474C53.8075 78.5805 54.1949 77.5904 57.1221 77.5904C58.8009 77.5904 59.8771 77.7626 61.2546 77.203C63.0626 76.4712 65.9897 74.7063 67.5394 73.3719L68.1421 72.8553C68.5295 72.4679 68.8739 72.1235 69.2613 71.7361C69.6487 71.3487 69.95 70.9612 70.3375 70.5308C71.2414 69.4546 72.3607 67.6467 73.0064 66.3983C73.2646 65.8387 73.4799 65.5374 73.7381 64.8917C75.46 60.63 75.2448 56.0671 73.6951 51.6763C73.2216 50.3849 72.8342 49.7823 72.2315 48.577C71.8871 47.8882 70.5096 45.9081 69.907 45.3484L68.7878 44.1862C68.5725 43.971 68.4004 43.8418 68.1851 43.6266L67.5825 43.11C66.4202 42.206 66.3341 42.0769 64.9997 41.1729C64.0957 40.5703 63.493 40.355 62.3738 40.355C62.0725 39.7954 61.8142 39.7093 61.0394 39.408C59.5758 38.8053 58.4566 38.9775 56.993 38.9345L54.7976 38.8484C53.377 38.8484 51.483 39.3649 50.4068 39.7524C49.5028 40.0967 46.877 41.4742 46.1022 42.1199C45.8439 42.3352 45.6286 42.5074 45.3704 42.7226C45.1121 42.9378 44.8968 43.1531 44.6816 43.3252L41.7975 45.822C41.2809 46.3385 41.5822 46.2094 41.7114 46.6829L41.8405 46.6398Z" fill="white"/>
<path fill-rule="evenodd" clip-rule="evenodd" d="M31.5568 23.1583C31.2124 23.1153 31.4707 23.1153 31.1263 23.0292L30.4376 23.5457C30.2223 23.761 30.0071 23.9331 29.8349 24.1914C29.3614 24.7941 28.7157 25.1815 28.5005 25.3967C28.2852 25.612 28.4144 26.9895 28.3283 27.6782C28.2852 28.1087 28.2852 28.41 28.2422 28.7974C28.1991 29.0988 28.113 29.6153 28.113 30.0027C28.4574 30.0027 28.7587 29.7445 29.0601 29.5723C30.1362 28.7974 31.1694 27.7643 32.1594 26.9034C32.3316 26.7742 32.3747 26.7312 32.5468 26.602L34.0535 25.2246C35.0436 24.3636 34.2257 24.9663 35.3018 24.3206C35.6462 24.1053 35.8614 23.9762 36.1628 23.7179L37.7555 22.4265C38.0138 22.1682 38.2721 21.996 38.5303 21.7808C41.7158 19.155 42.835 19.4563 46.0635 17.8205L48.9477 16.3569C50.6695 15.496 53.0801 14.4198 54.7159 13.4728C55.3616 13.0854 56.1795 12.6119 56.9543 12.6119C57.4279 12.6119 58.0736 13.4728 58.7623 14.0324C59.0206 14.2476 59.9246 14.8933 60.2689 15.0225C60.5272 15.1086 60.4842 14.9364 60.8286 14.8933C61.7325 15.496 61.6895 15.8834 62.9809 16.5291C64.4875 17.2609 65.5206 18.2079 67.1134 18.8106C67.9313 19.1119 69.4809 20.3603 70.1697 20.8338L74.6896 24.0192C75.4214 24.5358 76.1532 25.0093 76.885 25.612L78.9943 27.3338C79.1665 27.463 79.1665 27.463 79.3386 27.6352C79.4678 27.7643 79.5539 27.7643 79.683 27.8934C79.9413 28.1087 80.1565 28.2809 80.4148 28.4961C80.6731 28.7113 80.8453 28.8405 81.1036 29.0557C81.7923 29.6584 82.395 30.3471 83.0407 30.9928C83.2559 31.208 83.5572 31.4233 83.9016 31.4233C84.1168 31.4233 84.8486 31.2941 84.9778 31.2511C84.9347 28.7113 82.2658 24.708 80.7161 23.0722L79.64 21.91L79.5969 21.8669C78.8651 21.1351 77.6598 20.102 76.7989 19.4993L73.8717 17.4761C72.6234 16.7013 68.7922 14.5059 67.5438 13.8172C67.0273 13.5158 66.4677 13.2576 65.9511 12.9132C65.3054 12.5258 65.0041 12.3536 63.971 12.3536C63.8849 11.9662 63.7988 12.2244 63.8849 11.794L60.6564 10.3304C59.4941 9.77078 58.8054 9.12507 58.2457 8.00586C55.3616 8.00586 52.4344 8.86679 49.9377 10.1582L46.6231 12.0523C46.0635 12.3966 45.547 12.698 45.0304 13.0423C43.3946 14.1185 42.0602 14.8503 40.2522 16.0986L37.2389 18.3371C36.6793 18.7675 32.5468 21.8669 32.0733 22.3404C31.5998 22.7709 31.8581 22.7278 31.5568 23.2014V23.1583Z" fill="white"/>
<path fill-rule="evenodd" clip-rule="evenodd" d="M10.9983 71.7253C10.9983 72.8876 12.8063 75.5134 13.538 76.7618C14.2698 77.9671 15.9917 80.1625 16.8096 81.1525C17.7136 82.2287 19.5215 84.2949 20.2103 85.4142C21.2004 87.0069 21.1143 89.2453 21.8891 91.3546C22.4057 92.7321 22.8361 93.5069 23.6971 94.6262C24.0845 95.1858 25.7633 96.9937 26.409 96.9937C27.6143 96.9937 31.4455 96.1758 32.6077 95.7454C32.9952 95.6162 34.0713 95.1858 34.4588 95.1858C34.4588 93.3348 35.0614 93.9805 32.9091 91.3116L23.5249 79.4737L20.7699 76.5896C20.1242 75.9439 18.3162 74.5233 17.6275 74.0068C16.4222 73.1028 13.4089 71.2087 11.9023 71.2087C11.5579 71.2087 10.9983 71.2518 10.9983 71.7683V71.7253Z" fill="white"/>
<path fill-rule="evenodd" clip-rule="evenodd" d="M74.8518 95.7077C77.0472 95.7508 78.4247 98.8501 83.2029 96.6547C83.6764 96.4395 84.1929 96.3965 84.6234 96.1382C86.1731 95.3203 85.3121 95.5355 85.6135 95.2342C85.6996 95.1481 86.2161 95.4064 87.5936 93.5554C89.789 90.6282 89.2725 86.6248 91.2526 83.956L91.2956 83.8699C91.7261 83.2242 91.7692 83.7838 92.8023 82.7076L95.2129 80.1678C96.7626 78.6612 98.3123 76.3367 99.4315 74.4857C99.7328 74.0122 99.9911 73.3665 100.206 72.8069C101.024 70.5254 101.239 69.3201 97.8387 71.0419C96.5473 71.6876 95.9447 72.4625 95.1268 73.1082L92.7162 75.5188L91.7261 76.8532C91.3387 77.2407 91.5109 76.595 90.7791 77.4989L80.1896 89.2076C79.4578 90.0686 79.5869 90.0255 78.683 90.8434C77.6498 91.7474 74.7227 94.7607 74.7227 95.6647L74.8518 95.7077Z" fill="white"/>
<path fill-rule="evenodd" clip-rule="evenodd" d="M13.543 44.5556C13.543 45.4596 14.5762 46.4927 15.0927 47.1815C15.308 47.4398 15.5662 47.655 15.7815 47.8702C16.8146 47.1815 17.8908 45.5888 18.5365 44.3835C19.7848 42.102 20.9471 39.6483 21.8511 37.1516C22.712 34.6979 23.1855 33.4065 23.9173 30.8668C24.4769 28.9297 25.2518 25.8734 25.2518 23.8071C24.4339 23.8071 23.4007 24.9694 22.8842 25.486C21.6789 26.6913 19.6557 29.9628 18.7947 31.5125C18.0199 32.9761 17.3742 33.9231 16.7285 35.5589L15.5232 38.4C15.0927 39.4761 13.5 43.3934 13.5 44.5987L13.543 44.5556Z" fill="white"/>
<path fill-rule="evenodd" clip-rule="evenodd" d="M95.4191 68.2408C96.194 68.0686 98.3032 67.1647 99.1211 66.7772C99.9821 66.3468 100.068 65.5289 100.369 64.5819C100.499 64.1514 100.628 63.7209 100.757 63.2474C101.015 62.3434 101.23 61.3964 101.403 60.4924C101.661 59.2871 102.22 55.7573 102.22 54.4228C102.22 52.5718 102.522 49.6016 102.436 47.7506L102.35 45.8135C100.714 45.9426 100.068 47.7936 99.2933 49.085C98.1311 51.1082 97.3132 52.4857 96.5814 54.6811C95.29 58.5123 95.4191 63.1613 95.4191 68.1978V68.2408Z" fill="white"/>
<path fill-rule="evenodd" clip-rule="evenodd" d="M16.4188 69.6409C16.8492 67.8329 16.1605 63.27 15.9022 61.3759C15.5148 58.7501 15.3856 57.5017 14.6538 54.9189C13.6638 51.346 12.8028 49.7102 11.124 46.9122C10.9949 46.697 10.9088 46.5248 10.7796 46.3095C10.4353 45.7499 10.1339 45.0612 9.22996 44.9751C9.10082 45.1903 8.97168 45.3195 8.97168 45.6638L9.53129 54.2301C9.66043 55.4355 10.3061 58.1474 10.6505 59.2236C10.9949 60.2997 11.2962 61.2468 11.7267 62.1938C12.8028 64.6474 13.4055 65.8097 14.9121 68.0912C16.0313 69.77 15.5578 69.1674 16.4618 69.5978L16.4188 69.6409Z" fill="white"/>
<path fill-rule="evenodd" clip-rule="evenodd" d="M92.5801 42.1451C92.5801 42.5756 92.8384 43.3935 93.0106 43.5657C93.0967 43.6517 93.3119 43.7378 93.398 43.7809C93.398 44.2544 93.398 44.3405 93.5271 44.6849C93.6993 45.0723 94.4742 46.665 94.4742 46.9663C95.7225 46.9663 96.7987 45.9332 97.4444 45.5889C97.4014 45.3306 97.3153 44.9862 97.2722 44.6849C97.1861 44.3405 97.1431 44.0392 97.1 43.6948C97.057 43.2643 97.0139 43.1782 96.8848 42.8339C96.6696 42.2312 96.8417 42.5325 96.3682 42.1882C96.3682 40.9398 96.7557 41.4133 95.8517 39.261C95.249 37.8404 95.0338 36.7643 94.5172 35.4298C93.8715 33.8371 94.345 34.0523 93.4841 33.8371C93.5271 33.1053 93.8715 33.794 93.1828 32.1583C92.5801 30.6947 91.0304 28.241 89.9112 27.1648C89.4808 26.7344 88.6629 25.8734 87.9741 25.7874C87.9741 29.5324 89.3947 35.0855 90.8152 38.6153C91.0735 39.2179 91.3318 39.8206 91.59 40.4663C91.7192 40.7676 91.8053 41.0689 91.9775 41.4133C92.2788 42.1451 92.3649 42.016 92.6232 42.1451H92.5801Z" fill="white"/>
<path fill-rule="evenodd" clip-rule="evenodd" d="M29.5828 51.3241L31.606 52.185C32.2086 52.4002 32.1656 52.2711 32.3378 52.4863C31.2616 52.4863 30.4007 52.6155 29.3245 52.6155C29.1093 53.6055 28.0761 54.5526 30.3576 55.1552C30.9603 55.3274 31.649 55.5426 32.2517 55.7579C32.8113 55.9301 35.6954 57.0062 36.0398 57.0062C36.1689 56.5327 36.5133 56.2314 36.5133 55.5426C35.9537 55.2413 35.4802 55.1552 34.8345 55.0261C32.7252 54.5095 33.8874 54.2943 32.2517 54.6817C32.2517 54.2943 32.2086 54.2082 32.1656 53.9069C33.2848 53.9069 33.7583 53.9069 34.8775 54.0791C35.1788 54.1221 35.5663 54.0791 35.9106 54.1221C36.9438 54.2512 36.8146 54.3804 36.8146 53.132C36.8146 52.8737 36.212 52.8307 35.6954 52.6585C35.2219 52.5294 34.9206 52.4002 34.5331 52.2711C33.8444 52.0128 32.9404 51.5823 32.553 51.0227C34.361 51.4532 35.308 51.8406 37.3742 51.8406C37.3742 51.1088 37.5464 51.0227 37.6325 50.6784C36.0398 49.9035 33.5431 49.9896 32.2086 49.7313C30.702 49.43 30.0993 48.9565 29.798 50.1188C29.7119 50.4201 29.6258 50.9366 29.6258 51.3241H29.5828Z" fill="white"/>
<path fill-rule="evenodd" clip-rule="evenodd" d="M38.836 77.8351C39.1803 77.3616 39.6539 76.845 40.0413 76.4576L40.8161 75.5106C41.634 74.6927 41.3757 74.951 41.8923 73.9178L40.4287 73.3152C40.2565 73.6596 40.3426 73.6596 40.0413 74.1331C39.4817 75.0801 38.9221 75.4675 38.2333 76.2424L37.028 77.6629C36.8128 77.9212 36.6836 78.1364 36.5114 78.4377C36.3823 78.653 36.1671 79.1265 36.124 79.3848C36.1671 79.4709 37.0711 80.2027 37.2002 80.2457C37.8459 80.4609 40.0413 78.4377 40.687 78.0073C40.5578 78.653 39.4817 79.9013 39.0512 80.547L38.4485 81.3649C38.7499 81.8384 39.1803 82.4841 39.6108 82.8285L43.0115 79.9444C43.1837 79.7722 43.2267 79.7722 43.3989 79.6431L45.293 78.0073C45.4652 77.8781 45.5513 77.792 45.6374 77.5768C45.0347 77.4477 44.0877 76.6298 43.0115 78.0934C42.7102 78.5238 42.4949 78.7821 42.1506 79.1265C41.9353 79.3417 41.8923 79.3848 41.634 79.557C41.3757 79.7291 41.2466 79.7722 40.9453 79.9013C41.0744 79.2987 42.6241 77.3616 43.0976 76.802C43.3989 76.4576 43.7002 76.0702 43.2698 75.6397C42.581 74.9079 41.9784 75.6828 41.1174 76.4145C40.6009 76.845 39.7399 77.749 38.9221 77.792L38.836 77.8351Z" fill="white"/>
<path fill-rule="evenodd" clip-rule="evenodd" d="M39.3498 95.6542C39.3498 95.8694 39.9094 97.5052 39.9955 97.8065C40.1247 98.1939 40.2108 98.4522 40.2538 98.9257C40.2969 99.141 40.2969 99.227 40.2538 99.4853C40.1677 99.8297 40.0816 99.8297 39.9094 99.9158C39.8664 99.5714 39.479 98.6674 39.3068 98.3661C38.8763 97.5913 38.1015 96.3429 37.2405 96.0416C34.916 95.2237 36.5088 99.0979 36.8101 100.389C36.9392 100.992 37.2836 102.456 37.2836 103.144C37.3266 104.22 36.8962 104.048 39.0485 104.048C39.0485 103.23 38.8333 102.326 38.6611 101.595C38.575 101.164 38.4459 100.863 38.3167 100.475C38.1876 100.131 38.0154 99.7436 37.9293 99.3992C38.1445 99.5284 38.2737 99.5284 38.5319 99.7006C39.1346 100.088 39.4359 100.734 39.6942 101.422C40.2969 102.929 40.8134 103.489 42.4922 103.101C42.4922 101.164 41.0287 97.1178 41.0287 95.0515C40.2969 95.0515 39.7803 95.3528 39.3068 95.6111L39.3498 95.6542Z" fill="white"/>
<path fill-rule="evenodd" clip-rule="evenodd" d="M52.7158 84.2991C52.7158 84.7726 52.8019 85.3322 52.9311 85.6766C53.7059 87.7429 57.3218 88.8621 58.5271 85.6766C58.6993 85.2031 58.6993 84.9448 58.7854 84.3422C59.2159 80.6402 54.0933 80.0375 52.9311 82.9216C52.8019 83.266 52.7158 83.8687 52.7158 84.3422V84.2991Z" fill="white"/>
<path fill-rule="evenodd" clip-rule="evenodd" d="M59.9721 97.3566C59.9721 97.1414 59.886 95.1613 60.3165 95.1613C61.0483 95.1613 61.3496 95.85 61.3496 96.4096C61.3496 96.8831 60.4887 97.3136 59.9721 97.3566ZM59.6277 102.092C59.6708 101.877 59.7569 101.661 59.7569 101.403L59.6708 99.6812H60.2304L60.5317 101.36C61.0052 102.737 62.5119 102.393 62.4688 101.704C62.4688 101.489 62.1675 100.8 62.0814 100.585C61.8662 99.9825 61.3927 98.9924 61.3927 98.2606C62.1245 98.2176 62.8562 97.3997 62.8562 96.4527C62.8562 95.3334 62.2966 94.3003 61.5218 94.042C61.1344 93.9129 60.4887 93.8698 60.0152 93.8268C59.5416 93.7838 58.939 93.7407 58.5085 93.6116C58.5085 96.5818 57.992 98.4759 57.9489 101.231C57.9489 102.006 57.6045 101.92 58.4224 102.006C58.5946 102.006 58.8099 102.049 59.0251 102.092C59.4125 102.135 59.2403 102.092 59.5847 102.049L59.6277 102.092Z" fill="white"/>
<path fill-rule="evenodd" clip-rule="evenodd" d="M46.4783 96.8048C46.4783 98.6128 46.6505 101.454 48.4584 102.186C50.0512 102.831 52.0743 101.54 52.0743 99.0863C52.0743 97.0201 52.3326 97.3644 50.2233 97.3644C49.5346 97.3644 49.2763 97.5366 48.7597 97.6227C48.8458 97.924 48.8889 98.2254 48.975 98.4836C49.1902 98.9572 49.7929 98.8711 50.4816 98.8711C50.4816 102.272 47.9419 100.55 47.9419 97.4075C47.9419 96.6757 48.5015 95.6856 48.975 95.4704C49.6207 95.1691 50.3525 96.3744 50.826 96.5035C51.2134 95.9439 50.9121 96.1161 51.6439 95.9439C51.6439 95.3843 51.1704 94.7386 50.869 94.4373C49.2333 92.8015 46.4783 94.222 46.4783 96.7618V96.8048Z" fill="white"/>
<path fill-rule="evenodd" clip-rule="evenodd" d="M59.761 36.8131C59.761 37.588 60.0623 37.588 61.1385 37.588L61.655 35.6939C61.8272 35.0052 61.9994 34.5316 61.9994 33.6277C62.8603 34.1873 62.8604 36.6409 62.8173 37.8893C62.8173 38.3628 62.7312 38.535 63.2047 38.4919C63.3339 38.4919 64.0657 38.4058 64.1518 38.3628C64.6253 38.1906 64.6253 37.0714 64.9266 36.0383C65.2279 35.0912 65.5723 33.7137 65.8736 32.8959C66.0458 32.4223 66.3041 31.8627 66.3041 31.2601C65.9597 31.0879 65.271 31.0018 64.7975 31.0018C64.7975 31.7766 64.5392 32.4223 64.3239 33.025C64.1087 33.6277 64.0657 34.4886 63.42 34.6608V30.3991C62.9034 30.3561 62.516 30.1409 61.8272 30.1409C61.5689 30.1409 61.4398 31.1309 61.2246 31.7336L60.1915 35.0912C60.0623 35.4787 59.761 36.4257 59.761 36.8562V36.8131Z" fill="white"/>
<path fill-rule="evenodd" clip-rule="evenodd" d="M50.2685 32.0349V31.5614C51.0863 31.5614 51.5599 31.9488 51.8612 32.4654C52.2917 33.1541 52.4208 33.972 52.4208 34.876C52.4208 35.6078 51.5168 36.2105 51.1294 36.3396C51.0863 35.3065 50.3115 33.3694 50.3115 32.078L50.2685 32.0349ZM48.4605 30.3131C48.3744 31.3031 48.1592 30.3561 48.5035 32.0349L49.0631 34.9621C49.3645 36.4257 49.5797 37.9323 51.0003 37.9323C51.6029 37.9323 52.7652 37.1144 53.0665 36.7701C54.0996 35.6939 54.0135 34.1873 53.7122 32.8528C53.3678 31.4753 52.5499 30.1409 50.8711 30.1409C49.9671 30.1409 49.4075 30.27 48.4605 30.27V30.3131Z" fill="white"/>
<path fill-rule="evenodd" clip-rule="evenodd" d="M79.6703 55.8332C76.7001 55.8332 77.7332 53.9391 79.6273 53.5087C79.9286 53.4226 80.7465 53.2934 81.0908 53.3795C81.263 53.4226 81.6074 53.4226 81.8226 53.4656C82.0809 53.5087 82.2962 53.5517 82.5544 53.5947C82.5544 54.3696 82.2531 55.0153 81.7796 55.3597C81.3061 55.704 80.4882 55.8762 79.6703 55.8762V55.8332ZM76.2266 54.714C76.2266 58.7604 84.0611 57.8133 84.0611 54.1113C84.0611 52.949 83.071 51.8298 81.8657 51.8298C79.8425 51.8298 76.2266 52.0881 76.2266 54.714Z" fill="white"/>
<path fill-rule="evenodd" clip-rule="evenodd" d="M69.1516 100.734C68.7642 100.734 68.8503 100.777 68.592 100.605C68.0754 100.131 68.3337 100.002 68.6781 98.9688C68.8503 98.4092 68.8933 98.3231 69.3238 98.0648L69.2807 100.174C69.2377 100.432 69.1516 100.518 69.1085 100.734H69.1516ZM65.7939 102.456C65.7939 103.187 66.3966 103.144 66.741 103.144C67.6019 103.144 67.0423 102.025 68.2046 102.025H68.8072C69.8403 102.025 68.9794 103.747 69.5821 103.747C71.39 103.747 70.8304 103.919 70.8304 102.499V96.429C70.8304 96.429 71.0026 95.7403 70.3139 95.3528C69.9695 95.1807 69.3668 95.0515 68.8503 95.0515C68.6781 96.9886 65.837 101.078 65.837 102.413L65.7939 102.456Z" fill="white"/>
<path fill-rule="evenodd" clip-rule="evenodd" d="M31.5488 72.4884C32.3667 73.6938 32.9263 73.4355 34.0025 72.6606C35.2508 71.7136 36.3701 71.3262 37.6184 70.5083C37.8767 70.8957 38.2211 71.197 38.4363 71.5414C38.2641 72.2732 35.9396 73.3924 35.2078 73.8229C34.9926 73.952 34.7343 74.0812 34.5191 74.2103C32.7541 75.2434 33.4859 75.4156 33.572 76.1905C34.5191 76.1905 36.4131 75.1143 37.188 74.5977C39.1251 73.3494 40.8469 72.4024 39.1251 69.9917C38.135 68.6142 36.9297 69.0447 35.7244 69.7335C34.5621 70.4222 32.3237 71.5845 31.5919 72.4454L31.5488 72.4884Z" fill="white"/>
<path fill-rule="evenodd" clip-rule="evenodd" d="M43.5922 32.3303C43.6353 33.9661 46.4764 36.9793 46.4764 38.1847C46.4764 38.3568 45.9168 38.9165 45.8737 38.9595C44.324 38.6151 43.5492 35.5588 42.5161 34.3965C42.3008 34.1813 42.1286 34.0522 41.9565 33.7939C41.569 33.88 41.0094 34.0952 40.7942 34.3965L42.1717 36.8072C43.1618 38.4429 44.0657 40.8536 46.0889 40.2509C48.1121 39.6913 48.3704 37.8403 47.3803 36.2476C46.6055 34.9562 46.5625 34.827 45.7446 33.5787C45.1419 32.6747 45.3141 32.6747 45.0558 32.072C44.4101 32.1151 43.8936 32.3303 43.5922 32.3303Z" fill="white"/>
<path fill-rule="evenodd" clip-rule="evenodd" d="M53.3337 102.006H56.7775V100.198H55.0556V98.2176H56.7775C56.7775 96.6679 56.7775 96.754 55.0556 96.754C55.0556 96.4096 55.0987 95.3334 55.4 95.1613C55.5722 95.0752 56.0026 95.0752 56.2179 95.0321C56.5622 94.9891 56.7344 94.903 57.0358 94.8169C56.9927 94.5156 56.9066 94.5156 56.8636 94.2573C56.8205 93.999 56.8205 93.8268 56.7775 93.6116H53.3337V102.006Z" fill="white"/>
<path fill-rule="evenodd" clip-rule="evenodd" d="M55.3601 36.9657C56.0058 36.9657 56.4363 37.0518 56.9528 37.0949L58.5456 37.224C58.6317 37.0518 58.7608 36.32 58.7608 36.0617C58.7608 35.0286 57.5985 35.8035 57.125 35.1578C56.2641 34.0816 57.5124 33.7803 58.5886 33.7803V32.2736L57.2111 32.3597C57.125 32.0153 57.125 32.3167 56.9528 32.0153C56.9959 31.8001 57.0389 31.8001 57.125 31.6279C57.3833 30.81 56.6515 30.9392 58.1581 30.9392C58.976 30.9392 58.8899 30.4657 58.976 29.4756H55.4893V36.9657H55.3601Z" fill="white"/>
<path fill-rule="evenodd" clip-rule="evenodd" d="M74.8131 69.5917C75.0713 69.6778 75.0283 69.6778 75.0713 69.9361H76.3197C76.3197 69.5056 76.4488 68.7738 76.578 68.4725C76.7071 68.5586 76.8793 68.5586 77.0084 68.6017C77.3959 68.7308 77.8263 68.9891 78.2568 69.0321C78.2138 69.7209 76.7502 71.0123 79.2038 71.0123C79.2038 70.4957 79.4191 70.4957 79.4191 69.6348C80.8827 69.6778 80.7105 70.3235 80.7105 71.0123C80.7105 71.3566 80.5383 71.3136 80.4952 71.701C81.3992 72.1745 81.6575 72.7772 82.4754 70.3666L82.8628 69.2904C82.088 68.7738 80.4522 68.2573 79.4191 67.8268C78.8595 67.6116 78.2999 67.3533 77.6542 67.1811L76.1906 66.7506C75.9323 66.7076 75.8892 66.7506 75.674 66.6646C75.2866 67.4394 74.77 68.6447 74.77 69.5487L74.8131 69.5917Z" fill="white"/>
<path fill-rule="evenodd" clip-rule="evenodd" d="M78.2834 63.0817C78.2834 62.6512 78.1542 62.3068 78.1542 61.8333C78.1542 61.575 78.5847 61.2737 78.9291 60.7571C79.1443 60.4128 79.0152 60.4558 79.5748 60.4558C80.3496 60.4558 81.5549 60.4989 82.0715 60.7141C82.8463 61.0585 82.8033 62.1346 82.8033 63.0386H84.2669C84.2669 61.9624 84.4821 60.4989 83.5351 59.724C81.3397 58.0021 77.3363 58.4326 76.6476 61.1876C76.3463 62.436 76.5184 63.0386 78.2834 63.0386V63.0817Z" fill="white"/>
<path fill-rule="evenodd" clip-rule="evenodd" d="M33.4009 42.7138C33.4009 43.4887 33.6161 43.8761 34.1327 44.2635C34.9506 44.8662 35.1227 44.9953 36.0267 44.9953C36.3711 44.9953 36.7585 44.9092 37.0168 44.8231C37.9208 44.4357 37.4473 43.9622 38.997 44.9953C38.9109 45.9423 38.4373 45.5119 38.1791 46.7172C38.5234 46.8894 38.9109 47.2768 39.083 47.2768C39.2983 47.2768 39.987 46.545 40.1162 46.4159C40.5466 45.8132 40.5036 45.0384 40.5036 44.2635C40.5036 44.0483 40.4605 44.1344 40.3744 44.0483L40.1592 43.8761C39.3844 43.2734 39.2552 43.0152 38.2652 43.0152C37.189 43.0152 35.1227 43.7039 35.1227 42.6708C35.1227 42.2403 35.8976 41.4224 35.4241 41.0781C34.7784 40.6046 33.487 41.7668 33.487 42.7569L33.4009 42.7138Z" fill="white"/>
<path fill-rule="evenodd" clip-rule="evenodd" d="M76.0298 49.2368V48.4189C73.5331 48.4189 74.7815 51.5613 76.8477 51.5613C78.6987 51.5613 79.2153 49.1938 79.5166 48.462C79.6888 48.0315 80.2484 47.8593 80.808 47.8593C80.8511 48.1606 81.0663 48.6772 81.0663 49.3229C82.7882 49.1938 82.5729 48.2898 81.8842 47.1706C81.3676 46.3096 81.4537 46.4388 80.765 46.4388C79.3875 46.4388 78.3544 46.9984 77.8808 47.9884C77.6656 48.4189 77.5365 49.3229 77.2782 49.6242C77.063 49.8825 76.8047 49.9255 76.5034 49.8825C76.159 49.8395 75.9007 49.7103 75.9007 49.3229L76.0298 49.2368Z" fill="white"/>
<path fill-rule="evenodd" clip-rule="evenodd" d="M70.3218 75.1477C70.3218 75.8794 70.8814 76.4391 71.3119 76.8265C72.6893 77.9887 72.7754 78.5483 73.3351 80.1841C73.4642 80.5285 73.5503 80.7868 73.6364 81.1742C73.7225 81.4755 73.8516 82.0351 73.9377 82.2504C74.6695 81.7769 75.4443 81.3033 74.9278 80.4424C74.6695 80.0119 74.3251 79.3232 74.2821 78.8497L75.3152 79.3232C75.6165 79.4954 76.0039 79.7537 76.4775 79.7537C76.951 79.7537 77.3814 78.9788 77.3814 78.5053C77.0801 78.4192 76.7788 78.247 76.4344 78.1179C76.09 77.9887 75.8318 77.8596 75.5304 77.7305C75.2291 77.6013 74.9278 77.4722 74.6265 77.343C73.9807 77.0848 74.0238 77.2139 73.5503 76.7834C73.4211 76.6973 73.4211 76.6973 73.3781 76.6543C72.8185 76.1377 72.0867 74.8033 70.8383 74.502C70.7522 74.6311 70.3648 75.0185 70.3648 75.1907L70.3218 75.1477Z" fill="white"/>
<path fill-rule="evenodd" clip-rule="evenodd" d="M31.9866 67.8827C31.6423 67.8827 31.2118 67.8827 31.1257 67.4522C31.0827 67.1939 31.0396 66.7204 31.0396 66.4191C30.6091 66.5052 29.7913 66.6773 29.7913 67.4522C29.7913 68.184 30.3939 68.9588 30.8674 69.2601C31.5992 69.7767 32.331 69.7337 33.0198 69.2171C34.9569 67.7535 33.9237 66.2038 35.9469 66.2038C35.9469 66.4191 36.1191 67.8827 36.2913 67.8827H36.3774C36.7648 67.8396 37.7549 67.4952 37.7549 66.8495C37.7549 66.2469 37.0662 65.472 36.7648 65.0846C36.4205 64.6111 36.4205 64.7402 35.8178 64.7833C34.7416 64.9124 33.7085 65.0416 33.1059 66.2038C32.8045 66.7634 32.7184 67.8827 32.0297 67.8827H31.9866Z" fill="white"/>
<path fill-rule="evenodd" clip-rule="evenodd" d="M70.8327 41.2943C70.5314 41.2943 70.3162 40.95 70.0579 40.6917C69.6705 40.3043 70.0148 40.4764 69.3691 40.046C68.9817 40.8208 68.4221 41.7248 69.5413 42.4996C70.6175 43.2314 71.3923 43.0162 72.2533 42.1553C73.1142 41.2943 73.0712 40.7778 72.899 39.4864C72.6407 37.8506 72.8129 37.8936 74.2334 37.8936C74.2765 38.238 74.5778 38.6254 74.9222 38.6685C75.0513 38.238 75.6109 37.8506 75.3526 37.4201C75.3526 37.3771 74.5778 36.4301 74.4487 36.4301C72.038 36.4301 72.9851 36.3009 71.5645 37.4632C71.3062 37.6784 71.3493 37.8075 71.3923 38.238C71.3923 38.7546 71.4354 41.3804 70.8327 41.3804V41.2943Z" fill="white"/>
<path fill-rule="evenodd" clip-rule="evenodd" d="M72.7913 72.2009C73.3939 72.8896 74.8145 73.6214 75.6754 74.138L77.182 75.042C78.6026 76.0751 77.182 77.0651 78.3012 77.0651C79.1191 77.0651 79.4205 76.3334 79.6787 75.7738C79.9801 75.1711 80.4105 74.6545 80.5827 73.9227C80.4105 73.7075 80.0231 73.3631 79.7648 73.4062C78.7317 73.7075 79.3344 74.6976 76.278 72.6313C74.4701 71.426 73.6522 70.5651 72.8343 72.1578L72.7913 72.2009Z" fill="white"/>
<path fill-rule="evenodd" clip-rule="evenodd" d="M67.9485 33.8558C68.5942 33.8989 68.5511 33.985 68.8525 34.4155L66.4849 38.4618C66.2266 38.9354 65.9253 39.3658 65.667 39.8393C66.3127 39.9685 66.2696 39.7963 66.5279 40.0115C66.7432 40.1407 66.8293 40.3989 67.1736 40.3989L69.369 36.4386C69.4982 36.1804 69.5842 36.0082 69.7134 35.7499C69.8425 35.4916 69.8856 35.2764 70.0147 35.0181C70.1869 35.0612 71.7366 35.7929 71.7366 34.7598C71.7366 33.8558 71.9088 34.2863 70.1869 33.3823C69.7995 33.1671 68.9385 32.5214 68.5942 32.4353C68.0776 32.8227 68.0346 33.2532 67.9915 33.8989L67.9485 33.8558Z" fill="white"/>
<path fill-rule="evenodd" clip-rule="evenodd" d="M28.8685 63.0839C28.8685 63.3422 28.8685 64.3753 29.0837 64.4184L34.895 63.6435C36.8752 63.3422 36.5739 63.4283 36.2725 61.4481C36.2295 61.0607 36.1434 60.5442 36.1434 60.1567C35.6699 60.1567 35.3255 60.1567 34.9811 60.2859C33.991 60.7163 35.8851 61.7925 33.3023 62.266C32.2692 62.4382 30.9778 62.4813 29.7294 62.6104C29.4711 62.6535 28.8254 62.7395 28.8254 63.0839H28.8685Z" fill="white"/>
<path fill-rule="evenodd" clip-rule="evenodd" d="M36.1714 38.935C36.2575 39.0642 36.8601 39.4946 37.0754 39.4946C37.2045 39.4946 37.635 39.1503 38.1946 39.0211C38.2807 39.0642 38.582 39.4516 38.7111 39.5377C39.3138 40.2264 41.7244 42.8953 42.284 43.2828C42.6714 43.0245 43.0158 42.637 43.4032 42.3788L42.3701 41.2165C42.1979 41.0013 42.0257 40.8721 41.8105 40.6569L40.2178 38.935C40.0025 38.7198 39.1847 37.945 39.1847 37.6867C39.1847 37.4714 39.2277 37.5575 39.3138 37.4714L39.3999 37.3854L39.4429 37.3423C39.6151 37.1271 39.7012 36.7827 39.7012 36.4814C39.7012 36.2661 39.5721 36.3092 39.3999 36.2231C38.8403 36.0509 38.7542 36.0509 38.1085 36.6536L37.3767 37.2993C36.9462 37.7297 36.4297 38.2032 36.2575 38.8489L36.1714 38.935Z" fill="white"/>
<path fill-rule="evenodd" clip-rule="evenodd" d="M42.7258 95.1954C42.7258 95.5828 42.7689 95.7119 42.8119 96.0563C42.855 96.4007 42.898 96.6159 42.9411 96.9603C43.0272 97.5199 43.1132 98.1226 43.1993 98.7683C43.2854 99.3279 43.3715 99.9736 43.4576 100.576C43.6729 101.782 43.802 101.222 43.802 102.901C44.8351 102.901 45.0504 102.686 45.61 102.642L44.4477 94.5927C43.6729 94.5927 42.7258 94.4205 42.7258 95.1954Z" fill="white"/>
<path fill-rule="evenodd" clip-rule="evenodd" d="M63.1134 102.578H64.8352L65.9975 94.5286H64.1895C64.1895 95.4756 63.0703 101.459 63.0703 102.578H63.1134Z" fill="white"/>
<path fill-rule="evenodd" clip-rule="evenodd" d="M75.958 65.3108C76.862 65.7843 80.2196 66.5161 81.3819 66.7743C82.0276 66.9035 82.6733 67.0326 83.4481 67.0326C83.4481 65.9995 83.4912 65.526 82.415 65.2247L78.4978 64.3207C77.4646 64.0624 77.5077 63.8472 76.2163 63.8472C76.2163 64.3637 76.0441 64.8372 75.958 65.3108Z" fill="white"/>
<path fill-rule="evenodd" clip-rule="evenodd" d="M28.8662 59.3692H36.1411V57.8625H29.3827C28.2205 57.8625 28.5218 58.3791 28.6079 58.9387C28.6509 59.197 28.5649 59.3692 28.8662 59.3692Z" fill="white"/>
<path fill-rule="evenodd" clip-rule="evenodd" d="M74.8647 41.1822C74.8647 41.4405 74.9939 41.5266 75.123 41.6988C75.5105 42.2153 75.4674 42.2153 77.0171 41.6988C77.2754 41.6127 77.5336 41.5266 77.7489 41.4835C77.9641 41.4405 78.4376 41.3113 78.5668 41.2683C78.3515 40.2782 78.0502 39.8908 76.974 40.2782C76.4575 40.4504 75.1661 41.1392 74.8647 41.1822Z" fill="white"/>
</g>
<defs>
<clipPath id="clip0_1_1721">
<rect width="111.24" height="110.286" fill="white"/>
</clipPath>
</defs>
</svg>
