<svg width="131" height="194" viewBox="0 0 131 194" fill="none" xmlns="http://www.w3.org/2000/svg">
<path d="M28.9262 182.967C20.3482 182.967 15.3044 177.96 15.3044 170.265C15.3044 162.571 20.3482 157.564 28.9262 157.564C37.2098 157.564 42.1799 161.503 42.1799 168.093V168.719H34.4486V168.093C34.4486 165.295 33.1232 164.191 29.0367 164.191C24.0297 164.191 22.6676 165.369 22.6676 170.265C22.6676 175.162 24.0297 176.34 29.0367 176.34C33.1232 176.34 34.4486 175.235 34.4486 172.437V171.812H42.1799V172.437C42.1799 179.028 37.2098 182.967 28.9262 182.967ZM57.294 182.967C48.7159 182.967 43.6353 177.96 43.6353 170.265C43.6353 162.571 48.7159 157.564 57.294 157.564C66.0929 157.564 71.0999 162.571 71.0999 170.265C71.0999 177.96 66.0929 182.967 57.294 182.967ZM57.294 176.34C62.3009 176.34 63.7367 175.162 63.7367 170.265C63.7367 165.369 62.3009 164.191 57.294 164.191C52.287 164.191 50.9985 165.369 50.9985 170.265C50.9985 175.162 52.287 176.34 57.294 176.34ZM79.8669 182.599H72.9456V157.932H79.8669V167.099H91.3535V157.932H98.2748V182.599H91.3535V173.321H79.8669V182.599ZM107.407 182.599H100.486V157.932H107.407V182.599Z" fill="#060737"/>
<g clip-path="url(#clip0_1_1091)">
<path fill-rule="evenodd" clip-rule="evenodd" d="M119.053 48.2156C120.015 48.0131 121.078 47.9624 122.142 47.8105C122.547 47.7599 122.749 47.6586 123.104 47.5573C123.306 48.3675 123.458 48.3675 123.762 48.9752C124.015 49.4816 124.167 49.9374 124.37 50.4944C124.724 51.7098 124.876 52.7225 125.028 54.0392C125.231 55.4571 125.028 56.6724 125.028 58.0397C125.028 59.3563 124.927 60.7236 124.775 61.9896C124.724 62.5466 124.623 63.2556 124.522 63.8633C124.471 64.4709 124.42 65.1799 124.37 65.7876C124.319 65.9901 123.914 66.6991 123.762 67.3068C123.205 69.6362 123.509 69.7881 122.597 72.472C122.192 73.6367 121.99 74.6495 121.99 76.118C122.294 76.2193 123.205 76.7764 123.509 76.9283L125.028 77.8398C125.028 78.4475 124.876 79.5109 124.876 80.3718C124.876 80.8275 124.978 80.8275 124.978 81.2833C124.37 81.5871 124.623 81.4352 124.269 82.3467C124.167 82.5493 124.167 82.6506 124.066 82.8531C123.813 83.5114 123.61 84.1191 123.306 84.7774C122.749 86.0434 122.192 87.1575 121.534 88.3222C120.116 90.9555 118.242 93.4368 116.267 95.6649C116.116 95.8169 116.065 95.8675 115.913 96.0701L110.343 102.501C109.634 103.413 109.279 103.919 108.823 105.033C107.102 109.641 106.849 114.604 102.088 116.984C100.873 117.592 99.5058 118.048 98.2398 118.453L96.1129 119.01C94.9482 119.263 95.2014 119.314 94.5431 120.124C93.6316 121.289 91.5554 122.656 91.0996 123.922C90.9983 124.175 91.049 124.226 90.7451 124.226C89.9349 124.276 89.6817 124.58 88.9221 124.985C87.8587 125.492 85.8837 126.353 84.5671 126.353C83.5037 126.353 81.3768 125.188 80.3134 124.783C79.6044 124.479 78.9461 124.226 78.2371 123.972C77.5282 123.719 76.7686 123.415 76.0596 123.162C73.9328 122.453 71.4008 121.592 69.2233 121.238C67.7547 121.035 64.0074 121.086 62.5389 121.086C58.9435 121.086 52.7654 121.44 49.4738 122.757C49.0181 122.96 49.1194 122.909 48.5623 122.96C47.904 123.061 47.6002 123.415 46.9419 123.567C46.9925 123.922 46.9925 123.922 46.7899 124.226C43.9541 123.567 43.2452 126.403 37.7255 122.706C36.5101 121.896 35.5479 120.883 34.3832 120.073C34.13 119.921 34.13 119.871 33.7249 119.871C33.6743 119.719 33.6236 119.516 33.573 119.364C33.4717 119.111 33.4211 119.06 33.3704 118.807C31.8513 118.807 32.5096 118.757 31.3955 118.351C30.7878 118.098 30.2308 117.896 29.6738 117.693C28.509 117.237 27.395 116.782 26.1796 116.326C25.6226 116.123 25.42 115.465 25.0655 115.009C24.0528 113.693 23.7996 115.516 22.3816 110.401L20.9131 104.578C20.7105 103.818 20.6093 103.565 20.1535 102.906L17.0645 98.7033C16.8619 98.4501 16.7607 98.2476 16.5581 97.9944C16.153 97.488 16.3049 97.5386 15.7985 97.5892C15.444 96.1207 11.1903 90.3984 10.0762 88.5247C8.65831 86.1447 7.44296 83.6127 6.58209 80.9288C5.51865 77.7892 6.02505 77.9917 6.02505 75.3078C6.73401 75.2572 8.86087 73.8899 9.72174 73.6873C9.72174 72.8771 9.51919 72.1682 9.31663 71.5098L8.10128 67.56C6.9872 64.319 6.17697 59.8627 6.17697 56.0648C6.17697 50.7982 8.05064 47.3041 8.05064 45.7343H11.1397C11.1397 46.5952 11.5954 47.0509 12.4563 47.0509C13.1652 47.0509 15.6972 40.569 16.0517 39.6575C16.9126 37.7839 17.7228 35.9102 18.7356 34.0872C19.0901 33.4795 19.3939 32.8718 19.7484 32.2641L22.888 27.1495L26.686 22.6426C27.395 21.9843 27.952 21.1741 28.5597 20.4145C28.9142 20.0094 29.0154 20.1613 29.0154 19.4017C29.5218 19.3004 30.3827 18.6421 30.7878 18.3382C34.282 16.0595 33.6743 18.8446 34.0794 21.2753C34.1807 21.7311 34.282 22.3388 34.3326 22.7945C34.6364 22.6933 36.0543 21.5285 36.3582 21.326C37.6748 20.3132 39.0927 19.4017 40.3587 18.2876L41.8779 17.1735C42.283 16.8697 42.2324 16.3127 42.5869 16.1607C43.3464 15.8569 43.2958 16.2114 44.3592 15.2492C44.6631 14.9454 45.0176 14.7428 45.372 14.4896C45.5746 14.3884 45.7771 14.2871 45.9797 14.1858C46.2329 14.0845 46.4355 14.0845 46.638 13.9326C47.1444 13.5781 47.2963 13.5781 47.8534 13.3756C50.0309 12.5653 51.1956 11.7551 53.4237 10.9449C54.6897 10.4891 55.8544 9.88143 57.1204 9.3244C57.7281 9.0712 58.4371 8.86864 59.0447 8.61544C60.8678 7.75457 62.6401 6.89369 64.3619 5.93154C65.1215 5.52642 65.7798 5.17195 66.742 5.17195C68.1599 5.17195 70.1854 6.28602 71.1982 6.79242C73.2745 7.80521 75.1988 8.96992 77.2244 9.98271L83.2505 13.173L83.9088 13.0717C84.4152 13.9832 84.8203 14.0339 85.7318 14.4896C85.985 14.5909 86.0357 14.6416 86.2382 14.7935L87.7068 15.7556C88.0106 15.9582 88.3651 16.1607 88.6689 16.3633C91.2009 17.9838 92.8214 18.9966 95.404 20.9209C96.2142 21.5285 98.5943 23.3009 99.4045 23.4022C99.4551 23.0984 99.7083 22.6933 99.8096 22.3388C100.417 20.4651 101.126 18.4395 103.051 20.7689C103.456 21.2753 103.709 21.883 104.367 22.0349C104.367 22.6933 104.165 22.4401 104.468 22.9971C104.924 23.858 105.431 24.6176 105.937 25.3772C107.608 27.9598 109.127 30.593 110.849 33.1757C111.204 33.7327 111.355 34.3404 111.659 34.948C112.216 36.1128 112.824 37.1762 113.482 38.2396L118.951 48.0637L119.053 48.2156ZM46.4355 9.0712C46.4355 9.37504 46.3848 9.52695 46.2836 9.72951C44.4605 9.72951 42.8907 10.8436 41.5234 11.7551C40.8651 12.2109 40.2068 12.6666 39.6498 13.2743C38.637 14.3377 38.9408 14.1858 37.4723 14.4896L34.6364 11.7045C34.282 11.35 33.7249 11.6538 33.2692 11.7551C32.2564 11.9577 31.2942 12.2615 30.4333 12.616C28.1039 13.6288 28.8635 13.9832 28.4078 14.3884H28.2558C27.0911 14.5403 26.2809 15.705 25.4707 16.5152C23.4957 18.4902 23.4451 18.6927 21.9765 20.7689L19.8497 23.8073C18.9382 25.124 18.1786 26.5419 17.4696 27.9598C17.3177 28.2636 17.2164 28.5674 17.0645 28.8713L13.5704 35.8089C12.9627 36.9736 12.5069 38.2396 11.8992 39.4043H6.48081C6.27825 39.8094 5.97441 40.2146 5.77185 40.6197C5.36674 41.3286 4.60714 42.3921 4.3033 43.101C3.99947 43.8606 3.79691 43.7593 4.15138 44.5189C3.44243 45.0253 2.98667 45.9368 2.68284 46.899C1.56876 50.1906 1.82196 54.0392 1.82196 57.6852C1.82196 60.3691 1.51812 60.3185 2.22708 62.9011C2.78412 64.9267 3.39179 67.0536 3.69563 69.2311C3.74627 69.6868 3.84755 70.5983 3.84755 71.1047L1.46749 72.1682C0.353414 72.7252 0.0495758 73.2316 0.0495758 74.6495C0.0495758 76.4219 0.454693 78.1943 0.910449 79.8147C1.26493 80.9795 2.32836 84.271 2.88539 85.2838C3.84755 86.9549 5.97441 89.8414 7.08848 91.715C7.4936 92.3734 7.89872 92.8798 8.25319 93.5381C9.01279 94.8041 9.9243 95.8675 10.5826 97.1841C10.7345 97.488 11.089 97.8931 11.1903 98.0956C11.5448 98.9565 11.3929 99.0578 12.2031 100.071C12.3044 100.223 12.4056 100.324 12.5069 100.476L14.9883 103.261C15.7985 104.274 16.3555 104.78 16.5581 106.299C17.0645 109.641 17.9254 113.186 19.1914 115.718C20.7105 118.757 22.3816 120.175 25.3187 121.643C26.9899 122.453 28.7622 123.162 30.3827 124.023C31.041 124.378 31.6993 124.783 32.4589 125.036C32.9653 125.188 33.016 125.34 33.4211 125.644C33.7249 125.897 33.9781 126.049 34.3326 126.201C34.7377 126.353 35.0415 126.403 35.396 126.656C35.8011 126.96 39.4472 129.543 39.903 129.695C40.2068 129.796 40.8651 129.847 41.2702 129.847H56.8672C58.1839 129.847 59.4498 129.543 60.5133 129.29C63.5517 128.479 64.1087 128.327 67.0964 128.935C69.8816 129.543 72.4136 129.847 75.4013 129.847H87.5548C89.3272 129.847 91.2009 128.631 92.163 127.669C92.5682 127.264 92.5175 127.213 93.0239 127.011C93.8848 126.656 94.6444 126.049 95.3533 125.441C99.759 121.694 99.3539 123.719 103.709 121.491C105.988 120.326 108.115 118.807 109.634 116.731C112.976 112.224 112.166 110.199 113.482 106.755C114.039 105.337 115.913 103.261 117.078 101.995C117.23 101.792 117.28 101.742 117.432 101.539C118.901 99.9187 121.23 97.2854 122.243 95.6143C122.8 94.6521 123.509 93.8419 124.167 92.9304C124.623 92.3227 124.978 91.715 125.383 91.1074C126.649 89.1831 127.661 87.1068 128.421 84.9293C128.573 84.4736 128.775 84.4229 129.029 84.0178C130.193 82.0429 130.852 77.3334 130.852 75.0546C130.852 74.8014 130.649 74.8014 130.396 74.7001C129.13 74.1431 127.864 72.6239 127.864 71.1554C127.864 68.9779 128.32 67.6106 129.079 65.6863C129.991 63.4581 130.193 62.5973 130.193 59.9134C130.193 53.7353 128.877 49.3803 127.104 44.0632C126.598 42.5946 126.092 40.721 125.433 39.455C124.674 39.6575 120.876 40.4171 120.015 40.4171C119.914 39.2524 118.597 37.2268 117.685 36.3659C117.179 35.9102 117.635 35.4038 116.926 33.8846C116.571 33.125 116.166 32.5173 115.761 31.8084L112.267 25.5797C112.166 25.3265 112.064 25.2252 111.963 25.0733C111.862 24.8708 111.811 24.7695 111.659 24.5669L111.153 23.858C111.001 23.706 111.102 23.858 110.95 23.6554C110.849 23.5035 110.849 23.3516 110.697 23.149C109.684 21.2753 108.368 19.5536 107 17.9331C106.849 17.7812 106.747 17.6799 106.595 17.528C105.532 16.1101 103.152 14.1352 101.531 13.73C97.6321 12.7172 99.8096 17.0723 92.7201 14.0339C91.7579 13.6288 90.9983 13.1224 90.0868 12.6666C88.0612 11.6538 87.808 11.6538 85.7318 10.3372L83.2505 8.818C82.9466 8.61544 82.7441 8.46352 82.3896 8.3116C81.8326 7.95713 81.3768 7.65329 80.7691 7.29881C78.0346 5.6277 75.2494 3.9566 72.7174 2.03229C72.0591 1.5259 70.1348 0.0573463 69.3246 0.0573463C66.8939 0.0573463 66.6407 -0.0945725 64.3112 1.12078L59.3486 3.60212C57.5255 4.46299 48.8155 7.75457 47.6508 8.66608C47.347 8.91928 46.6887 9.02056 46.2329 9.12184L46.4355 9.0712Z" fill="#060737"/>
<path fill-rule="evenodd" clip-rule="evenodd" d="M64.8804 106.446C61.7914 106.446 61.0318 106.193 58.3479 105.282C57.4364 104.978 56.5755 104.573 55.664 104.218C53.841 103.459 52.3218 102.648 50.6507 101.787C48.5745 100.775 45.6374 98.8504 43.8144 97.4325C43.0548 96.8248 40.6241 94.4954 40.067 93.7358C39.0036 92.4192 37.9402 91.7608 36.6235 89.7352C34.6992 86.8488 35.4082 88.2667 33.9903 84.9751C33.332 83.5066 32.9268 82.2406 32.0153 80.9746C31.8634 80.772 31.914 80.8733 31.914 80.6708C31.914 80.4176 32.0153 80.1137 32.0153 79.8605C32.0153 79.3035 31.6608 78.4426 31.5089 77.8856C31.3064 77.1766 31.2051 76.5183 31.1038 75.7081L30.9013 73.328C30.8 72.6191 30.8506 71.6063 30.7493 70.8467C30.6481 69.7832 31.0532 64.9725 31.3064 63.7571C32.2685 58.8957 33.9396 54.7939 36.0665 50.4896C37.7882 47.0461 39.2568 44.8686 41.8901 42.1847C42.1432 41.9315 42.3458 41.8302 42.599 41.577C42.8016 41.3744 43.0041 41.2225 43.2573 41.0199L44.7259 39.9059C44.9791 39.7033 45.2323 39.5514 45.4855 39.3488C45.9919 38.9944 46.4983 38.6399 47.0046 38.2854C48.3719 37.3739 48.9796 37.1713 50.2456 36.4624C50.8533 36.1079 51.309 35.9053 51.9673 35.6015C52.5244 35.2977 53.1827 35.0951 53.7904 34.8419C59.3101 32.867 64.2728 32.5631 70.1976 33.0189C71.3623 33.1202 72.6789 33.2721 73.793 33.4746C77.5403 34.0823 79.6166 34.8419 82.7056 36.5637C83.9209 37.222 87.7189 39.754 88.6304 40.6655C89.0862 41.1212 89.2381 41.4757 89.8457 41.4757C89.8964 42.0327 91.6688 43.7038 92.1752 44.3115L93.0361 45.223C94.5552 47.1473 94.7072 47.0461 96.0744 49.2236C96.1757 49.4261 96.277 49.578 96.3783 49.73C98.3026 53.0722 98.7077 52.11 99.366 56.3638L100.328 62.4405C100.48 63.352 100.632 64.5674 100.683 65.5295C100.835 67.5045 101.138 70.0871 100.936 72.1633C100.835 73.2267 100.733 74.2395 100.581 75.303C100.429 76.417 100.278 77.2779 100.024 78.3413C99.6192 80.2656 99.0622 82.038 98.4545 83.8104C97.9481 85.279 97.0872 87.3046 96.3783 88.6718C95.6187 90.2416 94.4033 92.1153 93.3399 93.4319C93.188 93.6345 93.036 93.6851 92.9348 93.8877C92.479 94.4954 92.2765 94.6473 92.1752 95.3056L92.1245 95.5082C92.0233 95.812 90.8079 96.5716 90.5041 96.8248C89.8458 97.3312 89.1874 97.8376 88.4785 98.2933L85.4401 100.521C85.2376 100.673 85.0856 100.775 84.9337 100.876C84.4273 101.23 84.6299 101.332 83.4145 101.939C78.9076 104.218 76.8314 105.028 71.4636 105.839C69.438 106.142 67.2605 106.345 64.9817 106.345L64.8804 106.446ZM37.8895 38.0828C38.4972 38.3867 39.2568 38.4373 39.7125 38.8931C40.4215 39.5514 40.1683 40.0072 40.5228 40.7161C38.953 41.577 37.535 42.6911 35.9146 43.4506C34.446 44.1596 32.9268 44.8686 31.357 45.3243C30.8506 45.4762 30.091 46.1345 29.7365 46.5397C28.5212 47.755 28.3693 48.5146 27.6603 50.0338L26.4956 52.6164C26.1918 53.4267 25.736 54.5407 25.736 55.6042C26.1918 55.5029 26.5462 55.5029 27.002 55.351C28.4706 54.8446 28.0148 54.5914 31.0532 54.5914C30.7493 55.8573 30.2936 56.8701 29.4327 57.731C28.9769 58.1868 28.7238 58.5919 28.2174 58.9464C27.711 59.3008 27.2552 59.554 26.7488 59.9085L25.8373 60.6681C23.1028 63.0988 22.7989 64.6686 23.1534 68.2641C23.204 68.7705 23.2547 69.4288 23.356 70.0364L23.8117 75.5055C23.913 77.3792 24.3687 79.0503 24.3687 80.924C26.5462 79.7592 26.1918 78.8984 27.3565 77.6324C27.559 77.4298 27.9135 76.9741 28.1667 76.9234C28.4706 76.8728 29.1795 77.0754 29.3821 77.2779C29.7872 77.683 29.7365 78.6958 29.8378 79.2528C30.091 80.3163 29.9897 79.7592 29.1795 80.924C28.5718 81.7848 27.5084 83.9623 27.5084 84.9751C27.5084 87.0514 27.9642 88.2161 28.825 89.9378L29.7872 91.6596C30.8506 93.3307 32.0153 94.8498 33.1294 96.4703C33.7877 97.4325 35.0031 98.4453 35.7627 99.3061L37.0793 100.673C37.2312 100.825 37.2312 100.876 37.3831 101.028L39.0542 102.8C39.7632 103.509 40.4721 104.117 41.0798 104.876L44.3714 108.371C44.6752 108.674 44.8271 108.776 45.0803 109.029C46.397 110.194 47.7642 109.839 49.3341 109.637C51.0558 109.383 52.8282 108.978 54.6006 108.978C55.0563 108.978 55.4108 108.978 55.7653 108.928H67.4124C67.7669 108.928 68.172 108.928 68.5265 108.928C69.0329 108.928 69.1342 109.029 69.6406 109.029C71.3117 109.029 72.7296 109.13 74.35 109.13C75.2109 109.13 75.8186 109.231 76.6288 109.231C77.6922 109.231 80.2749 109.282 81.1357 109.434C82.0979 109.586 83.6677 110.092 84.5286 109.485L86.1997 108.016C86.4023 107.814 86.4529 107.814 86.6555 107.662L89.5926 105.028C89.9977 104.623 90.1496 104.674 90.1496 103.965C91.5169 103.661 92.8841 101.737 93.8969 100.673L94.9097 99.6606C95.7706 98.7997 96.4795 97.8376 97.3404 96.9767C98.2519 96.0652 100.733 93.28 101.29 92.3685C101.341 92.2672 101.392 92.1153 101.493 92.0647C101.999 91.3557 101.392 92.5204 102.303 91.457C102.86 90.7987 103.468 90.2416 103.924 89.5327C105.544 87.0514 104.784 84.6207 104.075 81.9368C103.822 80.8733 103.67 79.8099 103.518 78.6958C103.468 78.2401 103.367 77.7843 103.924 77.7843C104.734 77.7843 106.405 79.4554 107.468 79.9618C107.873 80.1644 108.43 80.3163 108.988 80.3669V73.4799C108.988 72.2139 108.684 70.1884 108.43 69.0237C107.772 66.0359 106.05 63.6052 104.531 61.0226C103.772 59.8072 103.113 58.5413 102.202 57.4272C101.949 57.1233 101.645 56.465 101.645 55.9586C102.86 55.6548 102.404 54.9965 104.075 55.908C104.481 56.1105 104.784 56.2625 105.19 56.4144C105.696 56.6169 107.013 57.2753 107.62 57.2753C107.57 55.9586 105.899 53.0722 105.139 51.9581C103.215 49.0716 101.999 47.9069 99.2647 46.0839C98.0494 45.2737 94.1501 43.1975 93.3399 42.2353C92.9348 41.6783 92.9348 41.4757 92.7829 40.7667H96.4795C96.4289 40.6655 96.3783 40.5642 96.3276 40.4629C95.9731 39.7033 96.2263 40.0072 95.8719 39.9565C95.1629 39.8046 95.8212 39.6527 95.4668 39.2476L90.656 35.6521C90.099 35.1964 89.5419 34.7406 88.9342 34.3355L85.4401 31.6516C82.9588 29.778 81.0345 28.0562 78.3506 26.537C76.4769 25.4736 73.3372 23.7012 71.7168 22.4352L69.1342 20.4096C68.4252 19.8526 67.8175 19.3462 66.8047 19.3462C65.2855 19.3462 63.4625 21.3718 62.1459 22.0301L56.93 24.3595C56.2717 24.6127 55.6134 24.9672 54.8538 25.271C54.1448 25.5749 52.5244 26.2838 51.9673 26.7902C51.5622 27.1447 51.2077 27.5498 50.752 27.8536C50.3469 28.1068 50.0937 27.6511 47.3085 29.6767C47.0047 29.9299 46.7515 30.0818 46.4983 30.2843L42.1432 33.4746C40.8773 34.4874 37.9402 36.6649 37.7882 38.1335L37.8895 38.0828Z" fill="#060737"/>
<path fill-rule="evenodd" clip-rule="evenodd" d="M62.7417 89.2507C62.691 88.7443 62.691 88.9975 62.7417 88.5418H62.0833C62.2859 86.2124 64.1089 87.0226 65.4762 85.6047C65.5775 85.5034 65.7294 85.3009 65.8307 85.3009C66.0332 85.2502 65.932 85.4021 66.1345 85.3009C67.046 85.0477 70.3376 82.6676 71.0466 82.0599C73.4266 80.1356 75.3003 77.6543 76.6676 74.9704C78.1867 71.932 79.0983 68.5898 79.6046 65.1969C79.9591 62.7662 79.9591 61.6015 79.9591 59.2721C79.9591 57.9048 80.4149 57.7023 81.5796 57.6516C81.6809 58.6138 82.0353 59.3734 82.2379 60.2343C82.4405 61.0951 82.5924 61.956 82.8456 62.8675C83.6558 66.5642 83.7065 66.7668 83.7065 70.5141C83.7065 73.3499 82.5417 76.3883 81.529 78.2113C80.8706 79.3254 80.111 80.4395 79.1995 81.4016L77.6803 83.0221C77.4271 83.2753 77.2752 83.3766 76.9714 83.6298C76.7688 83.8323 76.5663 83.9842 76.3131 84.1868C76.1105 84.3893 75.8573 84.5413 75.6548 84.7438C72.7177 87.0732 69.021 89.2001 65.1217 89.1495C64.4634 89.1495 63.1974 89.0988 62.7923 89.3014L62.7417 89.2507ZM77.5284 62.9688C76.7688 64.0829 76.5663 63.779 76.1105 64.2348C75.7054 64.6905 76.0599 64.5386 75.3509 64.7412C75.0977 64.8425 75.0977 64.7412 74.9964 65.045C74.9458 65.1463 74.8952 65.5008 74.8445 65.6527C73.7811 65.3995 74.3381 65.4501 73.5785 65.9059C71.9581 66.9187 67.755 68.4379 67.046 68.9443C66.2358 69.5013 65.9319 70.5141 65.7294 71.4256C65.6281 71.9826 65.5268 72.3878 65.4256 72.9448C65.1724 74.0589 65.0204 75.3755 64.7672 76.0844C64.0583 77.9075 64.0583 84.0855 63.1974 84.0855C62.691 84.0855 62.0327 83.8323 61.7795 83.5791C60.9186 82.7689 59.8046 79.6292 59.1969 78.3126C58.9437 77.8062 58.7918 77.4011 58.5892 76.8947C58.3866 76.4389 58.2347 75.9832 58.0828 75.4261C57.8803 74.5146 57.5258 74.6665 57.3739 74.1095C53.424 74.1095 52.0061 75.0717 48.6132 75.0717C48.6132 74.6665 48.8664 74.2108 49.069 74.0082L51.2465 71.3243C51.7529 70.666 52.2086 70.1596 52.715 69.5519C54.0316 67.8808 54.0823 67.3744 53.2721 64.8425C52.715 63.222 52.4112 61.7534 51.7529 60.133C51.6009 59.7279 51.4997 59.3734 51.3984 58.9683C51.1452 58.0061 51.0945 57.8036 51.2465 56.9427C51.9048 56.9427 56.5636 58.0568 57.3232 58.2593C58.6398 58.5631 59.6526 58.867 60.9693 58.2593C63.2987 57.0946 65.2736 52.0306 67.5018 51.5242C67.9575 52.1826 68.0588 52.7396 67.9069 53.7524C67.8563 54.1069 67.8056 54.7145 67.8056 55.0184L67.6537 58.9683C67.6537 60.69 69.021 60.7913 70.844 61.2977C72.667 61.8547 73.4266 62.0066 75.3003 62.3611C76.7688 62.6143 76.7688 62.7662 77.5284 62.9688ZM49.2209 54.8665C48.917 55.0184 48.6638 55.069 48.36 55.2209C46.9421 56.0312 46.0812 59.5759 45.5748 61.0445C44.0556 65.5514 43.6505 73.2486 45.8787 77.6036C46.537 78.8696 46.5876 79.4267 47.4991 80.7939C47.8536 81.3003 48.1574 81.6548 48.4613 82.1612C49.069 83.1234 48.8664 82.7182 49.8286 83.174C49.8286 83.8829 49.5247 83.5791 50.892 84.5919C51.449 84.997 51.9048 85.3515 52.4112 85.7566L57.0194 89.2001C58.2854 90.1623 58.6905 90.5674 60.311 91.2257C63.2987 92.441 63.7545 91.2763 67.1979 91.2763C69.1729 91.2763 70.4389 91.4789 72.0593 90.8206C74.1862 89.9597 77.6297 87.8835 79.4527 86.3136L80.1617 85.706C80.6174 85.2502 81.0226 84.8451 81.4783 84.3893C81.9341 83.9336 82.2885 83.4778 82.7443 82.9714C83.8077 81.7054 85.1244 79.5786 85.884 78.11C86.1878 77.4517 86.441 77.0972 86.7448 76.3376C88.7704 71.3243 88.5172 65.9565 86.6942 60.7913C86.1372 59.2721 85.6814 58.5631 84.9724 57.1452C84.5673 56.335 82.9469 54.0056 82.2379 53.3473L80.9213 51.98C80.6681 51.7268 80.4655 51.5749 80.2123 51.3217L79.5034 50.714C78.1361 49.6506 78.0348 49.4987 76.465 48.4352C75.4016 47.7263 74.6926 47.4731 73.376 47.4731C73.0215 46.8148 72.7177 46.7135 71.8061 46.359C70.0844 45.65 68.7678 45.8526 67.046 45.802L64.4634 45.7007C62.7923 45.7007 60.5642 46.3084 59.2982 46.7641C58.2347 47.1692 55.1457 48.7897 54.2342 49.5493C53.9304 49.8025 53.6772 50.0051 53.3733 50.2583C53.0695 50.5114 52.8163 50.7646 52.5631 50.9672L49.1702 53.9043C48.5626 54.512 48.917 54.3601 49.069 54.9171L49.2209 54.8665Z" fill="#060737"/>
<path fill-rule="evenodd" clip-rule="evenodd" d="M37.1233 27.2431C36.7182 27.1925 37.022 27.1925 36.6169 27.0912L35.8067 27.6989C35.5535 27.9521 35.3003 28.1546 35.0977 28.4585C34.5407 29.1674 33.7811 29.6232 33.5279 29.8764C33.2747 30.1296 33.4266 31.75 33.3254 32.5603C33.2747 33.0667 33.2747 33.4211 33.2241 33.8769C33.1734 34.2314 33.0722 34.839 33.0722 35.2948C33.4773 35.2948 33.8318 34.991 34.1862 34.7884C35.4522 33.8769 36.6676 32.6615 37.8323 31.6488C38.0348 31.4968 38.0855 31.4462 38.288 31.2943L40.0604 29.6738C41.2251 28.661 40.263 29.37 41.529 28.6104C41.9341 28.3572 42.1873 28.2053 42.5418 27.9014L44.4154 26.3822C44.7193 26.0784 45.0231 25.8758 45.3269 25.6226C49.0743 22.5336 50.3909 22.8881 54.1889 20.9638L57.5817 19.2421C59.6073 18.2293 62.4431 16.9633 64.3674 15.8492C65.127 15.3934 66.0892 14.8364 67.0007 14.8364C67.5577 14.8364 68.3173 15.8492 69.1276 16.5075C69.4314 16.7607 70.4948 17.5203 70.8999 17.6722C71.2038 17.7735 71.1531 17.5709 71.5583 17.5203C72.6217 18.2293 72.5711 18.685 74.0902 19.4446C75.8626 20.3055 77.078 21.4196 78.9516 22.1285C79.9138 22.483 81.7368 23.9515 82.5471 24.5086L87.8642 28.2559C88.7251 28.8636 89.586 29.4206 90.4468 30.1296L92.9282 32.1552C93.1307 32.3071 93.1307 32.3071 93.3333 32.5096C93.4852 32.6615 93.5865 32.6615 93.7384 32.8135C94.0422 33.0667 94.2954 33.2692 94.5993 33.5224C94.9031 33.7756 95.1057 33.9275 95.4095 34.1807C96.2197 34.8897 96.9287 35.6999 97.6883 36.4595C97.9415 36.7127 98.296 36.9659 98.7011 36.9659C98.9543 36.9659 99.8152 36.814 99.9671 36.7634C99.9164 33.7756 96.7768 29.0661 94.9538 27.1418L93.6878 25.7746L93.6371 25.7239C92.7763 24.863 91.3583 23.6477 90.3456 22.9387L86.9021 20.5587C85.4335 19.6472 80.9266 17.0645 79.458 16.2543C78.8504 15.8998 78.192 15.596 77.5844 15.1909C76.8248 14.7351 76.4703 14.5326 75.255 14.5326C75.1537 14.0768 75.0524 14.3807 75.1537 13.8743L71.3557 12.1525C69.9884 11.4942 69.1782 10.7346 68.5199 9.41797C65.127 9.41797 61.6835 10.4308 58.7464 11.9499L54.8472 14.1781C54.1889 14.5832 53.5812 14.9377 52.9735 15.3428C51.0492 16.6088 49.4794 17.4697 47.3525 18.9382L43.8078 21.5715C43.1494 22.0779 38.288 25.7239 37.731 26.281C37.174 26.7874 37.4778 26.7367 37.1233 27.2937V27.2431Z" fill="#060737"/>
<path fill-rule="evenodd" clip-rule="evenodd" d="M12.9384 84.3767C12.9384 85.744 15.0652 88.833 15.9261 90.3015C16.787 91.7195 18.8126 94.3021 19.7747 95.4668C20.8382 96.7328 22.965 99.1635 23.7753 100.48C24.94 102.354 24.8387 104.987 25.7502 107.468C26.3579 109.089 26.8643 110 27.8771 111.317C28.3328 111.975 30.3078 114.102 31.0674 114.102C32.4853 114.102 36.9922 113.14 38.3595 112.634C38.8152 112.482 40.0812 111.975 40.537 111.975C40.537 109.798 41.2459 110.557 38.7139 107.418L27.6745 93.4918L24.4336 90.099C23.674 89.3394 21.5471 87.6683 20.7369 87.0606C19.319 85.9972 15.7742 83.769 14.0018 83.769C13.5967 83.769 12.9384 83.8197 12.9384 84.4274V84.3767Z" fill="#060737"/>
<path fill-rule="evenodd" clip-rule="evenodd" d="M88.0548 112.59C90.6374 112.64 92.2579 116.287 97.8789 113.704C98.4359 113.451 99.0436 113.4 99.55 113.096C101.373 112.134 100.36 112.387 100.715 112.033C100.816 111.932 101.424 112.235 103.044 110.058C105.627 106.614 105.019 101.905 107.349 98.7652L107.399 98.664C107.906 97.9044 107.956 98.5627 109.172 97.2967L112.007 94.309C113.83 92.5366 115.653 89.802 116.97 87.6245C117.325 87.0675 117.628 86.3079 117.882 85.6496C118.844 82.9657 119.097 81.5478 115.096 83.5734C113.577 84.333 112.868 85.2445 111.906 86.0041L109.07 88.8399L107.906 90.4097C107.45 90.8655 107.652 90.1059 106.791 91.1693L94.3341 104.943C93.4732 105.956 93.6252 105.905 92.5617 106.868C91.3464 107.931 87.9029 111.476 87.9029 112.539L88.0548 112.59Z" fill="#060737"/>
<path fill-rule="evenodd" clip-rule="evenodd" d="M15.932 52.4151C15.932 53.4786 17.1473 54.6939 17.755 55.5041C18.0082 55.808 18.312 56.0612 18.5652 56.3144C19.7806 55.5041 21.0466 53.6305 21.8061 52.2126C23.2747 49.5287 24.642 46.6422 25.7054 43.7051C26.7182 40.8187 27.2752 39.2995 28.1361 36.3117C28.7944 34.0329 29.7059 30.4375 29.7059 28.0068C28.7438 28.0068 27.5284 29.3741 26.9208 29.9818C25.5028 31.3997 23.1228 35.2483 22.11 37.0713C21.1985 38.7931 20.4389 39.9071 19.6793 41.8314L18.2614 45.1737C17.755 46.4396 15.8813 51.0478 15.8813 52.4658L15.932 52.4151Z" fill="#060737"/>
<path fill-rule="evenodd" clip-rule="evenodd" d="M112.25 80.2778C113.161 80.0752 115.643 79.0118 116.605 78.556C117.618 78.0496 117.719 77.0875 118.073 75.9734C118.225 75.467 118.377 74.9606 118.529 74.4036C118.833 73.3401 119.086 72.2261 119.289 71.1626C119.593 69.7447 120.251 65.5923 120.251 64.0225C120.251 61.845 120.605 58.3508 120.504 56.1733L120.403 53.8945C118.479 54.0465 117.719 56.2239 116.807 57.7431C115.44 60.1232 114.478 61.7437 113.617 64.3263C112.098 68.8332 112.25 74.3023 112.25 80.2271V80.2778Z" fill="#060737"/>
<path fill-rule="evenodd" clip-rule="evenodd" d="M19.3151 81.9247C19.8215 79.7978 19.0113 74.43 18.7074 72.2019C18.2517 69.1129 18.0997 67.6443 17.2389 64.606C16.0742 60.4029 15.0614 58.4786 13.0864 55.187C12.9345 54.9338 12.8332 54.7312 12.6813 54.478C12.2762 53.8197 11.9217 53.0095 10.8583 52.9082C10.7064 53.1614 10.5544 53.3133 10.5544 53.7184L11.2128 63.7957C11.3647 65.2136 12.1243 68.4039 12.5294 69.6699C12.9345 70.9359 13.289 72.05 13.7954 73.164C15.0614 76.0505 15.7703 77.4178 17.5427 80.1017C18.8593 82.0766 18.3023 81.3677 19.3657 81.8741L19.3151 81.9247Z" fill="#060737"/>
<path fill-rule="evenodd" clip-rule="evenodd" d="M108.91 49.579C108.91 50.0854 109.214 51.0475 109.417 51.2501C109.518 51.3514 109.771 51.4527 109.872 51.5033C109.872 52.0603 109.872 52.1616 110.024 52.5667C110.227 53.0225 111.138 54.8962 111.138 55.2506C112.607 55.2506 113.873 54.0353 114.633 53.6302C114.582 53.3263 114.481 52.9212 114.43 52.5667C114.329 52.1616 114.278 51.8071 114.227 51.402C114.177 50.8956 114.126 50.7943 113.974 50.3892C113.721 49.6803 113.924 50.0347 113.367 49.6296C113.367 48.1611 113.822 48.7181 112.759 46.1861C112.05 44.515 111.797 43.249 111.189 41.6792C110.43 39.8055 110.987 40.0587 109.974 39.8055C110.024 38.9447 110.43 39.7549 109.619 37.8306C108.91 36.1089 107.087 33.2224 105.771 31.9564C105.264 31.45 104.302 30.4372 103.492 30.3359C103.492 34.7416 105.163 41.2741 106.834 45.4265C107.138 46.1355 107.442 46.8445 107.746 47.604C107.898 47.9585 107.999 48.313 108.201 48.7181C108.556 49.579 108.657 49.4271 108.961 49.579H108.91Z" fill="#060737"/>
<path fill-rule="evenodd" clip-rule="evenodd" d="M34.8011 60.377L37.1812 61.3897C37.8902 61.6429 37.8395 61.491 38.0421 61.7442C36.7761 61.7442 35.7633 61.8961 34.4973 61.8961C34.2441 63.0609 33.0288 64.1749 35.7127 64.8839C36.4216 65.0864 37.2318 65.3396 37.9408 65.5928C38.5991 65.7954 41.992 67.0614 42.3971 67.0614C42.549 66.5043 42.9541 66.1499 42.9541 65.3396C42.2958 64.9852 41.7388 64.8839 40.9792 64.732C38.4978 64.1243 39.8651 63.8711 37.9408 64.3268C37.9408 63.8711 37.8902 63.7698 37.8395 63.4153C39.1561 63.4153 39.7132 63.4153 41.0298 63.6179C41.3843 63.6685 41.8401 63.6179 42.2452 63.6685C43.4605 63.8204 43.3086 63.9724 43.3086 62.5038C43.3086 62.2 42.5996 62.1493 41.992 61.9468C41.4349 61.7949 41.0805 61.6429 40.6247 61.491C39.8145 61.1872 38.751 60.6808 38.2953 60.0225C40.4221 60.5289 41.5362 60.9846 43.9669 60.9846C43.9669 60.1238 44.1695 60.0225 44.2708 59.6174C42.3971 58.7058 39.46 58.8071 37.8902 58.5033C36.1178 58.1488 35.4088 57.5918 35.0543 58.959C34.9531 59.3135 34.8518 59.9212 34.8518 60.377H34.8011Z" fill="#060737"/>
<path fill-rule="evenodd" clip-rule="evenodd" d="M45.6865 91.5642C46.0916 91.0072 46.6486 90.3995 47.1044 89.9438L48.0159 88.8297C48.978 87.8675 48.6742 88.1714 49.2819 86.956L47.5601 86.2471C47.3576 86.6522 47.4588 86.6522 47.1044 87.2092C46.446 88.3233 45.7877 88.779 44.9775 89.6906L43.5596 91.3617C43.3064 91.6655 43.1545 91.9187 42.9519 92.2732C42.8 92.5264 42.5468 93.0834 42.4962 93.3873C42.5468 93.4885 43.6102 94.3494 43.7621 94.4C44.5217 94.6532 47.1044 92.2732 47.864 91.7668C47.712 92.5264 46.446 93.9949 45.9396 94.7545L45.2307 95.7167C45.5852 96.2737 46.0916 97.0333 46.598 97.4384L50.5985 94.0456C50.801 93.843 50.8517 93.843 51.0542 93.6911L53.2824 91.7668C53.485 91.6149 53.5862 91.5136 53.6875 91.2604C52.9786 91.1085 51.8645 90.1463 50.5985 91.8681C50.244 92.3745 49.9908 92.6783 49.5857 93.0834C49.3325 93.3366 49.2819 93.3872 48.978 93.5898C48.6742 93.7924 48.5223 93.843 48.1678 93.9949C48.3197 93.286 50.1427 91.0072 50.6998 90.3489C51.0542 89.9438 51.4087 89.488 50.9023 88.9816C50.0921 88.1207 49.3831 89.0322 48.3703 89.8931C47.7627 90.3995 46.7499 91.4629 45.7877 91.5136L45.6865 91.5642Z" fill="#060737"/>
<path fill-rule="evenodd" clip-rule="evenodd" d="M46.2909 112.526C46.2909 112.779 46.9493 114.703 47.0505 115.058C47.2025 115.514 47.3037 115.817 47.3544 116.374C47.405 116.628 47.405 116.729 47.3544 117.033C47.2531 117.438 47.1518 117.438 46.9493 117.539C46.8986 117.134 46.4429 116.071 46.2403 115.716C45.7339 114.805 44.8224 113.336 43.8096 112.982C41.0751 112.019 42.9487 116.577 43.3032 118.096C43.4551 118.805 43.8602 120.527 43.8602 121.337C43.9109 122.603 43.4045 122.401 45.9365 122.401C45.9365 121.438 45.6833 120.375 45.4807 119.514C45.3794 119.008 45.2275 118.653 45.0756 118.197C44.9237 117.792 44.7211 117.337 44.6198 116.931C44.873 117.083 45.025 117.083 45.3288 117.286C46.0377 117.742 46.3922 118.501 46.6961 119.312C47.405 121.084 48.0127 121.742 49.9876 121.287C49.9876 119.008 48.2659 114.248 48.2659 111.817C47.405 111.817 46.7973 112.171 46.2403 112.475L46.2909 112.526Z" fill="#060737"/>
<path fill-rule="evenodd" clip-rule="evenodd" d="M62.0143 99.1684C62.0143 99.7254 62.1156 100.384 62.2675 100.789C63.179 103.22 67.4327 104.536 68.8506 100.789C69.0532 100.232 69.0532 99.928 69.1545 99.219C69.6609 94.864 63.6348 94.155 62.2675 97.5479C62.1156 97.953 62.0143 98.662 62.0143 99.219V99.1684Z" fill="#060737"/>
<path fill-rule="evenodd" clip-rule="evenodd" d="M70.5506 114.529C70.5506 114.275 70.4493 111.946 70.9557 111.946C71.8166 111.946 72.1711 112.756 72.1711 113.415C72.1711 113.972 71.1583 114.478 70.5506 114.529ZM70.1455 120.099C70.1961 119.846 70.2974 119.593 70.2974 119.289L70.1961 117.263H70.8544L71.2089 119.238C71.766 120.859 73.5383 120.454 73.4877 119.643C73.4877 119.39 73.1332 118.58 73.0319 118.327C72.7787 117.618 72.2217 116.453 72.2217 115.592C73.0826 115.541 73.9435 114.579 73.9435 113.465C73.9435 112.149 73.2851 110.933 72.3736 110.629C71.9179 110.478 71.1583 110.427 70.6012 110.376C70.0442 110.326 69.3353 110.275 68.8289 110.123C68.8289 113.617 68.2212 115.845 68.1705 119.086C68.1705 119.998 67.7654 119.896 68.7276 119.998C68.9301 119.998 69.1833 120.048 69.4365 120.099C69.8923 120.15 69.6897 120.099 70.0948 120.048L70.1455 120.099Z" fill="#060737"/>
<path fill-rule="evenodd" clip-rule="evenodd" d="M54.6764 113.88C54.6764 116.007 54.8789 119.349 57.0058 120.21C58.8795 120.97 61.2595 119.45 61.2595 116.564C61.2595 114.133 61.5634 114.538 59.082 114.538C58.2718 114.538 57.9679 114.741 57.3603 114.842C57.4616 115.197 57.5122 115.551 57.6135 115.855C57.8667 116.412 58.5756 116.311 59.3859 116.311C59.3859 120.311 56.3981 118.286 56.3981 114.589C56.3981 113.728 57.0564 112.563 57.6135 112.31C58.3731 111.956 59.2339 113.374 59.791 113.526C60.2467 112.867 59.8923 113.07 60.7531 112.867C60.7531 112.209 60.1961 111.449 59.8416 111.095C57.9173 109.171 54.6764 110.842 54.6764 113.829V113.88Z" fill="#060737"/>
<path fill-rule="evenodd" clip-rule="evenodd" d="M70.3025 43.3067C70.3025 44.2182 70.6569 44.2182 71.9229 44.2182L72.5306 41.99C72.7332 41.1798 72.9357 40.6228 72.9357 39.5593C73.9485 40.2176 73.9485 43.1041 73.8979 44.5727C73.8979 45.1297 73.7966 45.3322 74.3536 45.2816C74.5055 45.2816 75.3664 45.1803 75.4677 45.1297C76.0247 44.9271 76.0247 43.6105 76.3792 42.3951C76.7337 41.2811 77.1388 39.6606 77.4933 38.6985C77.6958 38.1414 77.9997 37.4831 77.9997 36.7742C77.5946 36.5716 76.7843 36.4703 76.2273 36.4703C76.2273 37.3818 75.9235 38.1414 75.6703 38.8504C75.4171 39.5593 75.3664 40.5721 74.6068 40.7747V35.7614C73.9991 35.7107 73.5434 35.4575 72.7332 35.4575C72.4293 35.4575 72.2774 36.6222 72.0242 37.3312L70.8089 41.2811C70.6569 41.7368 70.3025 42.8509 70.3025 43.3573V43.3067Z" fill="#060737"/>
<path fill-rule="evenodd" clip-rule="evenodd" d="M59.1355 37.6857V37.1286C60.0976 37.1286 60.6547 37.5844 61.0091 38.1921C61.5155 39.0023 61.6675 39.9644 61.6675 41.0279C61.6675 41.8888 60.604 42.5977 60.1483 42.7496C60.0976 41.5343 59.1861 39.2555 59.1861 37.7363L59.1355 37.6857ZM57.0086 35.6601C56.9073 36.8248 56.6541 35.7107 57.0593 37.6857L57.7176 41.1292C58.072 42.8509 58.3252 44.6233 59.9963 44.6233C60.7053 44.6233 62.0726 43.6611 62.427 43.256C63.6424 41.99 63.5411 40.2176 63.1866 38.6478C62.7815 37.0273 61.8194 35.4575 59.8444 35.4575C58.781 35.4575 58.1227 35.6094 57.0086 35.6094V35.6601Z" fill="#060737"/>
<path fill-rule="evenodd" clip-rule="evenodd" d="M93.7232 65.6812C90.2291 65.6812 91.4444 63.453 93.6726 62.9466C94.027 62.8453 94.9892 62.6934 95.3943 62.7947C95.5969 62.8453 96.002 62.8453 96.2552 62.896C96.559 62.9466 96.8122 62.9973 97.1161 63.0479C97.1161 63.9594 96.7616 64.719 96.2045 65.1241C95.6475 65.5292 94.6854 65.7318 93.7232 65.7318V65.6812ZM89.672 64.3645C89.672 69.1247 98.8884 68.0106 98.8884 63.6556C98.8884 62.2883 97.7237 60.9717 96.3058 60.9717C93.9258 60.9717 89.672 61.2755 89.672 64.3645Z" fill="#060737"/>
<path fill-rule="evenodd" clip-rule="evenodd" d="M81.3492 118.501C80.8934 118.501 80.9947 118.552 80.6908 118.349C80.0832 117.792 80.387 117.64 80.7921 116.425C80.9947 115.767 81.0453 115.666 81.5517 115.362L81.5011 117.843C81.4504 118.147 81.3491 118.248 81.2985 118.501H81.3492ZM77.3993 120.527C77.3993 121.388 78.1082 121.337 78.5133 121.337C79.5261 121.337 78.8678 120.021 80.2351 120.021H80.944C82.1594 120.021 81.1466 122.046 81.8555 122.046C83.9824 122.046 83.3241 122.249 83.3241 120.578V113.437C83.3241 113.437 83.5267 112.627 82.7164 112.171C82.3113 111.969 81.6024 111.817 80.9947 111.817C80.7921 114.096 77.4499 118.906 77.4499 120.476L77.3993 120.527Z" fill="#060737"/>
<path fill-rule="evenodd" clip-rule="evenodd" d="M37.1138 85.2746C38.076 86.6925 38.7343 86.3886 40.0003 85.4771C41.4688 84.363 42.7854 83.9073 44.254 82.9451C44.5578 83.4009 44.9629 83.7554 45.2161 84.1605C45.0136 85.0214 42.279 86.338 41.4182 86.8444C41.165 86.9963 40.8611 87.1482 40.6079 87.3001C38.5317 88.5155 39.3926 88.7181 39.4939 89.6296C40.6079 89.6296 42.8361 88.3636 43.7476 87.7559C46.0264 86.2873 48.052 85.1733 46.0264 82.3375C44.8617 80.717 43.4438 81.2234 42.0258 82.0336C40.6586 82.8439 38.0253 84.2111 37.1644 85.2239L37.1138 85.2746Z" fill="#060737"/>
<path fill-rule="evenodd" clip-rule="evenodd" d="M51.2816 38.0328C51.3322 39.9571 54.6744 43.5019 54.6744 44.9198C54.6744 45.1224 54.0161 45.7807 53.9655 45.8313C52.1425 45.4262 51.2309 41.8308 50.0156 40.4635C49.7624 40.2103 49.5598 40.0584 49.3573 39.7546C48.9015 39.8559 48.2432 40.1091 47.99 40.4635L49.6105 43.2994C50.7752 45.2237 51.8386 48.0595 54.2187 47.3505C56.5987 46.6922 56.9026 44.5147 55.7379 42.641C54.8264 41.1219 54.7757 40.9699 53.8136 39.5014C53.1046 38.438 53.3072 38.438 53.0033 37.729C52.2437 37.7796 51.6361 38.0328 51.2816 38.0328Z" fill="#060737"/>
<path fill-rule="evenodd" clip-rule="evenodd" d="M62.7414 119.998H66.7926V117.871H64.767V115.541H66.7926C66.7926 113.718 66.7926 113.82 64.767 113.82C64.767 113.415 64.8176 112.149 65.1721 111.946C65.3747 111.845 65.8811 111.845 66.1342 111.794C66.5394 111.744 66.7419 111.642 67.0964 111.541C67.0458 111.186 66.9445 111.186 66.8938 110.883C66.8432 110.579 66.8432 110.376 66.7926 110.123H62.7414V119.998Z" fill="#060737"/>
<path fill-rule="evenodd" clip-rule="evenodd" d="M65.1253 43.4861C65.8849 43.4861 66.3913 43.5874 66.999 43.638L68.8726 43.7899C68.9739 43.5874 69.1258 42.7265 69.1258 42.4227C69.1258 41.2073 67.7586 42.1188 67.2015 41.3592C66.1887 40.0932 67.6573 39.7388 68.9233 39.7388V37.9664L67.3028 38.0677C67.2015 37.6625 67.2015 38.017 66.999 37.6625C67.0496 37.4093 67.1003 37.4093 67.2015 37.2068C67.5054 36.2446 66.6445 36.3966 68.4169 36.3966C69.379 36.3966 69.2778 35.8395 69.379 34.6748H65.2772V43.4861H65.1253Z" fill="#060737"/>
<path fill-rule="evenodd" clip-rule="evenodd" d="M88.0095 81.8663C88.3133 81.9676 88.2627 81.9676 88.3133 82.2715H89.7819C89.7819 81.7651 89.9338 80.9042 90.0857 80.5497C90.2376 80.651 90.4402 80.651 90.5921 80.7016C91.0479 80.8536 91.5543 81.1574 92.0607 81.208C92.01 82.0183 90.2883 83.5375 93.1747 83.5375C93.1747 82.9298 93.4279 82.9298 93.4279 81.917C95.1497 81.9676 94.9471 82.7272 94.9471 83.5375C94.9471 83.9426 94.7446 83.8919 94.6939 84.3477C95.7573 84.9047 96.0612 85.6137 97.0233 82.7779L97.4791 81.5119C96.5676 80.9042 94.6433 80.2965 93.4279 79.7901C92.7696 79.5369 92.1113 79.2331 91.3517 79.0305L89.63 78.5241C89.3261 78.4735 89.2755 78.5241 89.0223 78.4229C88.5665 79.3344 87.9588 80.7523 87.9588 81.8157L88.0095 81.8663Z" fill="#060737"/>
<path fill-rule="evenodd" clip-rule="evenodd" d="M92.0918 74.2082C92.0918 73.7018 91.9398 73.2967 91.9398 72.7397C91.9398 72.4359 92.4462 72.0814 92.8514 71.4737C93.1046 71.0686 92.9526 71.1192 93.611 71.1192C94.5225 71.1192 95.9404 71.1699 96.548 71.4231C97.4596 71.8282 97.4089 73.0942 97.4089 74.1576H99.1307C99.1307 72.8916 99.3839 71.1699 98.2698 70.2584C95.6872 68.2328 90.9777 68.7392 90.1675 71.9801C89.813 73.4486 90.0155 74.1576 92.0918 74.1576V74.2082Z" fill="#060737"/>
<path fill-rule="evenodd" clip-rule="evenodd" d="M39.2925 50.2479C39.2925 51.1594 39.5457 51.6152 40.1534 52.071C41.1156 52.7799 41.3181 52.9318 42.3815 52.9318C42.7867 52.9318 43.2424 52.8305 43.5463 52.7293C44.6097 52.2735 44.0527 51.7165 45.8757 52.9318C45.7744 54.0459 45.2174 53.5395 44.9135 54.9574C45.3186 55.16 45.7744 55.6157 45.977 55.6157C46.2302 55.6157 47.0404 54.7549 47.1923 54.6029C47.6987 53.894 47.6481 52.9825 47.6481 52.071C47.6481 51.8178 47.5974 51.919 47.4962 51.8178L47.243 51.6152C46.3314 50.9062 46.1795 50.6024 45.0148 50.6024C43.7488 50.6024 41.3181 51.4126 41.3181 50.1973C41.3181 49.6909 42.2296 48.7287 41.6726 48.3236C40.913 47.7666 39.3938 49.1339 39.3938 50.2986L39.2925 50.2479Z" fill="#060737"/>
<path fill-rule="evenodd" clip-rule="evenodd" d="M89.4408 57.9212V56.9591C86.5037 56.9591 87.9723 60.6558 90.403 60.6558C92.5805 60.6558 93.1882 57.8706 93.5426 57.0097C93.7452 56.5033 94.4035 56.3008 95.0618 56.3008C95.1125 56.6553 95.3657 57.2629 95.3657 58.0225C97.3913 57.8706 97.1381 56.8072 96.3278 55.4905C95.7201 54.4778 95.8214 54.6297 95.0112 54.6297C93.3907 54.6297 92.1754 55.288 91.6183 56.4527C91.3651 56.9591 91.2132 58.0225 90.9094 58.377C90.6562 58.6808 90.3524 58.7315 89.9979 58.6808C89.5928 58.6302 89.2889 58.4783 89.2889 58.0225L89.4408 57.9212Z" fill="#060737"/>
<path fill-rule="evenodd" clip-rule="evenodd" d="M82.7257 88.4022C82.7257 89.263 83.384 89.9214 83.8904 90.3771C85.5109 91.7444 85.6122 92.4027 86.2705 94.327C86.4224 94.7321 86.5237 95.036 86.625 95.4917C86.7262 95.8462 86.8782 96.5045 86.9794 96.7577C87.8403 96.2007 88.7518 95.6436 88.1441 94.6308C87.8403 94.1245 87.4352 93.3142 87.3846 92.7572L88.5999 93.3142C88.9544 93.5168 89.4101 93.8206 89.9672 93.8206C90.5242 93.8206 91.0306 92.9091 91.0306 92.3521C90.6761 92.2508 90.3217 92.0482 89.9165 91.8963C89.5114 91.7444 89.2076 91.5925 88.8531 91.4405C88.4986 91.2886 88.1441 91.1367 87.7897 90.9848C87.0301 90.681 87.0807 90.8329 86.5237 90.3265C86.3718 90.2252 86.3718 90.2252 86.3211 90.1746C85.6628 89.5669 84.8019 87.9971 83.3334 87.6426C83.2321 87.7945 82.7763 88.2503 82.7763 88.4528L82.7257 88.4022Z" fill="#060737"/>
<path fill-rule="evenodd" clip-rule="evenodd" d="M37.6291 79.8564C37.2239 79.8564 36.7175 79.8564 36.6163 79.35C36.5656 79.0462 36.515 78.4892 36.515 78.1347C36.0086 78.236 35.0464 78.4385 35.0464 79.35C35.0464 80.2109 35.7554 81.1224 36.3124 81.4769C37.1733 82.0846 38.0342 82.0339 38.8444 81.4263C41.1232 79.7045 39.9078 77.8815 42.2879 77.8815C42.2879 78.1347 42.4905 79.8564 42.693 79.8564H42.7943C43.25 79.8058 44.4148 79.4007 44.4148 78.6411C44.4148 77.9321 43.6045 77.0206 43.25 76.5648C42.8449 76.0078 42.8449 76.1597 42.136 76.2104C40.87 76.3623 39.6546 76.5142 38.9457 77.8815C38.5912 78.5398 38.4899 79.8564 37.6797 79.8564H37.6291Z" fill="#060737"/>
<path fill-rule="evenodd" clip-rule="evenodd" d="M83.3268 48.5779C82.9723 48.5779 82.7191 48.1728 82.4153 47.8689C81.9595 47.4132 82.3647 47.6157 81.6051 47.1093C81.1493 48.0209 80.491 49.0843 81.8076 49.9958C83.0736 50.8567 83.9851 50.6035 84.9979 49.5907C86.0107 48.5779 85.9601 47.9702 85.7575 46.451C85.4537 44.5267 85.6562 44.5774 87.3273 44.5774C87.378 44.9825 87.7324 45.4382 88.1376 45.4889C88.2895 44.9825 88.9478 44.5267 88.644 44.0203C88.644 43.9697 87.7325 42.8556 87.5805 42.8556C84.7447 42.8556 85.8588 42.7037 84.1877 44.071C83.8838 44.3242 83.9345 44.4761 83.9851 44.9825C83.9851 45.5901 84.0358 48.6792 83.3268 48.6792V48.5779Z" fill="#060737"/>
<path fill-rule="evenodd" clip-rule="evenodd" d="M85.6307 84.9362C86.3397 85.7464 88.0108 86.6073 89.0236 87.215L90.796 88.2784C92.4671 89.4938 90.796 90.6585 92.1126 90.6585C93.0748 90.6585 93.4292 89.7976 93.7331 89.1393C94.0876 88.4303 94.5939 87.8227 94.7965 86.9618C94.5939 86.7086 94.1382 86.3035 93.8344 86.3541C92.619 86.7086 93.328 87.8733 89.7325 85.4426C87.6057 84.0247 86.6435 83.0119 85.6814 84.8856L85.6307 84.9362Z" fill="#060737"/>
<path fill-rule="evenodd" clip-rule="evenodd" d="M79.9339 39.8278C80.6935 39.8785 80.6429 39.9798 80.9973 40.4862L78.2122 45.2463C77.9083 45.8033 77.5538 46.3097 77.25 46.8668C78.0096 47.0187 77.959 46.8161 78.2628 47.0693C78.516 47.2212 78.6173 47.5251 79.0224 47.5251L81.605 42.8662C81.7569 42.5624 81.8582 42.3598 82.0101 42.056C82.162 41.7522 82.2127 41.499 82.3646 41.1951C82.5672 41.2458 84.3902 42.1066 84.3902 40.8913C84.3902 39.8278 84.5927 40.3342 82.5672 39.2708C82.1114 39.0176 81.0986 38.258 80.6935 38.1567C80.0858 38.6125 80.0352 39.1189 79.9845 39.8785L79.9339 39.8278Z" fill="#060737"/>
<path fill-rule="evenodd" clip-rule="evenodd" d="M33.9608 74.2116C33.9608 74.5154 33.9608 75.7308 34.214 75.7814L41.0503 74.8699C43.3798 74.5154 43.0253 74.6167 42.6708 72.2873C42.6202 71.8315 42.5189 71.2238 42.5189 70.7681C41.9619 70.7681 41.5567 70.7681 41.1516 70.92C39.9869 71.4264 42.2151 72.6924 39.1767 73.2494C37.9613 73.452 36.4421 73.5026 34.9736 73.6545C34.6698 73.7052 33.9102 73.8064 33.9102 74.2116H33.9608Z" fill="#060737"/>
<path fill-rule="evenodd" clip-rule="evenodd" d="M42.5517 45.8024C42.653 45.9544 43.362 46.4608 43.6152 46.4608C43.7671 46.4608 44.2735 46.0556 44.9318 45.9037C45.0331 45.9544 45.3875 46.4101 45.5395 46.5114C46.2484 47.3216 49.0842 50.4613 49.7426 50.917C50.1983 50.6132 50.6034 50.1574 51.0592 49.8536L49.8438 48.4863C49.6413 48.2331 49.4387 48.0812 49.1855 47.828L47.3119 45.8024C47.0587 45.5492 46.0965 44.6377 46.0965 44.3339C46.0965 44.0807 46.1471 44.182 46.2484 44.0807L46.3497 43.9794L46.4003 43.9288C46.6029 43.6756 46.7042 43.2705 46.7042 42.916C46.7042 42.6628 46.5523 42.7134 46.3497 42.6121C45.6914 42.4096 45.5901 42.4096 44.8305 43.1185L43.9696 43.8781C43.4632 44.3845 42.8556 44.9416 42.653 45.7012L42.5517 45.8024Z" fill="#060737"/>
<path fill-rule="evenodd" clip-rule="evenodd" d="M50.2622 111.987C50.2622 112.443 50.3128 112.595 50.3635 113C50.4141 113.405 50.4647 113.658 50.5154 114.063C50.6167 114.721 50.7179 115.43 50.8192 116.19C50.9205 116.848 51.0218 117.608 51.1231 118.317C51.3763 119.735 51.5282 119.076 51.5282 121.051C52.7435 121.051 52.9967 120.798 53.655 120.748L52.2878 111.278C51.3763 111.278 50.2622 111.075 50.2622 111.987Z" fill="#060737"/>
<path fill-rule="evenodd" clip-rule="evenodd" d="M74.2458 120.672H76.2714L77.6387 111.203H75.5118C75.5118 112.317 74.1952 119.356 74.1952 120.672H74.2458Z" fill="#060737"/>
<path fill-rule="evenodd" clip-rule="evenodd" d="M89.3562 76.8306C90.4196 77.3877 94.3695 78.2485 95.7367 78.5524C96.4963 78.7043 97.2559 78.8562 98.1674 78.8562C98.1674 77.6409 98.2181 77.0838 96.9521 76.7294L92.3439 75.6659C91.1285 75.3621 91.1792 75.1089 89.66 75.1089C89.66 75.7166 89.4574 76.2736 89.3562 76.8306Z" fill="#060737"/>
<path fill-rule="evenodd" clip-rule="evenodd" d="M33.958 69.8412H42.5161V68.0688H34.5657C33.1984 68.0688 33.5529 68.6765 33.6542 69.3348C33.7048 69.6387 33.6035 69.8412 33.958 69.8412Z" fill="#060737"/>
<path fill-rule="evenodd" clip-rule="evenodd" d="M88.0703 48.4466C88.0703 48.7505 88.2222 48.8517 88.3741 49.0543C88.8299 49.662 88.7792 49.662 90.6023 49.0543C90.9061 48.953 91.2099 48.8517 91.4631 48.8011C91.7163 48.7505 92.2734 48.5986 92.4253 48.5479C92.1721 47.3832 91.8176 46.9274 90.5516 47.3832C89.9439 47.5858 88.4248 48.396 88.0703 48.4466Z" fill="#060737"/>
</g>
<defs>
<clipPath id="clip0_1_1091">
<rect width="130.861" height="129.739" fill="white"/>
</clipPath>
</defs>
</svg>
