<svg width="44" height="65" viewBox="0 0 44 65" fill="none" xmlns="http://www.w3.org/2000/svg">
<path d="M9.99999 60.4512C7.15241 60.4512 5.47808 58.7891 5.47808 56.2348C5.47808 53.6805 7.15241 52.0184 9.99999 52.0184C12.7498 52.0184 14.3997 53.3261 14.3997 55.5137V55.7215H11.8332V55.5137C11.8332 54.5849 11.3932 54.2183 10.0367 54.2183C8.37455 54.2183 7.92236 54.6093 7.92236 56.2348C7.92236 57.8602 8.37455 58.2513 10.0367 58.2513C11.3932 58.2513 11.8332 57.8847 11.8332 56.9558V56.7481H14.3997V56.9558C14.3997 59.1435 12.7498 60.4512 9.99999 60.4512ZM19.417 60.4512C16.5694 60.4512 14.8828 58.7891 14.8828 56.2348C14.8828 53.6805 16.5694 52.0184 19.417 52.0184C22.3379 52.0184 24 53.6805 24 56.2348C24 58.7891 22.3379 60.4512 19.417 60.4512ZM19.417 58.2513C21.0791 58.2513 21.5557 57.8602 21.5557 56.2348C21.5557 54.6093 21.0791 54.2183 19.417 54.2183C17.7548 54.2183 17.3271 54.6093 17.3271 56.2348C17.3271 57.8602 17.7548 58.2513 19.417 58.2513ZM26.9103 60.3289H24.6127V52.1406H26.9103V55.1837H30.7234V52.1406H33.021V60.3289H30.7234V57.2492H26.9103V60.3289ZM36.0525 60.3289H33.7548V52.1406H36.0525V60.3289Z" fill="white"/>
<g clip-path="url(#clip0_1_1843)">
<path fill-rule="evenodd" clip-rule="evenodd" d="M39.5209 16.0056C39.8403 15.9384 40.1933 15.9216 40.5463 15.8712C40.6808 15.8544 40.7481 15.8207 40.8657 15.7871C40.933 16.0561 40.9834 16.0561 41.0843 16.2578C41.1683 16.4259 41.2188 16.5772 41.286 16.7621C41.4037 17.1656 41.4541 17.5018 41.5045 17.9388C41.5718 18.4095 41.5045 18.813 41.5045 19.2668C41.5045 19.7039 41.4709 20.1578 41.4205 20.5781C41.4037 20.763 41.37 20.9983 41.3364 21.2C41.3196 21.4018 41.3028 21.6371 41.286 21.8388C41.2692 21.9061 41.1347 22.1414 41.0843 22.3431C40.8994 23.1164 41.0002 23.1669 40.6976 24.0578C40.5632 24.4444 40.4959 24.7806 40.4959 25.2681C40.5968 25.3018 40.8994 25.4867 41.0002 25.5371L41.5045 25.8397C41.5045 26.0414 41.4541 26.3944 41.4541 26.6802C41.4541 26.8315 41.4877 26.8315 41.4877 26.9828C41.286 27.0837 41.37 27.0332 41.2524 27.3358C41.2188 27.4031 41.2188 27.4367 41.1851 27.5039C41.1011 27.7225 41.0338 27.9242 40.933 28.1427C40.7481 28.563 40.5632 28.9328 40.3446 29.3194C39.8739 30.1936 39.2519 31.0173 38.5963 31.7569C38.5459 31.8074 38.5291 31.8242 38.4787 31.8914L36.6295 34.0263C36.3942 34.3289 36.2765 34.497 36.1252 34.8668C35.5537 36.3966 35.4696 38.044 33.8894 38.8341C33.486 39.0358 33.0321 39.1871 32.6119 39.3216L31.9058 39.5065C31.5192 39.5906 31.6032 39.6074 31.3847 39.8763C31.0821 40.263 30.3929 40.7168 30.2416 41.1371C30.208 41.2212 30.2248 41.238 30.1239 41.238C29.855 41.2548 29.7709 41.3556 29.5188 41.4901C29.1657 41.6582 28.5101 41.944 28.0731 41.944C27.7201 41.944 27.014 41.5574 26.661 41.4229C26.4257 41.322 26.2071 41.238 25.9718 41.1539C25.7364 41.0699 25.4843 40.969 25.2489 40.8849C24.5429 40.6496 23.7024 40.3638 22.9795 40.2462C22.492 40.1789 21.2481 40.1957 20.7606 40.1957C19.567 40.1957 17.5162 40.3134 16.4235 40.7505C16.2722 40.8177 16.3058 40.8009 16.1209 40.8177C15.9024 40.8513 15.8015 40.969 15.583 41.0194C15.5998 41.1371 15.5998 41.1371 15.5325 41.238C14.5912 41.0194 14.3558 41.9608 12.5235 40.7337C12.12 40.4647 11.8007 40.1285 11.414 39.8595C11.33 39.8091 11.33 39.7923 11.1955 39.7923C11.1787 39.7418 11.1619 39.6746 11.145 39.6242C11.1114 39.5401 11.0946 39.5233 11.0778 39.4393C10.5735 39.4393 10.792 39.4225 10.4222 39.288C10.2205 39.2039 10.0356 39.1367 9.85065 39.0694C9.46402 38.9181 9.09419 38.7668 8.69074 38.6156C8.50583 38.5483 8.43858 38.3298 8.32091 38.1785C7.9847 37.7414 7.90065 38.3466 7.42996 36.6487L6.94246 34.7156C6.87522 34.4634 6.8416 34.3793 6.69031 34.1608L5.66488 32.7656C5.59764 32.6815 5.56402 32.6143 5.49677 32.5302C5.36229 32.3621 5.41272 32.3789 5.24462 32.3957C5.12695 31.9082 3.71488 30.0087 3.34505 29.3867C2.87436 28.5966 2.47091 27.7561 2.18514 26.8651C1.83212 25.8229 2.00022 25.8901 2.00022 24.9992C2.23557 24.9824 2.9416 24.5285 3.22738 24.4612C3.22738 24.1923 3.16014 23.9569 3.09289 23.7384L2.68945 22.4272C2.31962 21.3513 2.05065 19.872 2.05065 18.6112C2.05065 16.863 2.67264 15.7031 2.67264 15.1819H3.69807C3.69807 15.4677 3.84936 15.619 4.13514 15.619C4.37048 15.619 5.211 13.4673 5.32867 13.1647C5.61445 12.5427 5.88341 11.9207 6.21962 11.3156C6.33729 11.1138 6.43815 10.9121 6.55583 10.7104L7.59807 9.01254L8.85884 7.51642C9.09419 7.29789 9.2791 7.02892 9.48082 6.77677C9.5985 6.64228 9.63212 6.69271 9.63212 6.44056C9.80022 6.40694 10.086 6.1884 10.2205 6.08754C11.3804 5.33108 11.1787 6.25564 11.3132 7.06254C11.3468 7.21383 11.3804 7.41556 11.3972 7.56685C11.4981 7.53323 11.9688 7.14659 12.0696 7.07935C12.5067 6.74314 12.9774 6.44056 13.3976 6.07073L13.9019 5.7009C14.0364 5.60004 14.0196 5.41513 14.1373 5.3647C14.3894 5.26383 14.3726 5.38151 14.7257 5.06211C14.8265 4.96125 14.9442 4.89401 15.0619 4.80996C15.1291 4.77633 15.1963 4.74271 15.2636 4.70909C15.3476 4.67547 15.4149 4.67547 15.4821 4.62504C15.6502 4.50737 15.7007 4.50737 15.8856 4.44013C16.6084 4.17116 16.995 3.9022 17.7347 3.63323C18.155 3.48194 18.5416 3.28021 18.9619 3.0953C19.1636 3.01125 19.3989 2.94401 19.6007 2.85996C20.2058 2.57418 20.7942 2.2884 21.3657 1.96901C21.6179 1.83452 21.8364 1.71685 22.1558 1.71685C22.6265 1.71685 23.2989 2.08668 23.6351 2.25478C24.3244 2.59099 24.9632 2.97763 25.6356 3.31383L27.636 4.37289L27.8545 4.33927C28.0226 4.64185 28.1571 4.65866 28.4597 4.80996C28.5438 4.84358 28.5606 4.86039 28.6278 4.91082L29.1153 5.23021C29.2162 5.29746 29.3338 5.3647 29.4347 5.43194C30.2752 5.96987 30.8132 6.30608 31.6705 6.94487C31.9394 7.14659 32.7295 7.73495 32.9985 7.76858C33.0153 7.66771 33.0994 7.53323 33.133 7.41556C33.3347 6.79358 33.57 6.12116 34.2088 6.89444C34.3433 7.06254 34.4274 7.26427 34.6459 7.3147C34.6459 7.53323 34.5787 7.44918 34.6795 7.63409C34.8308 7.91987 34.9989 8.17202 35.167 8.42418C35.7218 9.28151 36.2261 10.1556 36.7976 11.013C36.9153 11.1979 36.9657 11.3996 37.0666 11.6013C37.2515 11.988 37.4532 12.341 37.6718 12.694L39.4873 15.9552L39.5209 16.0056ZM15.4149 3.01125C15.4149 3.11211 15.3981 3.16254 15.3644 3.22978C14.7593 3.22978 14.2382 3.59961 13.7843 3.9022C13.5657 4.05349 13.3472 4.20478 13.1623 4.40651C12.8261 4.75952 12.9269 4.70909 12.4394 4.80996L11.4981 3.88539C11.3804 3.76771 11.1955 3.86858 11.0442 3.9022C10.708 3.96944 10.3886 4.0703 10.1028 4.18797C9.32953 4.52418 9.58169 4.64185 9.43039 4.77633H9.37996C8.99333 4.82677 8.72436 5.2134 8.45539 5.48237C7.79979 6.13797 7.78298 6.20521 7.29548 6.89444L6.58945 7.90306C6.28686 8.34013 6.03471 8.81082 5.79936 9.28151C5.74893 9.38237 5.71531 9.48323 5.66488 9.58409L4.50496 11.8871C4.30324 12.2737 4.15195 12.694 3.95022 13.0806H2.15152C2.08427 13.2151 1.98341 13.3496 1.91617 13.4841C1.78169 13.7194 1.52953 14.0725 1.42867 14.3078C1.32781 14.56 1.26057 14.5263 1.37824 14.7785C1.14289 14.9466 0.991602 15.2492 0.890739 15.5686C0.520912 16.6612 0.604964 17.9388 0.604964 19.1492C0.604964 20.0401 0.504102 20.0233 0.739446 20.8806C0.92436 21.5531 1.12608 22.2591 1.22695 22.9819C1.24376 23.1332 1.27738 23.4358 1.27738 23.6039L0.487291 23.9569C0.117464 24.1418 0.0166016 24.31 0.0166016 24.7806C0.0166016 25.369 0.151084 25.9574 0.302377 26.4953C0.42005 26.8819 0.773067 27.9746 0.957981 28.3108C1.27738 28.8656 1.98341 29.8237 2.35324 30.4457C2.48772 30.6643 2.62221 30.8324 2.73988 31.0509C2.99203 31.4712 3.29462 31.8242 3.51315 32.2612C3.56358 32.3621 3.68126 32.4966 3.71488 32.5638C3.83255 32.8496 3.78212 32.8832 4.05108 33.2194C4.0847 33.2699 4.11833 33.3035 4.15195 33.3539L4.97565 34.2785C5.24462 34.6147 5.42953 34.7828 5.49677 35.2871C5.66488 36.3966 5.95065 37.5733 6.37091 38.4138C6.87522 39.4225 7.42996 39.8931 8.40496 40.3806C8.9597 40.6496 9.54807 40.8849 10.086 41.1707C10.3045 41.2884 10.5231 41.4229 10.7752 41.5069C10.9433 41.5574 10.9601 41.6078 11.0946 41.7087C11.1955 41.7927 11.2795 41.8431 11.3972 41.8936C11.5317 41.944 11.6325 41.9608 11.7502 42.0449C11.8847 42.1457 13.095 43.0031 13.2463 43.0535C13.3472 43.0871 13.5657 43.1039 13.7002 43.1039H18.8778C19.3149 43.1039 19.7351 43.0031 20.0882 42.919C21.0968 42.65 21.2817 42.5996 22.2735 42.8013C23.1981 43.0031 24.0386 43.1039 25.0304 43.1039H29.0649C29.6532 43.1039 30.2752 42.7005 30.5946 42.3811C30.7291 42.2466 30.7123 42.2298 30.8804 42.1625C31.1662 42.0449 31.4183 41.8431 31.6537 41.6414C33.1162 40.3974 32.9817 41.0699 34.4274 40.3302C35.1838 39.9436 35.8899 39.4393 36.3942 38.75C37.5037 37.2539 37.2347 36.5815 37.6718 35.4384C37.8567 34.9677 38.4787 34.2785 38.8653 33.8582C38.9157 33.791 38.9325 33.7742 38.983 33.7069C39.4705 33.169 40.2438 32.2949 40.58 31.7401C40.7649 31.4207 41.0002 31.1518 41.2188 30.8492C41.37 30.6475 41.4877 30.4457 41.6222 30.244C42.0425 29.6052 42.3787 28.916 42.6308 28.1931C42.6813 28.0418 42.7485 28.025 42.8325 27.8906C43.2192 27.235 43.4377 25.6716 43.4377 24.9151C43.4377 24.8311 43.3705 24.8311 43.2864 24.7975C42.8662 24.6125 42.4459 24.1082 42.4459 23.6207C42.4459 22.8979 42.5972 22.444 42.8494 21.8052C43.1519 21.0656 43.2192 20.7798 43.2192 19.8888C43.2192 17.838 42.7821 16.3923 42.1938 14.6272C42.0257 14.1397 41.8575 13.5177 41.639 13.0975C41.3869 13.1647 40.1261 13.4169 39.8403 13.4169C39.8067 13.0302 39.3696 12.3578 39.067 12.072C38.8989 11.9207 39.0502 11.7526 38.8149 11.2483C38.6972 10.9962 38.5627 10.7944 38.4282 10.5591L37.2683 8.49142C37.2347 8.40737 37.2011 8.37375 37.1675 8.32332C37.1338 8.25607 37.117 8.22246 37.0666 8.15521L36.8985 7.91987C36.8481 7.86944 36.8817 7.91987 36.8313 7.85263C36.7976 7.8022 36.7976 7.75177 36.7472 7.68452C36.411 7.06254 35.9739 6.49099 35.52 5.95306C35.4696 5.90263 35.436 5.86901 35.3856 5.81858C35.0325 5.34789 34.2425 4.69228 33.7045 4.5578C32.4101 4.22159 33.133 5.66728 30.7795 4.65866C30.4601 4.52418 30.208 4.35608 29.9054 4.20478C29.233 3.86858 29.1489 3.86858 28.4597 3.43151L27.636 2.9272C27.5351 2.85996 27.4679 2.80952 27.3502 2.75909C27.1653 2.64142 27.014 2.54056 26.8123 2.42289C25.9045 1.86815 24.98 1.3134 24.1394 0.674611C23.9209 0.506508 23.2821 0.0190079 23.0132 0.0190079C22.2063 0.0190079 22.1222 -0.0314231 21.3489 0.372025L19.7015 1.19573C19.0963 1.48151 16.205 2.57418 15.8183 2.87677C15.7175 2.96082 15.4989 2.99444 15.3476 3.02806L15.4149 3.01125Z" fill="white"/>
<path fill-rule="evenodd" clip-rule="evenodd" d="M21.5377 35.3362C20.5123 35.3362 20.2601 35.2521 19.3692 34.9496C19.0666 34.8487 18.7808 34.7142 18.4783 34.5965C17.8731 34.3444 17.3688 34.0754 16.814 33.7896C16.1248 33.4534 15.1498 32.8146 14.5446 32.3439C14.2925 32.1422 13.4856 31.3689 13.3007 31.1168C12.9476 30.6797 12.5946 30.4612 12.1576 29.7888C11.5188 28.8306 11.7541 29.3013 11.2834 28.2086C11.0649 27.7211 10.9304 27.3008 10.6278 26.8806C10.5774 26.8133 10.5942 26.847 10.5942 26.7797C10.5942 26.6957 10.6278 26.5948 10.6278 26.5108C10.6278 26.3258 10.5101 26.0401 10.4597 25.8552C10.3925 25.6198 10.3589 25.4013 10.3252 25.1323L10.258 24.3422C10.2244 24.1069 10.2412 23.7707 10.2076 23.5185C10.1739 23.1655 10.3084 21.5685 10.3925 21.1651C10.7119 19.5513 11.2666 18.1896 11.9726 16.7608C12.5442 15.6177 13.0317 14.8948 13.9058 14.0039C13.9899 13.9198 14.0571 13.8862 14.1412 13.8021C14.2084 13.7349 14.2757 13.6845 14.3597 13.6172L14.8472 13.2474C14.9313 13.1802 15.0153 13.1297 15.0994 13.0625C15.2675 12.9448 15.4356 12.8271 15.6037 12.7095C16.0576 12.4069 16.2593 12.3396 16.6795 12.1043C16.8813 11.9866 17.0326 11.9194 17.2511 11.8185C17.436 11.7177 17.6545 11.6504 17.8563 11.5664C19.6886 10.9108 21.336 10.8099 23.3028 10.9612C23.6895 10.9948 24.1265 11.0452 24.4964 11.1125C25.7403 11.3142 26.4295 11.5664 27.455 12.1379C27.8584 12.3565 29.1192 13.197 29.4218 13.4996C29.5731 13.6508 29.6235 13.7685 29.8252 13.7685C29.842 13.9534 30.4304 14.5082 30.5985 14.7099L30.8843 15.0125C31.3886 15.6513 31.439 15.6177 31.8929 16.3405C31.9265 16.4077 31.9601 16.4582 31.9938 16.5086C32.6326 17.6181 32.767 17.2987 32.9856 18.7108L33.305 20.728C33.3554 21.0306 33.4058 21.434 33.4226 21.7534C33.4731 22.409 33.5739 23.2664 33.5067 23.9556C33.4731 24.3086 33.4395 24.6448 33.389 24.9978C33.3386 25.3677 33.2882 25.6534 33.2041 26.0064C33.0696 26.6452 32.8847 27.2336 32.683 27.822C32.5149 28.3095 32.2291 28.9819 31.9938 29.4358C31.7416 29.9569 31.3382 30.5789 30.9851 31.0159C30.9347 31.0832 30.8843 31.1 30.8507 31.1672C30.6994 31.3689 30.6321 31.4194 30.5985 31.6379L30.5817 31.7052C30.5481 31.806 30.1446 32.0582 30.0438 32.1422C29.8252 32.3103 29.6067 32.4784 29.3713 32.6297L28.3627 33.3694C28.2955 33.4198 28.2451 33.4534 28.1946 33.4871C28.0265 33.6047 28.0938 33.6383 27.6903 33.8401C26.1942 34.5965 25.505 34.8655 23.7231 35.1345C23.0507 35.2353 22.3278 35.3026 21.5714 35.3026L21.5377 35.3362ZM12.5778 12.6422C12.7795 12.7431 13.0317 12.7599 13.183 12.9112C13.4183 13.1297 13.3343 13.281 13.452 13.5164C12.9308 13.8021 12.4601 14.172 11.9222 14.4241C11.4347 14.6595 10.9304 14.8948 10.4093 15.0461C10.2412 15.0965 9.98903 15.3151 9.87136 15.4496C9.46791 15.853 9.41748 16.1052 9.18213 16.6095L8.7955 17.4668C8.69463 17.7358 8.54334 18.1056 8.54334 18.4586C8.69463 18.425 8.81231 18.425 8.9636 18.3746C9.4511 18.2065 9.29981 18.1224 10.3084 18.1224C10.2076 18.5427 10.0563 18.8789 9.77049 19.1646C9.6192 19.3159 9.53515 19.4504 9.36705 19.5681C9.19894 19.6858 9.04765 19.7698 8.87955 19.8875L8.57696 20.1396C7.6692 20.9465 7.56834 21.4677 7.68601 22.6612C7.70282 22.8293 7.71963 23.0478 7.75325 23.2496L7.90455 25.0651C7.93817 25.6871 8.08946 26.2418 8.08946 26.8638C8.81231 26.4771 8.69463 26.1914 9.08127 25.7711C9.14851 25.7039 9.26618 25.5526 9.35024 25.5358C9.4511 25.5189 9.68644 25.5862 9.75368 25.6534C9.88817 25.7879 9.87136 26.1241 9.90498 26.309C9.98903 26.6621 9.95541 26.4771 9.68644 26.8638C9.48472 27.1496 9.1317 27.8724 9.1317 28.2086C9.1317 28.8978 9.283 29.2845 9.56877 29.856L9.88817 30.4276C10.2412 30.9823 10.6278 31.4866 10.9976 32.0245C11.2162 32.3439 11.6196 32.6802 11.8718 32.9659L12.3089 33.4198C12.3593 33.4702 12.3593 33.4871 12.4097 33.5375L12.9645 34.1258C13.1998 34.3612 13.4351 34.5629 13.6369 34.8151L14.7295 35.975C14.8304 36.0758 14.8808 36.1095 14.9649 36.1935C15.402 36.5802 15.8558 36.4625 16.377 36.3952C16.9485 36.3112 17.5369 36.1767 18.1252 36.1767C18.2765 36.1767 18.3942 36.1767 18.5119 36.1599H22.3782C22.4959 36.1599 22.6304 36.1599 22.7481 36.1599C22.9162 36.1599 22.9498 36.1935 23.1179 36.1935C23.6726 36.1935 24.1433 36.2271 24.6813 36.2271C24.967 36.2271 25.1688 36.2608 25.4377 36.2608C25.7907 36.2608 26.6481 36.2776 26.9339 36.328C27.2532 36.3784 27.7744 36.5465 28.0601 36.3448L28.6149 35.8573C28.6821 35.7901 28.6989 35.7901 28.7662 35.7396L29.7412 34.8655C29.8757 34.731 29.9261 34.7478 29.9261 34.5125C30.38 34.4116 30.8339 33.7728 31.1701 33.4198L31.5063 33.0836C31.792 32.7978 32.0274 32.4784 32.3132 32.1927C32.6157 31.8901 33.4395 30.9655 33.6244 30.6629C33.6412 30.6293 33.658 30.5789 33.6916 30.5621C33.8597 30.3267 33.658 30.7133 33.9606 30.3603C34.1455 30.1418 34.3472 29.9569 34.4985 29.7215C35.0364 28.8978 34.7843 28.0909 34.5489 27.2C34.4649 26.847 34.4145 26.4939 34.364 26.1241C34.3472 25.9728 34.3136 25.8215 34.4985 25.8215C34.7675 25.8215 35.3222 26.3763 35.6752 26.5444C35.8097 26.6116 35.9946 26.6621 36.1795 26.6789V24.3927C36.1795 23.9724 36.0787 23.3 35.9946 22.9133C35.7761 21.9215 35.2045 21.1146 34.7002 20.2573C34.4481 19.8539 34.2295 19.4336 33.927 19.0638C33.8429 18.9629 33.742 18.7444 33.742 18.5763C34.1455 18.4754 33.9942 18.2569 34.5489 18.5595C34.6834 18.6267 34.7843 18.6771 34.9188 18.7276C35.0869 18.7948 35.5239 19.0133 35.7257 19.0133C35.7088 18.5763 35.1541 17.6181 34.902 17.2483C34.2632 16.2901 33.8597 15.9034 32.952 15.2983C32.5485 15.0293 31.2541 14.3401 30.9851 14.0207C30.8507 13.8358 30.8507 13.7685 30.8002 13.5332H32.0274C32.0106 13.4996 31.9938 13.4659 31.977 13.4323C31.8593 13.1802 31.9433 13.281 31.8257 13.2642C31.5903 13.2138 31.8088 13.1633 31.6912 13.0289L30.0942 11.8353C29.9093 11.684 29.7244 11.5327 29.5226 11.3983L28.3627 10.5073C27.539 9.88533 26.9002 9.31378 26.0093 8.80947C25.3873 8.45645 24.3451 7.86809 23.8071 7.44783L22.9498 6.77542C22.7145 6.59051 22.5127 6.4224 22.1765 6.4224C21.6722 6.4224 21.067 7.09482 20.63 7.31335L18.8985 8.08663C18.68 8.17068 18.4614 8.28835 18.2093 8.38921C17.9739 8.49007 17.436 8.72542 17.2511 8.89352C17.1166 9.01119 16.9989 9.14568 16.8476 9.24654C16.7132 9.33059 16.6291 9.1793 15.7045 9.85171C15.6037 9.93576 15.5196 9.98619 15.4356 10.0534L13.9899 11.1125C13.5696 11.4487 12.5946 12.1715 12.5442 12.659L12.5778 12.6422Z" fill="white"/>
<path fill-rule="evenodd" clip-rule="evenodd" d="M20.8277 29.6277C20.8109 29.4596 20.8109 29.5437 20.8277 29.3924H20.6092C20.6764 28.6191 21.2816 28.8881 21.7355 28.4174C21.7691 28.3838 21.8195 28.3165 21.8532 28.3165C21.9204 28.2997 21.8868 28.3502 21.954 28.3165C22.2566 28.2325 23.3493 27.4424 23.5846 27.2407C24.3747 26.6019 24.9967 25.7782 25.4506 24.8872C25.9549 23.8786 26.2575 22.7691 26.4256 21.6428C26.5433 20.8359 26.5433 20.4493 26.5433 19.676C26.5433 19.2221 26.6945 19.1549 27.0812 19.1381C27.1148 19.4575 27.2325 19.7096 27.2997 19.9954C27.367 20.2812 27.4174 20.567 27.5014 20.8696C27.7704 22.0967 27.7872 22.164 27.7872 23.4079C27.7872 24.3493 27.4006 25.3579 27.0644 25.9631C26.8458 26.3329 26.5937 26.7027 26.2911 27.0221L25.7868 27.5601C25.7027 27.6441 25.6523 27.6777 25.5514 27.7618C25.4842 27.829 25.417 27.8795 25.3329 27.9467C25.2657 28.014 25.1816 28.0644 25.1144 28.1316C24.1394 28.9049 22.9122 29.6109 21.6178 29.5941C21.3993 29.5941 20.979 29.5773 20.8445 29.6446L20.8277 29.6277ZM25.7364 20.9032C25.4842 21.273 25.417 21.1721 25.2657 21.3234C25.1312 21.4747 25.2489 21.4243 25.0135 21.4915C24.9295 21.5252 24.9295 21.4915 24.8958 21.5924C24.879 21.626 24.8622 21.7437 24.8454 21.7941C24.4924 21.7101 24.6773 21.7269 24.4251 21.8782C23.8872 22.2144 22.492 22.7187 22.2566 22.8868C21.9876 23.0717 21.8868 23.4079 21.8195 23.7105C21.7859 23.8954 21.7523 24.0299 21.7187 24.2148C21.6346 24.5846 21.5842 25.0217 21.5002 25.2571C21.2648 25.8622 21.2648 27.9131 20.979 27.9131C20.8109 27.9131 20.5924 27.829 20.5083 27.745C20.2226 27.476 19.8527 26.4338 19.651 25.9967C19.567 25.8286 19.5165 25.6941 19.4493 25.526C19.382 25.3747 19.3316 25.2234 19.2812 25.0385C19.2139 24.7359 19.0963 24.7864 19.0458 24.6015C17.7346 24.6015 17.2639 24.9208 16.1377 24.9208C16.1377 24.7864 16.2217 24.6351 16.2889 24.5678L17.0118 23.6769C17.1799 23.4584 17.3312 23.2902 17.4993 23.0885C17.9364 22.5338 17.9532 22.3657 17.6842 21.5252C17.4993 20.9872 17.3984 20.4997 17.1799 19.9618C17.1295 19.8273 17.0958 19.7096 17.0622 19.5752C16.9782 19.2558 16.9614 19.1885 17.0118 18.9027C17.2303 18.9027 18.7769 19.2726 19.029 19.3398C19.4661 19.4407 19.8023 19.5415 20.2394 19.3398C21.0127 18.9532 21.6683 17.2721 22.4079 17.104C22.5592 17.3226 22.5928 17.5075 22.5424 17.8437C22.5256 17.9614 22.5088 18.1631 22.5088 18.264L22.4583 19.5752C22.4583 20.1467 22.9122 20.1803 23.5174 20.3484C24.1226 20.5334 24.3747 20.5838 24.9967 20.7015C25.4842 20.7855 25.4842 20.8359 25.7364 20.9032ZM16.3394 18.2135C16.2385 18.264 16.1545 18.2808 16.0536 18.3312C15.5829 18.6002 15.2971 19.7769 15.129 20.2644C14.6247 21.7605 14.4902 24.3157 15.2299 25.7614C15.4484 26.1816 15.4652 26.3665 15.7678 26.8204C15.8855 26.9885 15.9864 27.1062 16.0872 27.2743C16.2889 27.5937 16.2217 27.4592 16.5411 27.6105C16.5411 27.8458 16.4402 27.745 16.8941 28.0812C17.079 28.2157 17.2303 28.3334 17.3984 28.4678L18.9282 29.6109C19.3484 29.9303 19.4829 30.0648 20.0208 30.2833C21.0127 30.6868 21.1639 30.3002 22.307 30.3002C22.9627 30.3002 23.3829 30.3674 23.9208 30.1489C24.6269 29.8631 25.77 29.1739 26.3751 28.6527L26.6105 28.451C26.7618 28.2997 26.8963 28.1652 27.0476 28.014C27.1989 27.8627 27.3165 27.7114 27.4678 27.5433C27.8208 27.123 28.2579 26.417 28.5101 25.9295C28.6109 25.7109 28.695 25.5933 28.7958 25.3411C29.4683 23.6769 29.3842 21.895 28.779 20.1803C28.5941 19.676 28.4428 19.4407 28.2075 18.97C28.073 18.701 27.5351 17.9277 27.2997 17.7092L26.8626 17.2553C26.7786 17.1713 26.7114 17.1209 26.6273 17.0368L26.392 16.8351C25.9381 16.4821 25.9045 16.4316 25.3833 16.0786C25.0303 15.8433 24.795 15.7592 24.3579 15.7592C24.2402 15.5407 24.1394 15.5071 23.8368 15.3894C23.2652 15.154 22.8282 15.2213 22.2566 15.2045L21.3993 15.1709C20.8445 15.1709 20.1049 15.3726 19.6846 15.5239C19.3316 15.6584 18.3062 16.1963 18.0036 16.4484C17.9027 16.5325 17.8187 16.5997 17.7178 16.6838C17.617 16.7678 17.5329 16.8519 17.4489 16.9191L16.3226 17.8941C16.1208 18.0959 16.2385 18.0454 16.2889 18.2303L16.3394 18.2135Z" fill="white"/>
<path fill-rule="evenodd" clip-rule="evenodd" d="M12.3236 9.04376C12.1891 9.02695 12.29 9.02695 12.1555 8.99333L11.8865 9.19505C11.8025 9.2791 11.7184 9.34634 11.6512 9.44721C11.4663 9.68255 11.2141 9.83384 11.1301 9.9179C11.046 10.0019 11.0964 10.5399 11.0628 10.8088C11.046 10.9769 11.046 11.0946 11.0292 11.2459C11.0124 11.3636 10.9788 11.5653 10.9788 11.7166C11.1132 11.7166 11.2309 11.6157 11.3486 11.5485C11.7688 11.2459 12.1723 10.8425 12.5589 10.5063C12.6262 10.4558 12.643 10.439 12.7102 10.3886L13.2986 9.85066C13.6852 9.51445 13.3658 9.74979 13.7861 9.49764C13.9206 9.41359 14.0046 9.36316 14.1223 9.26229L14.7443 8.75798C14.8451 8.65712 14.946 8.58988 15.0469 8.50583C16.2908 7.4804 16.7279 7.59807 17.9887 6.95928L19.115 6.38772C19.7874 6.05152 20.7288 5.63126 21.3676 5.26143C21.6197 5.11014 21.9391 4.92522 22.2417 4.92522C22.4266 4.92522 22.6788 5.26143 22.9477 5.47997C23.0486 5.56402 23.4016 5.81617 23.5361 5.8666C23.6369 5.90022 23.6201 5.83298 23.7546 5.81617C24.1076 6.05152 24.0908 6.20281 24.5951 6.45497C25.1835 6.74074 25.5869 7.11057 26.2089 7.34591C26.5283 7.46359 27.1335 7.95109 27.4025 8.136L29.1675 9.37997C29.4533 9.58169 29.7391 9.7666 30.0249 10.0019L30.8486 10.6744C30.9158 10.7248 30.9158 10.7248 30.9831 10.792C31.0335 10.8425 31.0671 10.8425 31.1175 10.8929C31.2184 10.9769 31.3025 11.0442 31.4033 11.1282C31.5042 11.2123 31.5714 11.2627 31.6723 11.3468C31.9413 11.5821 32.1766 11.8511 32.4288 12.1032C32.5128 12.1873 32.6305 12.2713 32.765 12.2713C32.849 12.2713 33.1348 12.2209 33.1852 12.2041C33.1684 11.2123 32.1262 9.64893 31.521 9.01014L31.1007 8.55626L31.0839 8.53945C30.7982 8.25367 30.3275 7.85022 29.9913 7.61488L28.8482 6.82479C28.3607 6.52221 26.8645 5.66488 26.377 5.39591C26.1753 5.27824 25.9568 5.17738 25.755 5.0429C25.5029 4.8916 25.3852 4.82436 24.9818 4.82436C24.9482 4.67307 24.9145 4.77393 24.9482 4.60583L23.6874 4.03428C23.2335 3.81574 22.9645 3.56359 22.746 3.12652C21.6197 3.12652 20.4766 3.46272 19.5016 3.96704L18.2072 4.70669C17.9887 4.84117 17.7869 4.95885 17.5852 5.09333C16.9464 5.51359 16.4253 5.79936 15.7193 6.28686L14.5426 7.161C14.324 7.3291 12.7102 8.53945 12.5253 8.72436C12.3404 8.89247 12.4413 8.87565 12.3236 9.06057V9.04376Z" fill="white"/>
<path fill-rule="evenodd" clip-rule="evenodd" d="M4.29517 28.0099C4.29517 28.4638 5.0012 29.4892 5.28698 29.9767C5.57275 30.4474 6.24517 31.3047 6.56456 31.6913C6.91758 32.1116 7.62361 32.9185 7.89258 33.3556C8.27922 33.9775 8.2456 34.8517 8.54818 35.6754C8.74991 36.2133 8.91801 36.5159 9.25422 36.953C9.40551 37.1715 10.0611 37.8775 10.3133 37.8775C10.784 37.8775 12.2801 37.5581 12.734 37.39C12.8853 37.3396 13.3055 37.1715 13.4568 37.1715C13.4568 36.4487 13.6921 36.7008 12.8516 35.6586L9.18698 31.0357L8.11111 29.9094C7.85896 29.6573 7.15292 29.1025 6.88396 28.9008C6.41327 28.5478 5.23655 27.8082 4.64818 27.8082C4.5137 27.8082 4.29517 27.825 4.29517 28.0267V28.0099Z" fill="white"/>
<path fill-rule="evenodd" clip-rule="evenodd" d="M29.2306 37.3753C30.0879 37.3922 30.6259 38.6025 32.4918 37.7452C32.6767 37.6611 32.8784 37.6443 33.0466 37.5434C33.6517 37.2241 33.3155 37.3081 33.4332 37.1904C33.4668 37.1568 33.6685 37.2577 34.2065 36.5348C35.0638 35.3917 34.8621 33.8284 35.6353 32.7861L35.6522 32.7525C35.8203 32.5003 35.8371 32.7189 36.2405 32.2986L37.1819 31.3068C37.7871 30.7185 38.3922 29.8107 38.8293 29.0878C38.947 28.9029 39.0478 28.6508 39.1319 28.4322C39.4513 27.5413 39.5353 27.0706 38.2073 27.743C37.703 27.9952 37.4677 28.2978 37.1483 28.5499L36.2069 29.4913L35.8203 30.0124C35.669 30.1637 35.7362 29.9116 35.4504 30.2646L31.3151 34.837C31.0293 35.1732 31.0797 35.1564 30.7267 35.4758C30.3233 35.8288 29.1802 37.0055 29.1802 37.3585L29.2306 37.3753Z" fill="white"/>
<path fill-rule="evenodd" clip-rule="evenodd" d="M5.28878 17.3998C5.28878 17.7528 5.69223 18.1563 5.89396 18.4253C5.97801 18.5261 6.07887 18.6102 6.16292 18.6942C6.56637 18.4253 6.98663 17.8033 7.23878 17.3326C7.72628 16.4416 8.18016 15.4834 8.53318 14.5084C8.86939 13.5503 9.0543 13.0459 9.34007 12.0541C9.55861 11.2977 9.8612 10.1041 9.8612 9.29724C9.5418 9.29724 9.13835 9.75112 8.93663 9.95284C8.46594 10.4235 7.67585 11.7011 7.33964 12.3063C7.03706 12.8778 6.7849 13.2477 6.53275 13.8865L6.06206 14.9959C5.89395 15.4162 5.27197 16.9459 5.27197 17.4166L5.28878 17.3998Z" fill="white"/>
<path fill-rule="evenodd" clip-rule="evenodd" d="M37.2624 26.6492C37.565 26.5819 38.3887 26.2289 38.7081 26.0776C39.0443 25.9095 39.0779 25.5901 39.1956 25.2203C39.246 25.0522 39.2964 24.8841 39.3469 24.6992C39.4477 24.3462 39.5318 23.9763 39.599 23.6233C39.6999 23.1526 39.9184 21.7742 39.9184 21.2531C39.9184 20.5302 40.0361 19.3703 40.0025 18.6475L39.9689 17.891C39.3301 17.9414 39.0779 18.6643 38.7753 19.1686C38.3214 19.9587 38.002 20.4966 37.7163 21.3539C37.212 22.85 37.2624 24.6656 37.2624 26.6324V26.6492Z" fill="white"/>
<path fill-rule="evenodd" clip-rule="evenodd" d="M6.41185 27.1959C6.57995 26.4899 6.31099 24.708 6.21013 23.9683C6.05883 22.9429 6.0084 22.4554 5.72263 21.4468C5.33599 20.0515 4.99978 19.4127 4.34418 18.32C4.29375 18.236 4.26013 18.1687 4.2097 18.0847C4.07521 17.8662 3.95754 17.5972 3.60452 17.5636C3.55409 17.6476 3.50366 17.6981 3.50366 17.8325L3.7222 21.1778C3.77263 21.6485 4.02478 22.7075 4.15927 23.1278C4.29375 23.548 4.41142 23.9179 4.57952 24.2877C4.99978 25.2459 5.23513 25.6998 5.82349 26.5907C6.26056 27.2463 6.07564 27.011 6.42866 27.1791L6.41185 27.1959Z" fill="white"/>
<path fill-rule="evenodd" clip-rule="evenodd" d="M36.1539 16.4582C36.1539 16.6263 36.2548 16.9457 36.322 17.013C36.3557 17.0466 36.4397 17.0802 36.4733 17.097C36.4733 17.2819 36.4733 17.3155 36.5238 17.45C36.591 17.6013 36.8936 18.2233 36.8936 18.341C37.3811 18.341 37.8013 17.9375 38.0535 17.803C38.0367 17.7022 38.0031 17.5677 37.9863 17.45C37.9526 17.3155 37.9358 17.1979 37.919 17.0634C37.9022 16.8953 37.8854 16.8617 37.835 16.7272C37.7509 16.4918 37.8182 16.6095 37.6332 16.475C37.6332 15.9875 37.7845 16.1724 37.4315 15.3319C37.1962 14.7772 37.1121 14.3569 36.9104 13.8358C36.6582 13.2138 36.8432 13.2979 36.5069 13.2138C36.5238 12.928 36.6582 13.197 36.3893 12.5582C36.1539 11.9867 35.5488 11.0285 35.1117 10.6082C34.9436 10.4401 34.6242 10.1039 34.3552 10.0703C34.3552 11.5328 34.91 13.7013 35.4647 15.0798C35.5656 15.3151 35.6664 15.5505 35.7673 15.8026C35.8177 15.9203 35.8513 16.038 35.9186 16.1724C36.0363 16.4582 36.0699 16.4078 36.1707 16.4582H36.1539Z" fill="white"/>
<path fill-rule="evenodd" clip-rule="evenodd" d="M11.5526 20.0428L12.3427 20.3791C12.578 20.4631 12.5612 20.4127 12.6285 20.4967C12.2082 20.4967 11.872 20.5472 11.4517 20.5472C11.3677 20.9338 10.9642 21.3036 11.8552 21.539C12.0905 21.6062 12.3595 21.6903 12.5948 21.7743C12.8134 21.8416 13.9397 22.2618 14.0742 22.2618C14.1246 22.0769 14.2591 21.9592 14.2591 21.6903C14.0405 21.5726 13.8556 21.539 13.6035 21.4885C12.7798 21.2868 13.2336 21.2028 12.5948 21.3541C12.5948 21.2028 12.578 21.1691 12.5612 21.0515C12.9983 21.0515 13.1832 21.0515 13.6203 21.1187C13.7379 21.1355 13.8892 21.1187 14.0237 21.1355C14.4272 21.186 14.3767 21.2364 14.3767 20.7489C14.3767 20.648 14.1414 20.6312 13.9397 20.564C13.7548 20.5135 13.6371 20.4631 13.4858 20.4127C13.2168 20.3118 12.8638 20.1437 12.7125 19.9252C13.4186 20.0933 13.7884 20.2446 14.5953 20.2446C14.5953 19.9588 14.6625 19.9252 14.6961 19.7907C14.0742 19.4881 13.0992 19.5217 12.578 19.4209C11.9897 19.3032 11.7543 19.1183 11.6367 19.5722C11.603 19.6898 11.5694 19.8916 11.5694 20.0428H11.5526Z" fill="white"/>
<path fill-rule="evenodd" clip-rule="evenodd" d="M15.166 30.3957C15.3005 30.2107 15.4854 30.009 15.6367 29.8577L15.9393 29.4879C16.2587 29.1685 16.1578 29.2694 16.3595 28.8659L15.788 28.6306C15.7207 28.7651 15.7543 28.7651 15.6367 28.95C15.4181 29.3198 15.1996 29.4711 14.9306 29.7737L14.46 30.3284C14.3759 30.4293 14.3255 30.5133 14.2582 30.631C14.2078 30.7151 14.1237 30.9 14.1069 31.0008C14.1237 31.0345 14.4768 31.3202 14.5272 31.337C14.7793 31.4211 15.6367 30.631 15.8888 30.4629C15.8384 30.7151 15.4181 31.2026 15.25 31.4547L15.0147 31.7741C15.1324 31.959 15.3005 32.2112 15.4686 32.3457L16.7966 31.2194C16.8638 31.1521 16.8806 31.1521 16.9479 31.1017L17.6875 30.4629C17.7548 30.4125 17.7884 30.3789 17.822 30.2948C17.5867 30.2444 17.2168 29.925 16.7966 30.4965C16.6789 30.6646 16.5949 30.7655 16.4604 30.9C16.3763 30.984 16.3595 31.0008 16.2587 31.0681C16.1578 31.1353 16.1074 31.1521 15.9897 31.2026C16.0401 30.9672 16.6453 30.2107 16.8302 29.9922C16.9479 29.8577 17.0656 29.7064 16.8974 29.5383C16.6285 29.2526 16.3931 29.5551 16.0569 29.8409C15.8552 30.009 15.519 30.362 15.1996 30.3789L15.166 30.3957Z" fill="white"/>
<path fill-rule="evenodd" clip-rule="evenodd" d="M15.3666 37.3542C15.3666 37.4382 15.5852 38.077 15.6188 38.1947C15.6692 38.346 15.7028 38.4468 15.7196 38.6318C15.7365 38.7158 15.7365 38.7494 15.7196 38.8503C15.686 38.9848 15.6524 38.9848 15.5852 39.0184C15.5684 38.8839 15.4171 38.5309 15.3498 38.4132C15.1817 38.1106 14.8791 37.6231 14.5429 37.5055C13.6352 37.1861 14.2571 38.699 14.3748 39.2033C14.4253 39.4386 14.5597 40.0102 14.5597 40.2792C14.5765 40.6994 14.4084 40.6322 15.249 40.6322C15.249 40.3128 15.1649 39.9598 15.0977 39.674C15.064 39.5059 15.0136 39.3882 14.9632 39.2369C14.9128 39.1024 14.8455 38.9511 14.8119 38.8167C14.8959 38.8671 14.9464 38.8671 15.0472 38.9343C15.2826 39.0856 15.4003 39.3378 15.5011 39.6067C15.7365 40.1951 15.9382 40.4136 16.5938 40.2624C16.5938 39.5059 16.0222 37.9257 16.0222 37.1188C15.7365 37.1188 15.5347 37.2365 15.3498 37.3374L15.3666 37.3542Z" fill="white"/>
<path fill-rule="evenodd" clip-rule="evenodd" d="M20.5862 32.9201C20.5862 33.105 20.6198 33.3236 20.6702 33.458C20.9728 34.2649 22.3849 34.702 22.8556 33.458C22.9228 33.2731 22.9228 33.1723 22.9564 32.9369C23.1245 31.4912 21.1241 31.2559 20.6702 32.3822C20.6198 32.5167 20.5862 32.752 20.5862 32.9369V32.9201Z" fill="white"/>
<path fill-rule="evenodd" clip-rule="evenodd" d="M23.42 38.0191C23.42 37.935 23.3864 37.1618 23.5545 37.1618C23.8403 37.1618 23.9579 37.4307 23.9579 37.6493C23.9579 37.8342 23.6217 38.0023 23.42 38.0191ZM23.2855 39.8682C23.3023 39.7842 23.3359 39.7001 23.3359 39.5993L23.3023 38.9269H23.5209L23.6385 39.5825C23.8234 40.1204 24.4118 39.9859 24.395 39.7169C24.395 39.6329 24.2773 39.3639 24.2437 39.2799C24.1597 39.0445 23.9747 38.6579 23.9747 38.3721C24.2605 38.3553 24.5463 38.0359 24.5463 37.6661C24.5463 37.229 24.3278 36.8256 24.0252 36.7247C23.8739 36.6743 23.6217 36.6575 23.4368 36.6406C23.2519 36.6238 23.0165 36.607 22.8484 36.5566C22.8484 37.7165 22.6467 38.4562 22.6299 39.532C22.6299 39.8346 22.4954 39.801 22.8148 39.8346C22.8821 39.8346 22.9661 39.8514 23.0502 39.8682C23.2015 39.885 23.1342 39.8682 23.2687 39.8514L23.2855 39.8682Z" fill="white"/>
<path fill-rule="evenodd" clip-rule="evenodd" d="M18.1504 37.8037C18.1504 38.5097 18.2176 39.6192 18.9237 39.905C19.5456 40.1572 20.3357 39.6528 20.3357 38.6947C20.3357 37.8878 20.4366 38.0222 19.6129 38.0222C19.3439 38.0222 19.2431 38.0895 19.0413 38.1231C19.075 38.2408 19.0918 38.3584 19.1254 38.4593C19.2094 38.6442 19.4448 38.6106 19.7138 38.6106C19.7138 39.9386 18.7219 39.2662 18.7219 38.039C18.7219 37.7533 18.9405 37.3666 19.1254 37.2826C19.3775 37.1649 19.6633 37.6356 19.8482 37.686C19.9995 37.4675 19.8819 37.5347 20.1676 37.4675C20.1676 37.249 19.9827 36.9968 19.865 36.8791C19.2263 36.2403 18.1504 36.7951 18.1504 37.7869V37.8037Z" fill="white"/>
<path fill-rule="evenodd" clip-rule="evenodd" d="M23.3376 14.3761C23.3376 14.6787 23.4553 14.6787 23.8756 14.6787L24.0773 13.939C24.1445 13.67 24.2118 13.4851 24.2118 13.1321C24.548 13.3506 24.548 14.3088 24.5312 14.7963C24.5312 14.9812 24.4976 15.0485 24.6825 15.0317C24.7329 15.0317 25.0187 14.9981 25.0523 14.9812C25.2372 14.914 25.2372 14.4769 25.3549 14.0735C25.4726 13.7037 25.607 13.1657 25.7247 12.8463C25.792 12.6614 25.8928 12.4429 25.8928 12.2075C25.7583 12.1403 25.4894 12.1067 25.3045 12.1067C25.3045 12.4093 25.2036 12.6614 25.1195 12.8968C25.0355 13.1321 25.0187 13.4683 24.7665 13.5356V11.8713C24.5648 11.8545 24.4135 11.7705 24.1445 11.7705C24.0437 11.7705 23.9933 12.1571 23.9092 12.3925L23.5057 13.7037C23.4553 13.855 23.3376 14.2248 23.3376 14.3929V14.3761Z" fill="white"/>
<path fill-rule="evenodd" clip-rule="evenodd" d="M19.6306 12.5101V12.3252C19.95 12.3252 20.135 12.4765 20.2526 12.6782C20.4207 12.9472 20.4712 13.2666 20.4712 13.6196C20.4712 13.9054 20.1181 14.1407 19.9669 14.1912C19.95 13.7877 19.6475 13.0312 19.6475 12.5269L19.6306 12.5101ZM18.9246 11.8377C18.891 12.2243 18.8069 11.8545 18.9414 12.5101L19.16 13.6532C19.2776 14.2248 19.3617 14.8131 19.9164 14.8131C20.1518 14.8131 20.6056 14.4937 20.7233 14.3593C21.1268 13.939 21.0931 13.3506 20.9755 12.8295C20.841 12.2916 20.5216 11.7705 19.866 11.7705C19.513 11.7705 19.2944 11.8209 18.9246 11.8209V11.8377Z" fill="white"/>
<path fill-rule="evenodd" clip-rule="evenodd" d="M31.1124 21.8036C29.9525 21.8036 30.3559 21.064 31.0956 20.8959C31.2133 20.8623 31.5327 20.8118 31.6671 20.8454C31.7344 20.8623 31.8689 20.8623 31.9529 20.8791C32.0538 20.8959 32.1378 20.9127 32.2387 20.9295C32.2387 21.2321 32.121 21.4842 31.9361 21.6187C31.7512 21.7532 31.4318 21.8204 31.1124 21.8204V21.8036ZM29.7676 21.3666C29.7676 22.9467 32.8271 22.5769 32.8271 21.1312C32.8271 20.6773 32.4404 20.2403 31.9697 20.2403C31.1796 20.2403 29.7676 20.3411 29.7676 21.3666Z" fill="white"/>
<path fill-rule="evenodd" clip-rule="evenodd" d="M27.0046 39.3378C26.8533 39.3378 26.8869 39.3546 26.786 39.2874C26.5843 39.1024 26.6852 39.052 26.8197 38.6486C26.8869 38.43 26.9037 38.3964 27.0718 38.2955L27.055 39.1193C27.0382 39.2201 27.0046 39.2537 26.9878 39.3378H27.0046ZM25.6934 40.0102C25.6934 40.296 25.9287 40.2792 26.0632 40.2792C26.3994 40.2792 26.1809 39.8421 26.6347 39.8421H26.8701C27.2735 39.8421 26.9373 40.5145 27.1727 40.5145C27.8787 40.5145 27.6602 40.5817 27.6602 40.027V37.6568C27.6602 37.6568 27.7274 37.3878 27.4584 37.2365C27.324 37.1693 27.0886 37.1188 26.8869 37.1188C26.8197 37.8753 25.7102 39.4723 25.7102 39.9934L25.6934 40.0102Z" fill="white"/>
<path fill-rule="evenodd" clip-rule="evenodd" d="M12.3203 28.3079C12.6397 28.7786 12.8582 28.6777 13.2785 28.3751C13.766 28.0053 14.2031 27.854 14.6906 27.5346C14.7914 27.6859 14.9259 27.8036 15.01 27.9381C14.9427 28.2238 14.035 28.6609 13.7492 28.829C13.6651 28.8794 13.5643 28.9299 13.4802 28.9803C12.791 29.3838 13.0768 29.451 13.1104 29.7536C13.4802 29.7536 14.2199 29.3333 14.5225 29.1316C15.2789 28.6441 15.9513 28.2743 15.2789 27.3329C14.8923 26.795 14.4216 26.9631 13.9509 27.232C13.497 27.501 12.6229 27.9549 12.3371 28.2911L12.3203 28.3079Z" fill="white"/>
<path fill-rule="evenodd" clip-rule="evenodd" d="M17.0236 12.6255C17.0404 13.2643 18.1499 14.4411 18.1499 14.9117C18.1499 14.979 17.9313 15.1975 17.9145 15.2143C17.3094 15.0799 17.0068 13.8863 16.6033 13.4324C16.5193 13.3484 16.452 13.298 16.3848 13.1971C16.2335 13.2307 16.015 13.3148 15.9309 13.4324L16.4688 14.3738C16.8555 15.0126 17.2085 15.954 17.9986 15.7186C18.7887 15.5001 18.8895 14.7773 18.5029 14.1553C18.2003 13.651 18.1835 13.6005 17.8641 13.113C17.6288 12.76 17.696 12.76 17.5951 12.5247C17.343 12.5415 17.1413 12.6255 17.0236 12.6255Z" fill="white"/>
<path fill-rule="evenodd" clip-rule="evenodd" d="M20.8276 39.8346H22.1725V39.1286H21.5V38.3553H22.1725C22.1725 37.7501 22.1725 37.7837 21.5 37.7837C21.5 37.6493 21.5169 37.229 21.6345 37.1618C21.7018 37.1281 21.8699 37.1281 21.9539 37.1113C22.0884 37.0945 22.1557 37.0609 22.2733 37.0273C22.2565 36.9096 22.2229 36.9096 22.2061 36.8087C22.1893 36.7079 22.1893 36.6406 22.1725 36.5566H20.8276V39.8346Z" fill="white"/>
<path fill-rule="evenodd" clip-rule="evenodd" d="M21.6189 14.4357C21.8711 14.4357 22.0392 14.4693 22.2409 14.4861L22.8629 14.5365C22.8965 14.4693 22.9469 14.1835 22.9469 14.0827C22.9469 13.6792 22.493 13.9818 22.3081 13.7296C21.9719 13.3094 22.4594 13.1917 22.8797 13.1917V12.6033L22.3417 12.637C22.3081 12.5025 22.3081 12.6202 22.2409 12.5025C22.2577 12.4184 22.2745 12.4184 22.3081 12.3512C22.409 12.0318 22.1232 12.0822 22.7116 12.0822C23.031 12.0822 22.9973 11.8973 23.031 11.5107H21.6693V14.4357H21.6189Z" fill="white"/>
<path fill-rule="evenodd" clip-rule="evenodd" d="M29.2155 27.1765C29.3164 27.2101 29.2996 27.2101 29.3164 27.311H29.8039C29.8039 27.1429 29.8543 26.8571 29.9048 26.7394C29.9552 26.773 30.0224 26.773 30.0729 26.7898C30.2242 26.8403 30.3923 26.9411 30.5604 26.9579C30.5436 27.2269 29.972 27.7312 30.9302 27.7312C30.9302 27.5295 31.0142 27.5295 31.0142 27.1933C31.5858 27.2101 31.5186 27.4623 31.5186 27.7312C31.5186 27.8657 31.4513 27.8489 31.4345 28.0002C31.7875 28.1851 31.8884 28.4204 32.2078 27.4791L32.3591 27.0588C32.0565 26.8571 31.4177 26.6554 31.0142 26.4873C30.7957 26.4032 30.5772 26.3023 30.325 26.2351L29.7535 26.067C29.6526 26.0502 29.6358 26.067 29.5517 26.0334C29.4005 26.336 29.1987 26.8066 29.1987 27.1597L29.2155 27.1765Z" fill="white"/>
<path fill-rule="evenodd" clip-rule="evenodd" d="M30.5708 24.6342C30.5708 24.4661 30.5204 24.3316 30.5204 24.1467C30.5204 24.0458 30.6885 23.9282 30.823 23.7264C30.907 23.5919 30.8566 23.6088 31.0751 23.6088C31.3777 23.6088 31.8484 23.6256 32.0501 23.7096C32.3527 23.8441 32.3359 24.2644 32.3359 24.6174H32.9075C32.9075 24.1971 32.9915 23.6256 32.6217 23.323C31.7643 22.6506 30.201 22.8187 29.932 23.8945C29.8143 24.382 29.8816 24.6174 30.5708 24.6174V24.6342Z" fill="white"/>
<path fill-rule="evenodd" clip-rule="evenodd" d="M13.0435 16.6804C13.0435 16.983 13.1275 17.1343 13.3292 17.2856C13.6486 17.5209 13.7159 17.5714 14.0689 17.5714C14.2034 17.5714 14.3547 17.5377 14.4555 17.5041C14.8085 17.3528 14.6236 17.1679 15.2288 17.5714C15.1952 17.9412 15.0103 17.7731 14.9094 18.2438C15.0439 18.311 15.1952 18.4623 15.2624 18.4623C15.3465 18.4623 15.6154 18.1765 15.6659 18.1261C15.834 17.8908 15.8172 17.5882 15.8172 17.2856C15.8172 17.2015 15.8004 17.2352 15.7667 17.2015L15.6827 17.1343C15.3801 16.8989 15.3297 16.7981 14.943 16.7981C14.5228 16.7981 13.7159 17.067 13.7159 16.6636C13.7159 16.4955 14.0185 16.1761 13.8335 16.0416C13.5814 15.8567 13.0771 16.3106 13.0771 16.6972L13.0435 16.6804Z" fill="white"/>
<path fill-rule="evenodd" clip-rule="evenodd" d="M29.6907 19.2277V18.9083C28.7157 18.9083 29.2032 20.1355 30.0101 20.1355C30.7329 20.1355 30.9346 19.2109 31.0523 18.9251C31.1196 18.757 31.3381 18.6898 31.5566 18.6898C31.5734 18.8075 31.6575 19.0092 31.6575 19.2613C32.3299 19.2109 32.2459 18.8579 31.9769 18.4208C31.7752 18.0846 31.8088 18.135 31.5398 18.135C31.0019 18.135 30.5984 18.3536 30.4135 18.7402C30.3295 18.9083 30.279 19.2613 30.1782 19.379C30.0941 19.4799 29.9933 19.4967 29.8756 19.4799C29.7411 19.4631 29.6402 19.4126 29.6402 19.2613L29.6907 19.2277Z" fill="white"/>
<path fill-rule="evenodd" clip-rule="evenodd" d="M27.4617 29.3462C27.4617 29.632 27.6802 29.8505 27.8483 30.0018C28.3862 30.4557 28.4199 30.6742 28.6384 31.313C28.6888 31.4475 28.7224 31.5484 28.7561 31.6996C28.7897 31.8173 28.8401 32.0359 28.8737 32.1199C29.1595 31.935 29.4621 31.7501 29.2604 31.4139C29.1595 31.2458 29.025 30.9768 29.0082 30.7919L29.4117 30.9768C29.5293 31.044 29.6806 31.1449 29.8655 31.1449C30.0505 31.1449 30.2186 30.8423 30.2186 30.6574C30.1009 30.6238 29.9832 30.5565 29.8487 30.5061C29.7143 30.4557 29.6134 30.4052 29.4957 30.3548C29.378 30.3044 29.2604 30.254 29.1427 30.2035C28.8905 30.1027 28.9074 30.1531 28.7224 29.985C28.672 29.9514 28.672 29.9514 28.6552 29.9346C28.4367 29.7328 28.1509 29.2117 27.6634 29.094C27.6298 29.1445 27.4785 29.2958 27.4785 29.363L27.4617 29.3462Z" fill="white"/>
<path fill-rule="evenodd" clip-rule="evenodd" d="M12.4914 26.5092C12.3569 26.5092 12.1888 26.5092 12.1552 26.3411C12.1383 26.2403 12.1215 26.0554 12.1215 25.9377C11.9534 25.9713 11.634 26.0385 11.634 26.3411C11.634 26.6269 11.8694 26.9295 12.0543 27.0472C12.3401 27.2489 12.6258 27.2321 12.8948 27.0304C13.6513 26.4588 13.2478 25.8536 14.0379 25.8536C14.0379 25.9377 14.1052 26.5092 14.1724 26.5092H14.206C14.3573 26.4924 14.7439 26.3579 14.7439 26.1058C14.7439 25.8704 14.475 25.5679 14.3573 25.4166C14.2228 25.2316 14.2228 25.2821 13.9875 25.2989C13.5672 25.3493 13.1638 25.3997 12.9284 25.8536C12.8108 26.0722 12.7771 26.5092 12.5082 26.5092H12.4914Z" fill="white"/>
<path fill-rule="evenodd" clip-rule="evenodd" d="M27.6612 16.1261C27.5435 16.1261 27.4595 15.9916 27.3586 15.8908C27.2073 15.7395 27.3418 15.8067 27.0897 15.6386C26.9384 15.9412 26.7198 16.2942 27.1569 16.5968C27.5772 16.8826 27.8797 16.7985 28.216 16.4623C28.5522 16.1261 28.5353 15.9244 28.4681 15.4201C28.3672 14.7813 28.4345 14.7981 28.9892 14.7981C29.006 14.9326 29.1237 15.0839 29.2582 15.1007C29.3086 14.9326 29.5272 14.7813 29.4263 14.6132C29.4263 14.5964 29.1237 14.2265 29.0733 14.2265C28.1319 14.2265 28.5017 14.1761 27.947 14.63C27.8461 14.714 27.8629 14.7645 27.8797 14.9326C27.8797 15.1343 27.8966 16.1597 27.6612 16.1597V16.1261Z" fill="white"/>
<path fill-rule="evenodd" clip-rule="evenodd" d="M28.426 28.1955C28.6614 28.4644 29.2161 28.7502 29.5523 28.9519L30.1407 29.3049C30.6954 29.7084 30.1407 30.095 30.5778 30.095C30.8971 30.095 31.0148 29.8093 31.1157 29.5907C31.2334 29.3554 31.4015 29.1537 31.4687 28.8679C31.4015 28.7838 31.2502 28.6493 31.1493 28.6662C30.7459 28.7838 30.9812 29.1705 29.7877 28.3636C29.0816 27.8929 28.7622 27.5567 28.4428 28.1787L28.426 28.1955Z" fill="white"/>
<path fill-rule="evenodd" clip-rule="evenodd" d="M26.5347 13.2212C26.7869 13.238 26.7701 13.2716 26.8878 13.4397L25.9632 15.0199C25.8623 15.2048 25.7447 15.3729 25.6438 15.5578C25.896 15.6083 25.8791 15.541 25.98 15.6251C26.0641 15.6755 26.0977 15.7764 26.2322 15.7764L27.0895 14.2298C27.1399 14.129 27.1735 14.0617 27.224 13.9609C27.2744 13.86 27.2912 13.7759 27.3416 13.6751C27.4089 13.6919 28.0141 13.9777 28.0141 13.5742C28.0141 13.2212 28.0813 13.3893 27.4089 13.0363C27.2576 12.9522 26.9214 12.7001 26.7869 12.6665C26.5852 12.8178 26.5684 12.9859 26.5516 13.238L26.5347 13.2212Z" fill="white"/>
<path fill-rule="evenodd" clip-rule="evenodd" d="M11.2736 24.6354C11.2736 24.7363 11.2736 25.1397 11.3577 25.1565L13.6271 24.854C14.4004 24.7363 14.2827 24.7699 14.165 23.9966C14.1482 23.8453 14.1146 23.6436 14.1146 23.4923C13.9297 23.4923 13.7952 23.4923 13.6607 23.5427C13.2741 23.7109 14.0137 24.1311 13.0051 24.316C12.6017 24.3833 12.0974 24.4001 11.6099 24.4505C11.509 24.4673 11.2568 24.5009 11.2568 24.6354H11.2736Z" fill="white"/>
<path fill-rule="evenodd" clip-rule="evenodd" d="M14.1255 15.2048C14.1591 15.2552 14.3945 15.4233 14.4785 15.4233C14.5289 15.4233 14.697 15.2888 14.9156 15.2384C14.9492 15.2552 15.0669 15.4065 15.1173 15.4401C15.3526 15.7091 16.294 16.7513 16.5126 16.9026C16.6638 16.8018 16.7983 16.6505 16.9496 16.5496L16.5462 16.0957C16.4789 16.0117 16.4117 15.9613 16.3276 15.8772L15.7057 15.2048C15.6216 15.1207 15.3022 14.8182 15.3022 14.7173C15.3022 14.6332 15.319 14.6669 15.3526 14.6332L15.3863 14.5996L15.4031 14.5828C15.4703 14.4988 15.5039 14.3643 15.5039 14.2466C15.5039 14.1626 15.4535 14.1794 15.3863 14.1457C15.1677 14.0785 15.1341 14.0785 14.882 14.3138L14.5962 14.566C14.4281 14.7341 14.2264 14.919 14.1591 15.1712L14.1255 15.2048Z" fill="white"/>
<path fill-rule="evenodd" clip-rule="evenodd" d="M16.6851 37.1753C16.6851 37.3266 16.7019 37.377 16.7187 37.5115C16.7355 37.646 16.7523 37.7301 16.7691 37.8645C16.8027 38.0831 16.8364 38.3184 16.87 38.5706C16.9036 38.7891 16.9372 39.0413 16.9708 39.2766C17.0549 39.7473 17.1053 39.5288 17.1053 40.1844C17.5088 40.1844 17.5928 40.1003 17.8114 40.0835L17.3575 36.94C17.0549 36.94 16.6851 36.8727 16.6851 37.1753Z" fill="white"/>
<path fill-rule="evenodd" clip-rule="evenodd" d="M24.6467 40.0583H25.3191L25.773 36.9147H25.067C25.067 37.2846 24.6299 39.6212 24.6299 40.0583H24.6467Z" fill="white"/>
<path fill-rule="evenodd" clip-rule="evenodd" d="M29.6626 25.5049C30.0156 25.6898 31.3268 25.9755 31.7807 26.0764C32.0329 26.1268 32.285 26.1773 32.5876 26.1773C32.5876 25.7738 32.6044 25.5889 32.1841 25.4712L30.6544 25.1182C30.251 25.0174 30.2678 24.9333 29.7635 24.9333C29.7635 25.135 29.6962 25.3199 29.6626 25.5049Z" fill="white"/>
<path fill-rule="evenodd" clip-rule="evenodd" d="M11.2727 23.1847H14.1137V22.5963H11.4744C11.0206 22.5963 11.1382 22.798 11.1719 23.0166C11.1887 23.1174 11.155 23.1847 11.2727 23.1847Z" fill="white"/>
<path fill-rule="evenodd" clip-rule="evenodd" d="M29.2358 16.0823C29.2358 16.1831 29.2863 16.2167 29.3367 16.284C29.488 16.4857 29.4712 16.4857 30.0764 16.284C30.1772 16.2504 30.2781 16.2167 30.3621 16.1999C30.4462 16.1831 30.6311 16.1327 30.6815 16.1159C30.5975 15.7292 30.4798 15.5779 30.0595 15.7292C29.8578 15.7965 29.3535 16.0654 29.2358 16.0823Z" fill="white"/>
</g>
<defs>
<clipPath id="clip0_1_1843">
<rect width="43.4408" height="43.0681" fill="white"/>
</clipPath>
</defs>
</svg>
