<svg width="355" height="452" viewBox="0 0 355 452" fill="none" xmlns="http://www.w3.org/2000/svg">
<g clip-path="url(#clip0_18_59)">
<rect width="354.78" height="451.665" rx="16.7283" fill="#F47133"/>
<g opacity="0.5">
<path d="M-45.1597 313.045C-45.1597 278.876 -17.4601 251.176 16.7091 251.176H283.982V350.166C283.982 384.335 256.282 412.035 222.113 412.035H-45.1597V313.045Z" fill="#FBAB80"/>
<path d="M123.125 497.412C123.125 452.992 159.135 416.982 203.555 416.982C247.976 416.982 283.985 452.992 283.985 497.412V577.842H123.125V497.412Z" fill="#FBAB80"/>
<path d="M288.929 497.412C288.929 452.992 324.938 416.982 369.359 416.982C413.779 416.982 449.789 452.992 449.789 497.412C449.789 541.833 413.779 577.842 369.359 577.842H288.929V497.412Z" fill="#FBAB80"/>
<path d="M-42.6699 497.412C-42.6699 452.992 -6.66021 416.982 37.76 416.982C82.1802 416.982 118.19 452.992 118.19 497.412V577.842H37.76C-6.66021 577.842 -42.6699 541.833 -42.6699 497.412Z" fill="#FBAB80"/>
<path d="M120.644 85.3594H219.635C253.804 85.3594 281.504 113.059 281.504 147.228V246.219H182.513C148.344 246.219 120.644 218.52 120.644 184.351V85.3594Z" fill="#FBAB80"/>
<path d="M120.82 -0.013916C120.82 -44.4341 156.83 -80.4438 201.25 -80.4438C245.67 -80.4438 281.68 -44.4341 281.68 -0.013916C281.68 44.4063 245.67 80.416 201.25 80.416H120.82V-0.013916Z" fill="#FBAB80"/>
<path d="M-45.1592 -0.013916C-45.1592 -44.4341 -9.14947 -80.4438 35.2708 -80.4438C79.691 -80.4438 115.701 -44.4341 115.701 -0.013916V80.416H35.2708C-9.14947 80.416 -45.1592 44.4063 -45.1592 -0.013916Z" fill="#FBAB80"/>
<path d="M-45.1592 165.789C-45.1592 121.369 -9.14947 85.3594 35.2708 85.3594H115.701V165.789C115.701 210.21 79.691 246.219 35.2708 246.219C-9.14947 246.219 -45.1592 210.21 -45.1592 165.789Z" fill="#FBAB80"/>
<path d="M288.956 147.239C288.956 113.07 316.656 85.3701 350.825 85.3701H449.815V331.608C449.815 376.027 413.805 412.037 369.385 412.037C324.965 412.037 288.956 376.027 288.956 331.608V147.239Z" fill="#FBAB80"/>
<path d="M287.088 -0.0119629C287.088 -44.4322 323.098 -80.4419 367.518 -80.4419H447.948V-0.0119629C447.948 44.4083 411.939 80.418 367.518 80.418C323.098 80.418 287.088 44.4083 287.088 -0.0119629Z" fill="#FBAB80"/>
</g>
</g>
<defs>
<clipPath id="clip0_18_59">
<rect width="354.78" height="451.665" rx="16.7283" fill="white"/>
</clipPath>
</defs>
</svg>
