<svg width="377" height="480" viewBox="0 0 377 480" fill="none" xmlns="http://www.w3.org/2000/svg">
<g clip-path="url(#clip0_18_57)">
<rect width="377" height="479.953" rx="17.776" fill="url(#paint0_linear_18_57)"/>
<path d="M178.363 407.784L95.3191 540.654L-82.3945 412.766L18.9189 293.183L13.9362 276.574L-135.542 238.374L-69.1075 30.7649L78.7104 93.8782L91.9973 82.2521L78.7104 -73.8701H297.946L284.659 82.2521L297.946 93.8782L447.425 32.4259L512.199 240.035L359.398 276.574L352.755 293.183L455.729 412.766L276.354 542.314L198.293 407.784H178.363Z" fill="url(#paint1_linear_18_57)"/>
<g clip-path="url(#clip1_18_57)">
<rect x="11.1099" y="14.144" width="354.78" height="451.665" rx="16.7283" fill="#F47133"/>
<g opacity="0.5">
<path d="M-34.0498 327.189C-34.0498 293.02 -6.35024 265.32 27.8189 265.32H295.092V364.31C295.092 398.479 267.392 426.179 233.223 426.179H-34.0498V327.189Z" fill="#FBAB80"/>
<path d="M134.235 511.556C134.235 467.136 170.245 431.126 214.665 431.126V431.126C259.086 431.126 295.095 467.136 295.095 511.556V591.986H134.235V511.556Z" fill="#FBAB80"/>
<path d="M300.039 511.556C300.039 467.136 336.048 431.126 380.469 431.126V431.126C424.889 431.126 460.898 467.136 460.898 511.556V511.556C460.898 555.977 424.889 591.986 380.469 591.986H300.039V511.556Z" fill="#FBAB80"/>
<path d="M-31.5601 511.556C-31.5601 467.136 4.44965 431.126 48.8699 431.126V431.126C93.2901 431.126 129.3 467.136 129.3 511.556V591.986H48.8699C4.44965 591.986 -31.5601 555.977 -31.5601 511.556V511.556Z" fill="#FBAB80"/>
<path d="M131.754 99.5034H230.745C264.914 99.5034 292.614 127.203 292.614 161.372V260.363H193.623C159.453 260.363 131.754 232.664 131.754 198.495V99.5034Z" fill="#FBAB80"/>
<path d="M131.93 14.1301C131.93 -30.2901 167.939 -66.2998 212.36 -66.2998V-66.2998C256.78 -66.2998 292.79 -30.2901 292.79 14.1301V14.1301C292.79 58.5504 256.78 94.5601 212.36 94.5601H131.93V14.1301Z" fill="#FBAB80"/>
<path d="M-34.0493 14.1301C-34.0493 -30.2901 1.96039 -66.2998 46.3806 -66.2998V-66.2998C90.8008 -66.2998 126.811 -30.2901 126.811 14.1301V94.5601H46.3806C1.96039 94.5601 -34.0493 58.5504 -34.0493 14.1301V14.1301Z" fill="#FBAB80"/>
<path d="M-34.0493 179.933C-34.0493 135.513 1.96039 99.5034 46.3806 99.5034H126.811V179.933C126.811 224.354 90.8008 260.363 46.3806 260.363V260.363C1.96039 260.363 -34.0493 224.354 -34.0493 179.933V179.933Z" fill="#FBAB80"/>
<path d="M300.066 161.383C300.066 127.214 327.765 99.5142 361.935 99.5142H460.925V345.752C460.925 390.172 424.915 426.181 380.495 426.181V426.181C336.075 426.181 300.066 390.171 300.066 345.752V161.383Z" fill="#FBAB80"/>
<path d="M298.198 14.1321C298.198 -30.2881 334.208 -66.2979 378.628 -66.2979H459.058V14.1321C459.058 58.5523 423.048 94.562 378.628 94.562V94.562C334.208 94.562 298.198 58.5523 298.198 14.1321V14.1321Z" fill="#FBAB80"/>
</g>
</g>
</g>
<defs>
<linearGradient id="paint0_linear_18_57" x1="188.5" y1="0" x2="188.5" y2="479.953" gradientUnits="userSpaceOnUse">
<stop stop-color="#F26B2E"/>
<stop offset="1" stop-color="#8C3E1B"/>
</linearGradient>
<linearGradient id="paint1_linear_18_57" x1="188.328" y1="-73.8701" x2="188.328" y2="542.314" gradientUnits="userSpaceOnUse">
<stop stop-color="#050621"/>
<stop offset="1" stop-color="#141987"/>
</linearGradient>
<clipPath id="clip0_18_57">
<rect width="377" height="479.953" rx="17.776" fill="white"/>
</clipPath>
<clipPath id="clip1_18_57">
<rect x="11.1099" y="14.144" width="354.78" height="451.665" rx="16.7283" fill="white"/>
</clipPath>
</defs>
</svg>
