<svg width="995" height="347" viewBox="0 0 995 347" fill="none" xmlns="http://www.w3.org/2000/svg">
<path d="M77.6027 126.652C43.7451 126.652 23.1003 114.595 23.1003 86.518V85.527H54.1501V88.9953C54.1501 96.4275 56.7927 98.4094 77.6027 98.4094C96.4308 98.4094 98.4128 96.923 98.4128 91.9682C98.4128 88.0044 96.2657 86.3528 87.1819 85.1967L52.4986 80.5722C31.8537 77.7645 21.4487 66.6989 21.4487 48.8617C21.4487 31.1897 35.1569 12.6919 75.1253 12.6919C110.304 12.6919 127.15 28.0517 127.15 52.8255V53.8165H96.1005V51.3391C96.1005 43.4115 92.6322 40.7689 71.8222 40.7689C55.9669 40.7689 52.4986 42.916 52.4986 47.7056C52.4986 51.1739 54.4805 52.8255 60.4262 53.6513L95.1096 58.7713C122.196 62.7351 129.463 76.6084 129.463 90.8121C129.463 109.805 114.929 126.652 77.6027 126.652ZM199.588 125H168.538V42.2554H129.396V14.3435H238.566V42.2554H199.588V125ZM296.934 126.652C258.287 126.652 240.449 107.989 240.449 78.5903V14.3435H271.499V76.1129C271.499 91.803 275.959 96.5927 296.934 96.5927C317.909 96.5927 322.368 91.803 322.368 76.1129V14.3435H353.418V78.5903C353.418 107.989 335.581 126.652 296.934 126.652ZM415.572 125H359.583V14.3435H415.572C452.072 14.3435 475.195 34.658 475.195 69.6717C475.195 104.685 452.072 125 415.572 125ZM415.572 42.2554H390.633V97.0881H415.572C435.226 97.0881 441.998 94.6107 441.998 69.6717C441.998 44.7327 435.226 42.2554 415.572 42.2554ZM576.725 125H478.455V14.3435H576.725V42.2554H509.505V55.4681H574.247V83.2148H509.505V97.0881H576.725V125ZM611.645 125H580.596V14.3435H613.627L644.347 55.7984L660.533 81.2329H662.68L661.193 57.1197V14.3435H692.243V125H659.211L626.51 82.389L612.471 60.588H610.324L611.645 81.7283V125ZM764.967 125H733.917V42.2554H694.775V14.3435H803.945V42.2554H764.967V125ZM860.166 126.652C826.308 126.652 805.663 114.595 805.663 86.518V85.527H836.713V88.9953C836.713 96.4275 839.356 98.4094 860.166 98.4094C878.994 98.4094 880.976 96.923 880.976 91.9682C880.976 88.0044 878.829 86.3528 869.745 85.1967L835.062 80.5722C814.417 77.7645 804.012 66.6989 804.012 48.8617C804.012 31.1897 817.72 12.6919 857.689 12.6919C892.867 12.6919 909.714 28.0517 909.714 52.8255V53.8165H878.664V51.3391C878.664 43.4115 875.195 40.7689 854.385 40.7689C838.53 40.7689 835.062 42.916 835.062 47.7056C835.062 51.1739 837.044 52.8255 842.989 53.6513L877.673 58.7713C904.759 62.7351 912.026 76.6084 912.026 90.8121C912.026 109.805 897.492 126.652 860.166 126.652ZM927.318 73.4704H915.922V54.312H926.328C930.291 54.312 932.108 53.1558 932.108 48.3662V46.054H914.436V14.3435H954.735V48.2011C954.735 65.2125 944.66 73.4704 927.318 73.4704ZM83.3833 271.652C44.9012 271.652 22.2745 249.19 22.2745 214.672C22.2745 180.154 44.9012 157.692 83.3833 157.692C120.544 157.692 142.841 175.364 142.841 204.927V207.735H108.157V204.927C108.157 192.375 102.211 187.421 83.8788 187.421C61.4171 187.421 55.3063 192.706 55.3063 214.672C55.3063 236.638 61.4171 241.923 83.8788 241.923C102.211 241.923 108.157 236.968 108.157 224.416V221.608H142.841V224.416C142.841 253.98 120.544 271.652 83.3833 271.652ZM174.308 270H139.46L187.191 159.343H231.619L279.515 270H243.84L235.417 249.52H182.897L174.308 270ZM201.064 206.083L194.623 221.608H224.021L217.58 206.083L210.313 187.421H208.166L201.064 206.083ZM308.934 270H277.884V159.343H342.461C371.694 159.343 387.054 171.565 387.054 193.201C387.054 210.708 378.3 221.113 357.16 223.755V225.407C368.556 228.38 372.19 233.83 376.319 242.253L390.027 270H354.187L340.974 242.914C337.011 234.656 333.707 232.344 321.651 232.344H308.934V270ZM308.934 187.255V209.221H342.131C351.214 209.221 354.518 207.57 354.518 198.156C354.518 189.402 351.214 187.255 342.131 187.255H308.934ZM488.294 270H390.024V159.343H488.294V187.255H421.074V200.468H485.816V228.215H421.074V242.088H488.294V270ZM590.434 270H492.165V159.343H590.434V187.255H523.214V200.468H587.957V228.215H523.214V242.088H590.434V270ZM625.355 270H594.305V159.343H658.882C688.115 159.343 703.475 171.565 703.475 193.201C703.475 210.708 694.722 221.113 673.581 223.755V225.407C684.977 228.38 688.611 233.83 692.74 242.253L706.448 270H670.609L657.396 242.914C653.432 234.656 650.129 232.344 638.072 232.344H625.355V270ZM625.355 187.255V209.221H658.552C667.636 209.221 670.939 207.57 670.939 198.156C670.939 189.402 667.636 187.255 658.552 187.255H625.355Z" fill="white"/>
<path opacity="0.05" d="M77.6027 126.652C43.7451 126.652 23.1003 114.595 23.1003 86.518V85.527H54.1501V88.9953C54.1501 96.4275 56.7927 98.4094 77.6027 98.4094C96.4308 98.4094 98.4128 96.923 98.4128 91.9682C98.4128 88.0044 96.2657 86.3528 87.1819 85.1967L52.4986 80.5722C31.8537 77.7645 21.4487 66.6989 21.4487 48.8617C21.4487 31.1897 35.1569 12.6919 75.1253 12.6919C110.304 12.6919 127.15 28.0517 127.15 52.8255V53.8165H96.1005V51.3391C96.1005 43.4115 92.6322 40.7689 71.8222 40.7689C55.9669 40.7689 52.4986 42.916 52.4986 47.7056C52.4986 51.1739 54.4805 52.8255 60.4262 53.6513L95.1096 58.7713C122.196 62.7351 129.463 76.6084 129.463 90.8121C129.463 109.805 114.929 126.652 77.6027 126.652ZM199.588 125H168.538V42.2554H129.396V14.3435H238.566V42.2554H199.588V125ZM296.934 126.652C258.287 126.652 240.449 107.989 240.449 78.5903V14.3435H271.499V76.1129C271.499 91.803 275.959 96.5927 296.934 96.5927C317.909 96.5927 322.368 91.803 322.368 76.1129V14.3435H353.418V78.5903C353.418 107.989 335.581 126.652 296.934 126.652ZM415.572 125H359.583V14.3435H415.572C452.072 14.3435 475.195 34.658 475.195 69.6717C475.195 104.685 452.072 125 415.572 125ZM415.572 42.2554H390.633V97.0881H415.572C435.226 97.0881 441.998 94.6107 441.998 69.6717C441.998 44.7327 435.226 42.2554 415.572 42.2554ZM576.725 125H478.455V14.3435H576.725V42.2554H509.505V55.4681H574.247V83.2148H509.505V97.0881H576.725V125ZM611.645 125H580.596V14.3435H613.627L644.347 55.7984L660.533 81.2329H662.68L661.193 57.1197V14.3435H692.243V125H659.211L626.51 82.389L612.471 60.588H610.324L611.645 81.7283V125ZM764.967 125H733.917V42.2554H694.775V14.3435H803.945V42.2554H764.967V125ZM860.166 126.652C826.308 126.652 805.663 114.595 805.663 86.518V85.527H836.713V88.9953C836.713 96.4275 839.356 98.4094 860.166 98.4094C878.994 98.4094 880.976 96.923 880.976 91.9682C880.976 88.0044 878.829 86.3528 869.745 85.1967L835.062 80.5722C814.417 77.7645 804.012 66.6989 804.012 48.8617C804.012 31.1897 817.72 12.6919 857.689 12.6919C892.867 12.6919 909.714 28.0517 909.714 52.8255V53.8165H878.664V51.3391C878.664 43.4115 875.195 40.7689 854.385 40.7689C838.53 40.7689 835.062 42.916 835.062 47.7056C835.062 51.1739 837.044 52.8255 842.989 53.6513L877.673 58.7713C904.759 62.7351 912.026 76.6084 912.026 90.8121C912.026 109.805 897.492 126.652 860.166 126.652ZM927.318 73.4704H915.922V54.312H926.328C930.291 54.312 932.108 53.1558 932.108 48.3662V46.054H914.436V14.3435H954.735V48.2011C954.735 65.2125 944.66 73.4704 927.318 73.4704ZM83.3833 271.652C44.9012 271.652 22.2745 249.19 22.2745 214.672C22.2745 180.154 44.9012 157.692 83.3833 157.692C120.544 157.692 142.841 175.364 142.841 204.927V207.735H108.157V204.927C108.157 192.375 102.211 187.421 83.8788 187.421C61.4171 187.421 55.3063 192.706 55.3063 214.672C55.3063 236.638 61.4171 241.923 83.8788 241.923C102.211 241.923 108.157 236.968 108.157 224.416V221.608H142.841V224.416C142.841 253.98 120.544 271.652 83.3833 271.652ZM174.308 270H139.46L187.191 159.343H231.619L279.515 270H243.84L235.417 249.52H182.897L174.308 270ZM201.064 206.083L194.623 221.608H224.021L217.58 206.083L210.313 187.421H208.166L201.064 206.083ZM308.934 270H277.884V159.343H342.461C371.694 159.343 387.054 171.565 387.054 193.201C387.054 210.708 378.3 221.113 357.16 223.755V225.407C368.556 228.38 372.19 233.83 376.319 242.253L390.027 270H354.187L340.974 242.914C337.011 234.656 333.707 232.344 321.651 232.344H308.934V270ZM308.934 187.255V209.221H342.131C351.214 209.221 354.518 207.57 354.518 198.156C354.518 189.402 351.214 187.255 342.131 187.255H308.934ZM488.294 270H390.024V159.343H488.294V187.255H421.074V200.468H485.816V228.215H421.074V242.088H488.294V270ZM590.434 270H492.165V159.343H590.434V187.255H523.214V200.468H587.957V228.215H523.214V242.088H590.434V270ZM625.355 270H594.305V159.343H658.882C688.115 159.343 703.475 171.565 703.475 193.201C703.475 210.708 694.722 221.113 673.581 223.755V225.407C684.977 228.38 688.611 233.83 692.74 242.253L706.448 270H670.609L657.396 242.914C653.432 234.656 650.129 232.344 638.072 232.344H625.355V270ZM625.355 187.255V209.221H658.552C667.636 209.221 670.939 207.57 670.939 198.156C670.939 189.402 667.636 187.255 658.552 187.255H625.355Z" fill="url(#paint0_linear_1_134)"/>
<path d="M699.813 286.192C694.689 286.192 690.488 284.041 687.209 279.737C683.931 275.434 682.086 271.335 681.676 267.441C681.267 262.933 681.676 258.117 682.906 252.994C684.136 247.871 685.877 243.362 688.132 239.469C688.132 239.264 688.029 239.059 687.824 238.854C687.824 238.444 687.824 238.137 687.824 237.932C687.824 236.907 688.029 235.883 688.439 234.858C689.054 233.628 689.464 232.501 689.669 231.477C690.283 230.247 690.898 228.915 691.513 227.48C692.333 225.841 693.05 224.304 693.665 222.87L697.046 215.492C697.456 214.058 697.661 213.34 697.661 213.34C696.226 214.16 692.947 215.39 687.824 217.029C682.906 218.464 677.27 219.898 670.918 221.333C664.565 222.767 658.724 223.997 653.396 225.021C648.273 226.046 644.789 226.558 642.945 226.558C641.306 226.558 639.666 225.636 638.027 223.792C636.592 221.947 635.363 219.898 634.338 217.644C633.518 215.185 633.006 213.443 632.801 212.418V211.803C632.801 210.164 633.211 209.344 634.031 209.344C635.055 209.139 635.977 209.242 636.797 209.652C637.207 209.857 637.822 210.266 638.641 210.881C639.666 211.496 640.281 211.803 640.486 211.803C641.51 211.803 642.433 211.803 643.252 211.803C644.072 211.598 644.892 211.394 645.711 211.189C647.761 210.779 649.81 210.369 651.859 209.959C653.909 209.344 655.855 208.832 657.7 208.422L687.824 201.967C690.488 201.557 693.87 200.737 697.968 199.508C702.067 198.073 704.936 196.331 706.575 194.282C707.805 192.643 709.342 190.388 711.186 187.519C713.03 184.65 714.977 181.576 717.027 178.298C719.281 174.814 721.433 171.33 723.482 167.846C725.531 164.362 727.58 161.084 729.63 158.01C727.375 159.034 726.248 159.137 726.248 158.317C726.248 157.292 726.351 156.678 726.556 156.473C727.375 155.243 728.81 153.296 730.859 150.632C732.909 147.968 734.855 145.816 736.7 144.177C728.503 146.021 719.383 148.378 709.342 151.247C699.3 153.911 689.259 156.678 679.217 159.547C668.766 162.211 658.929 164.67 649.708 166.924C640.486 168.973 632.903 169.998 626.961 169.998C624.296 169.998 621.427 169.588 618.354 168.768C615.28 167.949 612.718 166.309 610.669 163.85C609.439 162.416 608.414 159.956 607.595 156.473C606.775 152.784 606.365 150.325 606.365 149.095C606.365 146.021 608.005 142.947 611.283 139.873C614.562 136.8 618.354 134.238 622.657 132.189C626.961 129.934 630.547 129.012 633.416 129.422C636.285 127.168 640.588 125.119 646.326 123.274C652.269 121.225 657.187 120.2 661.081 120.2C662.721 120.2 664.36 119.995 665.999 119.586C667.639 119.176 669.278 118.971 670.918 118.971C672.147 118.561 673.274 118.356 674.299 118.356C674.914 118.356 676.041 118.561 677.68 118.971C679.525 119.176 680.754 119.483 681.369 119.893L681.062 119.586C681.881 119.79 682.291 120.2 682.291 120.815C682.291 121.225 681.881 121.43 681.062 121.43C677.783 122.455 674.401 123.172 670.918 123.582C667.639 123.992 664.36 124.606 661.081 125.426C653.704 127.475 645.814 130.447 637.412 134.34C629.01 138.029 621.837 142.128 615.894 146.636C615.485 146.841 615.075 147.558 614.665 148.788C614.05 150.017 613.743 151.042 613.743 151.862C613.948 152.272 615.177 152.682 617.431 153.091C619.686 153.501 621.12 153.706 621.735 153.706C623.374 153.706 625.014 153.706 626.653 153.706C628.497 153.501 630.239 153.296 631.879 153.091C638.027 152.272 644.789 151.349 652.167 150.325C659.749 149.095 666.922 147.866 673.684 146.636C680.447 145.407 685.775 144.382 689.669 143.562C702.169 140.283 713.44 137.824 723.482 136.185C733.728 134.545 745.102 132.394 757.602 129.73C759.652 129.115 763.136 128.705 768.054 128.5C772.972 128.295 777.071 127.783 780.35 126.963C785.678 126.553 790.186 126.246 793.875 126.041C797.768 125.836 802.379 125.733 807.707 125.733C810.986 125.733 814.573 126.348 818.466 127.578C822.565 128.602 825.946 129.934 828.61 131.574C831.069 133.008 833.836 135.468 836.91 138.951C840.189 142.23 842.955 145.816 845.209 149.71C847.669 153.399 849.001 156.575 849.206 159.239C849.615 163.338 849.103 166.207 847.669 167.846C846.234 169.486 844.287 170.613 841.828 171.228C839.574 171.637 837.217 172.56 834.758 173.994C833.528 174.814 832.196 175.634 830.762 176.453C829.532 177.068 828.2 177.375 826.766 177.375H824.921V176.761H824.614V174.916H825.536C828.815 172.662 832.094 169.588 835.373 165.694C838.652 161.596 840.291 157.6 840.291 153.706C840.291 150.222 838.754 147.456 835.68 145.407C832.811 143.152 829.123 141.513 824.614 140.488C820.311 139.259 815.905 138.541 811.396 138.337C807.093 137.927 803.404 137.722 800.33 137.722C793.977 137.722 787.01 137.927 779.427 138.337C772.05 138.541 765.287 139.464 759.139 141.103H758.217C760.267 142.742 761.394 144.792 761.599 147.251C761.599 147.866 760.676 149.403 758.832 151.862C757.193 154.321 755.348 156.78 753.299 159.239C751.455 161.698 750.02 163.338 748.995 164.158C747.561 164.772 746.741 164.772 746.536 164.158V164.465C746.536 165.08 746.434 165.797 746.229 166.617H743.155C743.155 168.666 742.13 170.51 740.081 172.15C738.032 173.584 736.392 175.121 735.163 176.761C734.343 177.785 733.933 179.117 733.933 180.757C732.704 180.962 731.064 182.089 729.015 184.138C727.171 185.982 725.429 188.032 723.789 190.286C722.355 192.335 721.535 194.077 721.33 195.512C721.945 195.512 722.355 195.614 722.56 195.819L723.174 196.126C725.634 195.921 728.4 195.614 731.474 195.204C734.753 194.794 737.622 194.589 740.081 194.589C740.696 194.589 741.311 194.692 741.925 194.897C742.54 194.897 743.155 194.897 743.77 194.897C746.639 194.897 749.508 194.794 752.377 194.589C755.246 194.384 758.115 194.282 760.984 194.282C762.213 194.282 764.263 194.589 767.132 195.204C770.206 195.819 773.382 196.639 776.661 197.663C779.94 198.688 782.706 199.918 784.96 201.352C787.42 202.582 788.649 203.914 788.649 205.348L788.957 207.193C784.038 204.938 779.222 203.401 774.509 202.582C769.796 201.762 765.082 201.352 760.369 201.352C752.172 201.352 744.589 201.762 737.622 202.582C730.654 203.196 724.506 205.143 719.178 208.422C713.85 211.496 709.547 216.824 706.268 224.407C705.448 226.251 704.936 228.198 704.731 230.247C704.526 232.091 704.116 233.936 703.501 235.78C702.067 239.674 700.427 243.977 698.583 248.691C696.944 253.404 696.124 258.117 696.124 262.831C696.124 265.29 696.226 268.056 696.431 271.13C696.841 274.204 697.661 277.073 698.89 279.737C702.374 279.942 704.936 279.02 706.575 276.971C708.42 275.126 710.366 273.179 712.416 271.13C713.44 269.696 714.977 268.978 717.027 268.978C716.207 272.257 714.158 275.946 710.879 280.045C707.6 284.143 703.911 286.192 699.813 286.192ZM854.717 280.045C852.668 280.045 850.311 279.532 847.647 278.508C844.983 277.688 842.831 276.561 841.192 275.126C836.273 270.618 833.404 265.495 832.585 259.757C831.765 253.814 831.15 247.768 830.74 241.621C829.921 242.645 828.793 243.875 827.359 245.309C826.129 246.539 825.002 247.666 823.978 248.691C823.363 249.305 822.748 250.125 822.133 251.15C821.519 251.969 820.904 252.789 820.289 253.609C818.854 255.043 817.522 256.17 816.293 256.99C815.063 257.605 813.936 258.425 812.912 259.449C812.502 259.859 811.682 260.884 810.452 262.523C810.043 263.343 809.428 264.06 808.608 264.675C807.788 265.085 807.071 265.7 806.456 266.519C805.022 266.724 803.792 267.441 802.768 268.671C801.948 269.696 801.026 270.823 800.001 272.052C797.952 272.872 795.698 273.999 793.238 275.434C790.984 276.663 788.73 277.278 786.476 277.278C783.607 277.278 780.43 276.561 776.947 275.126C773.668 273.692 770.696 271.745 768.032 269.286C765.368 266.622 763.831 263.753 763.421 260.679H763.114V255.146C763.114 251.867 763.524 249.715 764.343 248.691C764.753 248.076 765.061 247.358 765.266 246.539C765.471 245.514 765.676 244.694 765.88 244.08L770.184 237.932C770.799 236.907 772.336 235.063 774.795 232.399C777.459 229.735 780.225 227.071 783.094 224.407C785.963 221.742 788.013 219.898 789.242 218.873C790.882 217.439 793.341 215.8 796.62 213.955C799.899 212.111 803.177 210.266 806.456 208.422C809.94 206.578 812.707 205.143 814.756 204.119L815.985 203.811C817.01 202.991 818.65 202.172 820.904 201.352C823.363 200.327 825.105 199.713 826.129 199.508C827.359 199.098 829.306 198.893 831.97 198.893C834.634 198.688 836.683 198.483 838.118 198.278C839.347 198.278 840.372 198.073 841.192 197.663L847.647 199.508C849.901 199.713 852.565 200.737 855.639 202.582C858.713 204.426 860.352 206.783 860.557 209.652C860.967 211.086 860.865 212.213 860.25 213.033L857.483 211.496C856.049 209.242 854 207.91 851.336 207.5C848.876 206.885 846.315 206.578 843.651 206.578C837.913 206.578 831.765 208.012 825.207 210.881C818.65 213.545 812.399 217.132 806.456 221.64C800.513 225.943 795.185 230.657 790.472 235.78C785.963 240.903 782.685 245.822 780.635 250.535C780.43 251.15 780.225 251.764 780.02 252.379C780.02 252.994 779.918 253.506 779.713 253.916C779.098 255.965 778.484 257.912 777.869 259.757C777.459 261.601 777.356 263.65 777.561 265.905C777.561 267.339 777.766 268.159 778.176 268.364C778.586 268.569 779.406 269.286 780.635 270.515L783.094 271.438L785.246 270.515L787.705 269.593C789.345 268.978 790.677 268.159 791.701 267.134C792.521 266.724 793.238 266.519 793.853 266.519C794.468 266.314 794.775 266.109 794.775 265.905C796.21 265.495 796.927 264.982 796.927 264.368C797.132 263.548 797.747 262.728 798.771 261.908C801.845 259.039 804.817 256.273 807.686 253.609C810.76 250.74 813.629 247.768 816.293 244.694C817.727 243.055 819.469 241.211 821.519 239.161C823.773 237.112 825.822 235.063 827.666 233.014C828.281 232.399 828.793 231.784 829.203 231.169C829.818 230.349 830.33 229.632 830.74 229.017C831.765 227.378 833.302 225.124 835.351 222.255C837.4 219.181 839.757 217.644 842.421 217.644C842.831 217.439 843.446 217.336 844.266 217.336C846.315 217.336 847.954 218.156 849.184 219.796C850.413 221.23 851.028 222.767 851.028 224.407C851.028 226.456 850.618 228.403 849.799 230.247C848.979 231.886 848.364 233.628 847.954 235.473C847.135 240.186 846.725 244.797 846.725 249.305C846.725 250.74 846.725 252.174 846.725 253.609C846.725 255.043 846.827 256.58 847.032 258.22C847.647 262.523 849.799 266.417 853.487 269.901L854.717 270.208C857.586 268.569 859.533 266.929 860.557 265.29C861.787 263.65 863.426 261.601 865.476 259.142C865.476 259.142 865.681 259.039 866.09 258.834C866.5 258.425 866.808 258.22 867.013 258.22C867.832 258.22 868.242 258.63 868.242 259.449V259.757C868.242 260.576 868.14 261.396 867.935 262.216C867.73 262.831 867.525 263.65 867.32 264.675C867.115 267.134 865.886 270.31 863.631 274.204C861.582 278.098 858.611 280.045 854.717 280.045ZM907.497 202.274C905.448 202.274 902.989 202.069 900.12 201.659C897.251 201.045 895.714 199.2 895.509 196.126C895.509 195.717 896.226 194.692 897.661 193.052C899.3 191.413 900.94 189.774 902.579 188.134C904.423 186.495 905.55 185.47 905.96 185.06C906.575 184.65 908.01 183.523 910.264 181.679C912.723 179.835 914.362 179.527 915.182 180.757C915.387 180.962 915.489 182.396 915.489 185.06V189.364C915.489 189.774 915.285 190.183 914.875 190.593C914.67 190.593 914.157 190.798 913.338 191.208C912.723 191.413 912.416 191.618 912.416 191.823L912.723 192.13C913.133 192.335 913.44 192.745 913.645 193.36C914.055 193.975 914.157 194.487 913.952 194.897C913.133 196.331 912.108 197.971 910.879 199.815C909.649 201.455 908.522 202.274 907.497 202.274ZM878.91 281.582C878.09 281.582 876.348 281.274 873.684 280.659C871.225 280.045 869.585 279.532 868.766 279.122C866.716 277.688 865.282 276.458 864.462 275.434C863.643 274.409 863.233 272.257 863.233 268.978C863.233 263.036 864.565 257.195 867.229 251.457C870.098 245.514 872.659 239.879 874.914 234.55C875.323 234.141 875.323 233.833 874.914 233.628V233.014C874.299 230.964 874.811 228.608 876.451 225.943C878.09 223.074 880.037 220.41 882.291 217.951C884.545 215.492 886.287 213.853 887.517 213.033C888.541 213.033 890.386 213.238 893.05 213.648C895.714 213.853 898.275 214.263 900.735 214.877C903.194 215.492 904.423 216.517 904.423 217.951C904.423 218.156 904.116 218.669 903.501 219.488C902.886 220.308 902.169 221.23 901.349 222.255L898.89 225.021C898.071 225.841 897.661 226.353 897.661 226.558C895.816 229.837 893.357 233.833 890.283 238.547C887.209 243.26 884.34 248.076 881.676 252.994C879.832 256.273 878.295 259.449 877.065 262.523C876.041 265.392 875.528 267.954 875.528 270.208C875.528 272.052 875.938 273.384 876.758 274.204C879.012 273.794 881.369 272.36 883.828 269.901C886.492 267.441 888.644 265.187 890.283 263.138H891.82C891.82 265.187 891.103 266.929 889.668 268.364L888.746 269.286C887.722 271.13 886.39 273.692 884.75 276.971C883.316 280.045 881.369 281.582 878.91 281.582ZM902.749 283.426C901.315 283.426 899.778 283.016 898.139 282.196C896.499 281.377 895.372 280.25 894.757 278.815L895.065 277.278C896.294 270.925 898.139 264.777 900.598 258.834C903.057 252.892 905.311 246.949 907.36 241.006C909 236.497 910.844 230.964 912.893 224.407C914.943 217.849 915.967 212.008 915.967 206.885C915.967 206.27 915.967 205.656 915.967 205.041C915.967 204.221 915.865 203.504 915.66 202.889C914.225 202.889 912.893 203.094 911.664 203.504C910.434 203.709 909.102 203.811 907.668 203.811H907.36C906.336 203.811 905.823 203.196 905.823 201.967C905.823 201.352 906.233 200.635 907.053 199.815C907.873 198.995 909.102 198.586 910.742 198.586C911.356 198.79 913.098 198.893 915.967 198.893C917.607 198.893 919.861 198.995 922.73 199.2C925.599 199.2 928.263 199.508 930.722 200.122C933.386 200.737 934.923 202.069 935.333 204.119C935.538 205.348 934.923 207.705 933.489 211.189C932.259 214.467 930.825 218.054 929.185 221.947C927.341 225.841 925.599 229.632 923.96 233.321C923.345 234.96 922.73 236.6 922.115 238.239C921.5 239.674 921.193 240.903 921.193 241.928V242.235L921.808 241.313C923.037 239.469 924.267 237.727 925.497 236.087C926.931 234.448 928.058 232.911 928.878 231.477C929.903 230.247 931.439 228.403 933.489 225.943C935.743 223.279 937.997 220.513 940.251 217.644C942.711 214.775 945.067 211.906 947.321 209.037C949.781 206.168 951.932 204.016 953.777 202.582C954.187 202.172 954.596 201.659 955.006 201.045C955.621 200.43 956.236 200.02 956.851 199.815C957.465 199.61 958.285 199.508 959.31 199.508C960.539 199.303 962.281 199.2 964.535 199.2C965.15 199.2 965.765 199.303 966.38 199.508C966.995 199.508 967.507 199.508 967.917 199.508C968.736 199.508 970.478 200.122 973.142 201.352C975.807 202.377 978.471 203.606 981.135 205.041C983.799 206.475 985.131 207.705 985.131 208.729C985.336 210.779 984.618 212.316 982.979 213.34C981.544 214.16 980.315 215.185 979.29 216.414C977.856 218.259 976.421 220.308 974.987 222.562C973.757 224.611 972.733 226.763 971.913 229.017L971.298 230.862C970.478 231.681 969.761 232.091 969.146 232.091C967.917 232.091 967.507 231.374 967.917 229.94C967.917 227.89 968.122 226.046 968.532 224.407C968.941 222.562 969.249 220.923 969.454 219.488C969.864 217.849 970.068 216.312 970.068 214.877C970.273 213.238 970.273 211.496 970.068 209.652C970.068 209.037 969.864 208.729 969.454 208.729C967.609 208.729 965.867 209.549 964.228 211.189C962.589 212.828 961.257 214.263 960.232 215.492L958.388 216.722C957.363 218.156 955.621 219.796 953.162 221.64L947.321 225.943C945.887 226.968 943.838 229.017 941.174 232.091C938.51 234.96 936.46 237.215 935.026 238.854C935.026 239.059 934.308 239.161 932.874 239.161H932.567L932.259 239.469V240.084C932.669 240.698 932.464 241.416 931.644 242.235C930.415 243.875 928.263 246.641 925.189 250.535C922.115 254.429 919.144 258.322 916.275 262.216C913.406 265.905 911.766 268.569 911.356 270.208C910.537 272.462 909.82 274.512 909.205 276.356C908.795 278.2 908.692 280.454 908.897 283.119C907.463 282.914 906.438 282.811 905.823 282.811C905.414 283.016 905.106 283.119 904.901 283.119C904.286 283.323 903.569 283.426 902.749 283.426Z" fill="#F26B2E"/>
<path d="M12.3801 343.125H1.08407V328.599H3.42567V341.022H12.3801V343.125ZM39.6081 343.125H27.9869V328.599H39.6081V330.702H30.3285V334.778H39.2829V336.859H30.3285V341.022H39.6081V343.125ZM62.7448 343.125H60.4249V330.702H54.701V328.599H68.447V330.702H62.7448V343.125ZM108.386 343.342C104.115 343.342 101.274 340.394 101.274 335.862C101.274 331.331 104.332 328.382 108.971 328.382C113.091 328.382 115.953 330.463 115.953 333.824V333.997H113.373V333.824C113.373 331.743 111.92 330.615 108.906 330.615C105.416 330.615 103.746 332.241 103.746 335.862C103.746 339.483 105.394 341.087 108.798 341.087C112.267 341.087 113.633 340.133 113.633 337.683V337.488H108.256V335.71H115.953V343.125H113.828V339.982H113.676C113.069 342.106 111.226 343.342 108.386 343.342ZM143.641 343.125H132.02V328.599H143.641V330.702H134.361V334.778H143.316V336.859H134.361V341.022H143.641V343.125ZM166.778 343.125H164.458V330.702H158.734V328.599H172.48V330.702H166.778V343.125ZM212.961 343.125H210.641V330.702H204.917V328.599H218.663V330.702H212.961V343.125ZM236.467 343.125H234.126V328.599H236.467V334.756H245.01V328.599H247.33V343.125H245.01V336.859H236.467V343.125ZM275.233 343.125H263.612V328.599H275.233V330.702H265.953V334.778H274.908V336.859H265.953V341.022H275.233V343.125ZM638.047 343.342C633.494 343.342 630.48 340.394 630.48 335.862C630.48 331.331 633.494 328.382 638.047 328.382C642.643 328.382 645.635 331.331 645.635 335.862C645.635 340.394 642.643 343.342 638.047 343.342ZM638.047 341.087C641.494 341.087 643.164 339.483 643.164 335.862C643.164 332.241 641.494 330.615 638.047 330.615C634.599 330.615 632.952 332.241 632.952 335.862C632.952 339.483 634.599 341.087 638.047 341.087ZM663.8 343.125H661.458V328.599H663.973L670.478 337.098L672.364 339.808H672.537L672.429 337.185V328.599H674.771V343.125H672.256L665.708 334.648L663.887 332.09H663.713L663.8 334.605V343.125ZM710.345 343.125H707.743L714.226 328.599H717.521L724.004 343.125H721.359L719.69 339.353H712.014L710.345 343.125ZM714.92 332.827L712.947 337.25H718.757L716.784 332.827L715.939 330.767H715.765L714.92 332.827ZM763.072 343.342C758.736 343.342 756.524 341.434 756.524 338.377V338.247H758.866V338.594C758.866 340.328 759.885 341.196 763.072 341.196C765.847 341.196 766.823 340.589 766.823 339.223C766.823 337.965 766.086 337.488 764.243 337.141L760.687 336.556C758.237 336.122 756.502 334.995 756.502 332.61C756.502 330.507 758.237 328.382 762.747 328.382C766.996 328.382 768.926 330.507 768.926 333.347V333.477H766.606V333.195C766.606 331.417 765.544 330.528 762.53 330.528C759.885 330.528 758.844 331.179 758.844 332.48C758.844 333.737 759.581 334.149 761.294 334.518L764.828 335.125C767.733 335.645 769.164 336.968 769.164 339.093C769.164 341.304 767.365 343.342 763.072 343.342ZM792.14 343.125H789.82V330.702H784.096V328.599H797.842V330.702H792.14V343.125ZM824.926 343.125H813.305V328.599H824.926V330.702H815.646V334.778H824.601V336.859H815.646V341.022H824.926V343.125ZM847.586 343.125H840.973V328.599H847.586C852.095 328.599 854.936 331.374 854.936 335.862C854.936 340.35 852.095 343.125 847.586 343.125ZM847.586 330.702H843.293V341.022H847.586C850.946 341.022 852.464 339.591 852.464 335.862C852.464 332.133 850.946 330.702 847.586 330.702ZM882.394 343.125H870.773V328.599H882.394V330.702H873.115V334.778H882.069V336.859H873.115V341.022H882.394V343.125ZM905.054 343.125H898.441V328.599H905.054C909.564 328.599 912.404 331.374 912.404 335.862C912.404 340.35 909.564 343.125 905.054 343.125ZM905.054 330.702H900.761V341.022H905.054C908.415 341.022 909.933 339.591 909.933 335.862C909.933 332.133 908.415 330.702 905.054 330.702ZM939.863 343.125H928.242V328.599H939.863V330.702H930.583V334.778H939.538V336.859H930.583V341.022H939.863V343.125ZM972.494 344.643H994.175V322.962H972.494V344.643Z" fill="white"/>
<path d="M315.041 343.342C310.704 343.342 308.493 341.434 308.493 338.377V338.247H310.834V338.594C310.834 340.328 311.853 341.196 315.041 341.196C317.816 341.196 318.792 340.589 318.792 339.223C318.792 337.965 318.054 337.488 316.211 337.141L312.656 336.556C310.206 336.122 308.471 334.995 308.471 332.61C308.471 330.507 310.206 328.382 314.715 328.382C318.965 328.382 320.895 330.507 320.895 333.347V333.477H318.575V333.195C318.575 331.417 317.512 330.528 314.499 330.528C311.853 330.528 310.813 331.179 310.813 332.48C310.813 333.737 311.55 334.149 313.263 334.518L316.797 335.125C319.702 335.645 321.133 336.968 321.133 339.093C321.133 341.304 319.334 343.342 315.041 343.342ZM343.957 343.342C339.447 343.342 336.455 340.394 336.455 335.862C336.455 331.331 339.447 328.382 343.957 328.382C348.054 328.382 350.916 330.55 350.916 334.019V334.323H348.336V334.019C348.336 331.808 346.927 330.615 343.978 330.615C340.574 330.615 338.926 332.241 338.926 335.862C338.926 339.483 340.574 341.087 343.978 341.087C346.927 341.087 348.336 339.917 348.336 337.683V337.401H350.916V337.683C350.916 341.174 348.076 343.342 343.957 343.342ZM369.076 343.125H366.734V328.599H378.29V330.702H369.076V335.212H377.965V337.293H369.076V343.125ZM418.015 343.342C413.679 343.342 411.467 341.434 411.467 338.377V338.247H413.809V338.594C413.809 340.328 414.828 341.196 418.015 341.196C420.79 341.196 421.766 340.589 421.766 339.223C421.766 337.965 421.029 337.488 419.186 337.141L415.63 336.556C413.18 336.122 411.445 334.995 411.445 332.61C411.445 330.507 413.18 328.382 417.69 328.382C421.939 328.382 423.869 330.507 423.869 333.347V333.477H421.549V333.195C421.549 331.417 420.487 330.528 417.473 330.528C414.828 330.528 413.787 331.179 413.787 332.48C413.787 333.737 414.524 334.149 416.237 334.518L419.771 335.125C422.676 335.645 424.107 336.968 424.107 339.093C424.107 341.304 422.308 343.342 418.015 343.342ZM447.083 343.125H444.763V330.702H439.039V328.599H452.785V330.702H447.083V343.125ZM469.765 343.125H467.164L473.646 328.599H476.942L483.425 343.125H480.779L479.11 339.353H471.435L469.765 343.125ZM474.34 332.827L472.367 337.25H478.178L476.205 332.827L475.359 330.767H475.186L474.34 332.827ZM500.943 343.125H498.602V328.599H506.147C509.442 328.599 511.48 330.16 511.48 332.87C511.48 335.277 509.898 336.751 507.166 336.903V337.055C508.293 337.358 508.814 338.009 509.334 338.919L511.762 343.125H509.074L506.754 339.114C506.103 337.965 505.431 337.488 503.61 337.488H500.943V343.125ZM500.943 330.702V335.689H506.125C508.076 335.689 509.052 335.016 509.052 333.195C509.052 331.417 508.076 330.702 506.125 330.702H500.943ZM534.482 343.125H532.162V330.702H526.438V328.599H540.184V330.702H534.482V343.125ZM567.268 343.125H555.647V328.599H567.268V330.702H557.988V334.778H566.943V336.859H557.988V341.022H567.268V343.125ZM589.928 343.125H583.315V328.599H589.928C594.437 328.599 597.278 331.374 597.278 335.862C597.278 340.35 594.437 343.125 589.928 343.125ZM589.928 330.702H585.635V341.022H589.928C593.288 341.022 594.806 339.591 594.806 335.862C594.806 332.133 593.288 330.702 589.928 330.702Z" fill="#F26B2E"/>
<defs>
<linearGradient id="paint0_linear_1_134" x1="18.9713" y1="145" x2="669.564" y2="145.208" gradientUnits="userSpaceOnUse">
<stop stop-color="#0E1055"/>
<stop offset="0.659651" stop-color="#1F23BB"/>
</linearGradient>
</defs>
</svg>
