<svg width="676" height="203" viewBox="0 0 676 203" fill="none" xmlns="http://www.w3.org/2000/svg">
<path d="M40.9972 89.1548C17.3227 89.1548 2.88712 80.7244 2.88712 61.092V60.3991H24.5983V62.8243C24.5983 68.0211 26.4461 69.4069 40.9972 69.4069C54.1624 69.4069 55.5483 68.3676 55.5483 64.903C55.5483 62.1314 54.047 60.9765 47.6953 60.1681L23.4434 56.9345C9.00783 54.9713 1.73227 47.2338 1.73227 34.7614C1.73227 22.4045 11.3175 9.47024 39.2649 9.47024C63.8632 9.47024 75.6426 20.2103 75.6426 37.5331V38.226H53.9315V36.4937C53.9315 30.9504 51.5063 29.1027 36.9552 29.1027C25.8686 29.1027 23.4434 30.604 23.4434 33.953C23.4434 36.3782 24.8293 37.5331 28.9867 38.1105L53.2386 41.6905C72.1781 44.4622 77.2594 54.1629 77.2594 64.0946C77.2594 77.3754 67.0968 89.1548 40.9972 89.1548ZM126.294 88H104.582V30.142H77.2125V10.6251H153.548V30.142H126.294V88ZM194.361 89.1548C167.338 89.1548 154.865 76.105 154.865 55.5487V10.6251H176.576V53.8165C176.576 64.7875 179.695 68.1366 194.361 68.1366C209.028 68.1366 212.146 64.7875 212.146 53.8165V10.6251H233.857V55.5487C233.857 76.105 221.385 89.1548 194.361 89.1548ZM277.317 88H238.168V10.6251H277.317C302.839 10.6251 319.007 24.8297 319.007 49.3125C319.007 73.7954 302.839 88 277.317 88ZM277.317 30.142H259.879V68.483H277.317C291.06 68.483 295.795 66.7508 295.795 49.3125C295.795 31.8743 291.06 30.142 277.317 30.142ZM390.001 88H321.287V10.6251H390.001V30.142H342.998V39.3808H388.269V58.7823H342.998V68.483H390.001V88ZM414.419 88H392.707V10.6251H415.804L437.285 39.6118L448.602 57.3965H450.103L449.064 40.5357V10.6251H470.775V88H447.678L424.812 58.2049L414.996 42.9609H413.495L414.419 57.7429V88ZM521.627 88H499.915V30.142H472.545V10.6251H548.881V30.142H521.627V88ZM588.193 89.1548C564.518 89.1548 550.083 80.7244 550.083 61.092V60.3991H571.794V62.8243C571.794 68.0211 573.642 69.4069 588.193 69.4069C601.358 69.4069 602.744 68.3676 602.744 64.903C602.744 62.1314 601.243 60.9765 594.891 60.1681L570.639 56.9345C556.204 54.9713 548.928 47.2338 548.928 34.7614C548.928 22.4045 558.513 9.47024 586.461 9.47024C611.059 9.47024 622.838 20.2103 622.838 37.5331V38.226H601.127V36.4937C601.127 30.9504 598.702 29.1027 584.151 29.1027C573.064 29.1027 570.639 30.604 570.639 33.953C570.639 36.3782 572.025 37.5331 576.182 38.1105L600.434 41.6905C619.374 44.4622 624.455 54.1629 624.455 64.0946C624.455 77.3754 614.292 89.1548 588.193 89.1548ZM635.148 51.9687H627.18V38.5724H634.455C637.227 38.5724 638.497 37.764 638.497 34.415V32.7982H626.14V10.6251H654.319V34.2995C654.319 46.1944 647.274 51.9687 635.148 51.9687ZM45.0391 190.155C18.1311 190.155 2.3097 174.449 2.3097 150.313C2.3097 126.176 18.1311 110.47 45.0391 110.47C71.0232 110.47 86.6137 122.827 86.6137 143.499V145.462H62.3619V143.499C62.3619 134.722 58.2044 131.258 45.3856 131.258C29.6796 131.258 25.4067 134.953 25.4067 150.313C25.4067 165.672 29.6796 169.368 45.3856 169.368C58.2044 169.368 62.3619 165.903 62.3619 157.126V155.163H86.6137V157.126C86.6137 177.798 71.0232 190.155 45.0391 190.155ZM108.617 189H84.2499L117.625 111.625H148.69L182.181 189H157.236L151.347 174.68H114.622L108.617 189ZM127.326 144.307L122.822 155.163H143.378L138.874 144.307L133.793 131.258H132.292L127.326 144.307ZM202.752 189H181.041V111.625H226.195C246.636 111.625 257.376 120.171 257.376 135.299C257.376 147.541 251.256 154.816 236.473 156.664V157.819C244.442 159.898 246.983 163.709 249.87 169.599L259.455 189H234.395L225.156 170.06C222.384 164.286 220.075 162.669 211.644 162.669H202.752V189ZM202.752 131.142V146.502H225.964C232.316 146.502 234.626 145.347 234.626 138.764C234.626 132.643 232.316 131.142 225.964 131.142H202.752ZM328.167 189H259.453V111.625H328.167V131.142H281.164V140.381H326.434V159.782H281.164V169.483H328.167V189ZM399.587 189H330.873V111.625H399.587V131.142H352.585V140.381H397.855V159.782H352.585V169.483H399.587V189ZM424.005 189H402.294V111.625H447.448C467.889 111.625 478.629 120.171 478.629 135.299C478.629 147.541 472.508 154.816 457.726 156.664V157.819C465.695 159.898 468.236 163.709 471.123 169.599L480.708 189H455.648L446.409 170.06C443.637 164.286 441.328 162.669 432.897 162.669H424.005V189ZM424.005 131.142V146.502H447.217C453.569 146.502 455.879 145.347 455.879 138.764C455.879 132.643 453.569 131.142 447.217 131.142H424.005Z" fill="white"/>
<path opacity="0.05" d="M40.9972 89.1548C17.3227 89.1548 2.88712 80.7244 2.88712 61.092V60.3991H24.5983V62.8243C24.5983 68.0211 26.4461 69.4069 40.9972 69.4069C54.1624 69.4069 55.5483 68.3676 55.5483 64.903C55.5483 62.1314 54.047 60.9765 47.6953 60.1681L23.4434 56.9345C9.00783 54.9713 1.73227 47.2338 1.73227 34.7614C1.73227 22.4045 11.3175 9.47024 39.2649 9.47024C63.8632 9.47024 75.6426 20.2103 75.6426 37.5331V38.226H53.9315V36.4937C53.9315 30.9504 51.5063 29.1027 36.9552 29.1027C25.8686 29.1027 23.4434 30.604 23.4434 33.953C23.4434 36.3782 24.8293 37.5331 28.9867 38.1105L53.2386 41.6905C72.1781 44.4622 77.2594 54.1629 77.2594 64.0946C77.2594 77.3754 67.0968 89.1548 40.9972 89.1548ZM126.294 88H104.582V30.142H77.2125V10.6251H153.548V30.142H126.294V88ZM194.361 89.1548C167.338 89.1548 154.865 76.105 154.865 55.5487V10.6251H176.576V53.8165C176.576 64.7875 179.695 68.1366 194.361 68.1366C209.028 68.1366 212.146 64.7875 212.146 53.8165V10.6251H233.857V55.5487C233.857 76.105 221.385 89.1548 194.361 89.1548ZM277.317 88H238.168V10.6251H277.317C302.839 10.6251 319.007 24.8297 319.007 49.3125C319.007 73.7954 302.839 88 277.317 88ZM277.317 30.142H259.879V68.483H277.317C291.06 68.483 295.795 66.7508 295.795 49.3125C295.795 31.8743 291.06 30.142 277.317 30.142ZM390.001 88H321.287V10.6251H390.001V30.142H342.998V39.3808H388.269V58.7823H342.998V68.483H390.001V88ZM414.419 88H392.707V10.6251H415.804L437.285 39.6118L448.602 57.3965H450.103L449.064 40.5357V10.6251H470.775V88H447.678L424.812 58.2049L414.996 42.9609H413.495L414.419 57.7429V88ZM521.627 88H499.915V30.142H472.545V10.6251H548.881V30.142H521.627V88ZM588.193 89.1548C564.518 89.1548 550.083 80.7244 550.083 61.092V60.3991H571.794V62.8243C571.794 68.0211 573.642 69.4069 588.193 69.4069C601.358 69.4069 602.744 68.3676 602.744 64.903C602.744 62.1314 601.243 60.9765 594.891 60.1681L570.639 56.9345C556.204 54.9713 548.928 47.2338 548.928 34.7614C548.928 22.4045 558.513 9.47024 586.461 9.47024C611.059 9.47024 622.838 20.2103 622.838 37.5331V38.226H601.127V36.4937C601.127 30.9504 598.702 29.1027 584.151 29.1027C573.064 29.1027 570.639 30.604 570.639 33.953C570.639 36.3782 572.025 37.5331 576.182 38.1105L600.434 41.6905C619.374 44.4622 624.455 54.1629 624.455 64.0946C624.455 77.3754 614.292 89.1548 588.193 89.1548ZM635.148 51.9687H627.18V38.5724H634.455C637.227 38.5724 638.497 37.764 638.497 34.415V32.7982H626.14V10.6251H654.319V34.2995C654.319 46.1944 647.274 51.9687 635.148 51.9687ZM45.0391 190.155C18.1311 190.155 2.3097 174.449 2.3097 150.313C2.3097 126.176 18.1311 110.47 45.0391 110.47C71.0232 110.47 86.6137 122.827 86.6137 143.499V145.462H62.3619V143.499C62.3619 134.722 58.2044 131.258 45.3856 131.258C29.6796 131.258 25.4067 134.953 25.4067 150.313C25.4067 165.672 29.6796 169.368 45.3856 169.368C58.2044 169.368 62.3619 165.903 62.3619 157.126V155.163H86.6137V157.126C86.6137 177.798 71.0232 190.155 45.0391 190.155ZM108.617 189H84.2499L117.625 111.625H148.69L182.181 189H157.236L151.347 174.68H114.622L108.617 189ZM127.326 144.307L122.822 155.163H143.378L138.874 144.307L133.793 131.258H132.292L127.326 144.307ZM202.752 189H181.041V111.625H226.195C246.636 111.625 257.376 120.171 257.376 135.299C257.376 147.541 251.256 154.816 236.473 156.664V157.819C244.442 159.898 246.983 163.709 249.87 169.599L259.455 189H234.395L225.156 170.06C222.384 164.286 220.075 162.669 211.644 162.669H202.752V189ZM202.752 131.142V146.502H225.964C232.316 146.502 234.626 145.347 234.626 138.764C234.626 132.643 232.316 131.142 225.964 131.142H202.752ZM328.167 189H259.453V111.625H328.167V131.142H281.164V140.381H326.434V159.782H281.164V169.483H328.167V189ZM399.587 189H330.873V111.625H399.587V131.142H352.585V140.381H397.855V159.782H352.585V169.483H399.587V189ZM424.005 189H402.294V111.625H447.448C467.889 111.625 478.629 120.171 478.629 135.299C478.629 147.541 472.508 154.816 457.726 156.664V157.819C465.695 159.898 468.236 163.709 471.123 169.599L480.708 189H455.648L446.409 170.06C443.637 164.286 441.328 162.669 432.897 162.669H424.005V189ZM424.005 131.142V146.502H447.217C453.569 146.502 455.879 145.347 455.879 138.764C455.879 132.643 453.569 131.142 447.217 131.142H424.005Z" fill="url(#paint0_linear_1_1788)"/>
<path d="M475.905 199.434C472.323 199.434 469.385 197.929 467.092 194.92C464.8 191.911 463.51 189.045 463.224 186.322C462.937 183.17 463.224 179.802 464.083 176.22C464.943 172.638 466.161 169.485 467.737 166.763C467.737 166.619 467.666 166.476 467.522 166.333C467.522 166.046 467.522 165.831 467.522 165.688C467.522 164.972 467.666 164.255 467.952 163.539C468.382 162.679 468.669 161.891 468.812 161.174C469.242 160.314 469.672 159.383 470.102 158.38C470.675 157.234 471.176 156.159 471.606 155.156L473.971 149.997C474.257 148.994 474.4 148.493 474.4 148.493C473.397 149.066 471.105 149.926 467.522 151.072C464.083 152.075 460.143 153.078 455.701 154.081C451.259 155.084 447.175 155.944 443.449 156.661C439.867 157.377 437.431 157.735 436.141 157.735C434.995 157.735 433.848 157.09 432.702 155.801C431.699 154.511 430.839 153.078 430.123 151.502C429.55 149.782 429.191 148.564 429.048 147.848V147.418C429.048 146.272 429.335 145.699 429.908 145.699C430.624 145.555 431.269 145.627 431.842 145.914C432.129 146.057 432.559 146.343 433.132 146.773C433.848 147.203 434.278 147.418 434.422 147.418C435.138 147.418 435.783 147.418 436.356 147.418C436.929 147.275 437.502 147.132 438.076 146.988C439.508 146.702 440.941 146.415 442.374 146.128C443.807 145.699 445.169 145.34 446.458 145.054L467.522 140.54C469.385 140.253 471.749 139.68 474.615 138.821C477.481 137.817 479.487 136.599 480.634 135.167C481.493 134.02 482.568 132.444 483.858 130.438C485.147 128.432 486.509 126.282 487.942 123.99C489.518 121.554 491.022 119.118 492.455 116.682C493.888 114.246 495.321 111.953 496.754 109.804C495.178 110.52 494.39 110.592 494.39 110.019C494.39 109.302 494.461 108.872 494.605 108.729C495.178 107.869 496.181 106.508 497.614 104.645C499.047 102.782 500.408 101.278 501.698 100.131C495.966 101.421 489.589 103.069 482.568 105.075C475.547 106.938 468.525 108.872 461.504 110.878C454.196 112.741 447.318 114.461 440.87 116.037C434.422 117.47 429.12 118.186 424.964 118.186C423.101 118.186 421.095 117.9 418.946 117.327C416.797 116.753 415.005 115.607 413.572 113.887C412.713 112.884 411.996 111.165 411.423 108.729C410.85 106.15 410.563 104.43 410.563 103.57C410.563 101.421 411.71 99.2716 414.002 97.1222C416.295 94.9728 418.946 93.1816 421.955 91.7487C424.964 90.1725 427.472 89.5276 429.478 89.8142C431.484 88.238 434.493 86.8051 438.505 85.5154C442.661 84.0825 446.1 83.366 448.823 83.366C449.969 83.366 451.115 83.2227 452.262 82.9362C453.408 82.6496 454.554 82.5063 455.701 82.5063C456.56 82.2197 457.348 82.0764 458.065 82.0764C458.495 82.0764 459.283 82.2197 460.429 82.5063C461.719 82.6496 462.579 82.8645 463.009 83.1511L462.794 82.9362C463.367 83.0794 463.653 83.366 463.653 83.7959C463.653 84.0825 463.367 84.2258 462.794 84.2258C460.501 84.9423 458.137 85.4438 455.701 85.7304C453.408 86.017 451.115 86.4468 448.823 87.02C443.664 88.4529 438.147 90.5307 432.272 93.2533C426.397 95.8325 421.382 98.6984 417.226 101.851C416.94 101.994 416.653 102.496 416.367 103.355C415.937 104.215 415.722 104.932 415.722 105.505C415.865 105.791 416.725 106.078 418.301 106.365C419.877 106.651 420.88 106.794 421.31 106.794C422.457 106.794 423.603 106.794 424.749 106.794C426.039 106.651 427.257 106.508 428.403 106.365C432.702 105.791 437.431 105.147 442.589 104.43C447.891 103.57 452.906 102.711 457.635 101.851C462.364 100.991 466.089 100.275 468.812 99.7015C477.553 97.4088 485.434 95.6892 492.455 94.5429C499.62 93.3966 507.573 91.892 516.314 90.0292C517.747 89.5993 520.183 89.3127 523.622 89.1694C527.061 89.0261 529.927 88.6679 532.219 88.0947C535.945 87.8081 539.097 87.5932 541.677 87.4499C544.399 87.3066 547.623 87.235 551.349 87.235C553.642 87.235 556.149 87.6648 558.872 88.5246C561.738 89.2411 564.102 90.1725 565.965 91.3188C567.684 92.3219 569.619 94.0414 571.768 96.4774C574.061 98.7701 575.995 101.278 577.572 104C579.291 106.58 580.222 108.801 580.366 110.663C580.652 113.529 580.294 115.535 579.291 116.682C578.288 117.828 576.927 118.616 575.207 119.046C573.631 119.333 571.983 119.977 570.264 120.981C569.404 121.554 568.472 122.127 567.469 122.7C566.61 123.13 565.678 123.345 564.675 123.345H563.385V122.915H563.171V121.625H563.815C566.108 120.049 568.401 117.9 570.693 115.177C572.986 112.311 574.132 109.517 574.132 106.794C574.132 104.358 573.058 102.424 570.908 100.991C568.902 99.4149 566.323 98.2685 563.171 97.5521C560.161 96.6923 557.081 96.1908 553.928 96.0475C550.919 95.7609 548.34 95.6176 546.19 95.6176C541.748 95.6176 536.876 95.7609 531.574 96.0475C526.416 96.1908 521.687 96.8356 517.388 97.9819H516.744C518.176 99.1283 518.965 100.561 519.108 102.281C519.108 102.711 518.463 103.785 517.173 105.505C516.027 107.224 514.737 108.944 513.305 110.663C512.015 112.383 511.012 113.529 510.295 114.102C509.292 114.532 508.719 114.532 508.576 114.102V114.317C508.576 114.747 508.504 115.249 508.361 115.822H506.211C506.211 117.255 505.495 118.545 504.062 119.691C502.629 120.694 501.483 121.769 500.623 122.915C500.05 123.631 499.763 124.563 499.763 125.709C498.904 125.852 497.757 126.641 496.324 128.074C495.035 129.363 493.817 130.796 492.67 132.372C491.667 133.805 491.094 135.023 490.951 136.026C491.381 136.026 491.667 136.098 491.811 136.241L492.24 136.456C493.96 136.313 495.894 136.098 498.044 135.811C500.336 135.525 502.343 135.381 504.062 135.381C504.492 135.381 504.922 135.453 505.352 135.596C505.782 135.596 506.211 135.596 506.641 135.596C508.647 135.596 510.654 135.525 512.66 135.381C514.666 135.238 516.672 135.167 518.678 135.167C519.538 135.167 520.971 135.381 522.977 135.811C525.126 136.241 527.347 136.814 529.64 137.531C531.933 138.247 533.867 139.107 535.443 140.11C537.163 140.97 538.023 141.901 538.023 142.904L538.238 144.194C534.798 142.618 531.431 141.543 528.135 140.97C524.84 140.397 521.544 140.11 518.248 140.11C512.516 140.11 507.215 140.397 502.343 140.97C497.471 141.4 493.172 142.761 489.446 145.054C485.721 147.203 482.711 150.929 480.419 156.231C479.846 157.52 479.487 158.882 479.344 160.314C479.201 161.604 478.914 162.894 478.484 164.183C477.481 166.906 476.335 169.915 475.045 173.211C473.899 176.507 473.326 179.802 473.326 183.098C473.326 184.818 473.397 186.752 473.541 188.901C473.827 191.051 474.4 193.057 475.26 194.92C477.696 195.063 479.487 194.418 480.634 192.985C481.923 191.696 483.285 190.334 484.718 188.901C485.434 187.898 486.509 187.397 487.942 187.397C487.368 189.69 485.935 192.269 483.643 195.135C481.35 198.001 478.771 199.434 475.905 199.434ZM584.22 195.135C582.787 195.135 581.139 194.777 579.276 194.06C577.413 193.487 575.909 192.699 574.762 191.696C571.323 188.543 569.317 184.961 568.744 180.949C568.171 176.793 567.741 172.566 567.454 168.267C566.881 168.984 566.093 169.843 565.09 170.847C564.23 171.706 563.442 172.494 562.726 173.211C562.296 173.641 561.866 174.214 561.436 174.93C561.006 175.504 560.576 176.077 560.146 176.65C559.143 177.653 558.212 178.441 557.352 179.014C556.492 179.444 555.704 180.017 554.988 180.734C554.701 181.02 554.128 181.737 553.268 182.883C552.982 183.456 552.552 183.958 551.979 184.388C551.405 184.674 550.904 185.104 550.474 185.677C549.471 185.821 548.611 186.322 547.895 187.182C547.322 187.898 546.677 188.687 545.96 189.546C544.527 190.119 542.951 190.908 541.232 191.911C539.655 192.77 538.079 193.2 536.503 193.2C534.497 193.2 532.276 192.699 529.84 191.696C527.547 190.693 525.469 189.331 523.606 187.612C521.744 185.749 520.669 183.743 520.382 181.594H520.167V177.725C520.167 175.432 520.454 173.927 521.027 173.211C521.314 172.781 521.529 172.279 521.672 171.706C521.815 170.99 521.959 170.417 522.102 169.987L525.111 165.688C525.541 164.972 526.616 163.682 528.335 161.819C530.198 159.956 532.132 158.093 534.139 156.231C536.145 154.368 537.578 153.078 538.437 152.362C539.584 151.359 541.303 150.212 543.596 148.923C545.889 147.633 548.181 146.343 550.474 145.054C552.91 143.764 554.844 142.761 556.277 142.045L557.137 141.83C557.854 141.256 559 140.683 560.576 140.11C562.296 139.394 563.514 138.964 564.23 138.821C565.09 138.534 566.451 138.391 568.314 138.391C570.177 138.247 571.61 138.104 572.613 137.961C573.473 137.961 574.189 137.817 574.762 137.531L579.276 138.821C580.852 138.964 582.715 139.68 584.864 140.97C587.014 142.26 588.16 143.907 588.303 145.914C588.59 146.917 588.518 147.705 588.088 148.278L586.154 147.203C585.151 145.627 583.718 144.696 581.855 144.409C580.136 143.979 578.345 143.764 576.482 143.764C572.469 143.764 568.171 144.767 563.585 146.773C559 148.636 554.629 151.144 550.474 154.296C546.318 157.305 542.593 160.601 539.297 164.183C536.145 167.766 533.852 171.205 532.419 174.501C532.276 174.93 532.132 175.36 531.989 175.79C531.989 176.22 531.918 176.578 531.774 176.865C531.344 178.298 530.914 179.659 530.485 180.949C530.198 182.238 530.126 183.671 530.27 185.248C530.27 186.251 530.413 186.824 530.7 186.967C530.986 187.11 531.559 187.612 532.419 188.472L534.139 189.116L535.643 188.472L537.363 187.827C538.509 187.397 539.44 186.824 540.157 186.107C540.73 185.821 541.232 185.677 541.661 185.677C542.091 185.534 542.306 185.391 542.306 185.248C543.309 184.961 543.811 184.603 543.811 184.173C543.954 183.6 544.384 183.026 545.1 182.453C547.25 180.447 549.328 178.513 551.334 176.65C553.483 174.644 555.489 172.566 557.352 170.417C558.355 169.27 559.573 167.981 561.006 166.548C562.582 165.115 564.015 163.682 565.305 162.249C565.735 161.819 566.093 161.389 566.38 160.959C566.809 160.386 567.168 159.885 567.454 159.455C568.171 158.308 569.245 156.732 570.678 154.726C572.111 152.577 573.759 151.502 575.622 151.502C575.909 151.359 576.338 151.287 576.912 151.287C578.345 151.287 579.491 151.86 580.351 153.007C581.21 154.01 581.64 155.084 581.64 156.231C581.64 157.664 581.354 159.025 580.78 160.314C580.207 161.461 579.777 162.679 579.491 163.968C578.918 167.264 578.631 170.488 578.631 173.641C578.631 174.644 578.631 175.647 578.631 176.65C578.631 177.653 578.703 178.728 578.846 179.874C579.276 182.883 580.78 185.606 583.36 188.042L584.22 188.257C586.226 187.11 587.587 185.964 588.303 184.818C589.163 183.671 590.309 182.238 591.742 180.519C591.742 180.519 591.886 180.447 592.172 180.304C592.459 180.017 592.674 179.874 592.817 179.874C593.39 179.874 593.677 180.161 593.677 180.734V180.949C593.677 181.522 593.605 182.095 593.462 182.668C593.319 183.098 593.175 183.671 593.032 184.388C592.889 186.107 592.029 188.328 590.453 191.051C589.02 193.773 586.942 195.135 584.22 195.135ZM621.125 140.755C619.692 140.755 617.973 140.612 615.967 140.325C613.961 139.895 612.886 138.606 612.743 136.456C612.743 136.17 613.244 135.453 614.247 134.307C615.394 133.16 616.54 132.014 617.686 130.868C618.976 129.721 619.764 129.005 620.051 128.718C620.481 128.432 621.484 127.644 623.06 126.354C624.779 125.064 625.926 124.849 626.499 125.709C626.642 125.852 626.714 126.856 626.714 128.718V131.727C626.714 132.014 626.571 132.301 626.284 132.587C626.141 132.587 625.782 132.731 625.209 133.017C624.779 133.16 624.564 133.304 624.564 133.447L624.779 133.662C625.066 133.805 625.281 134.092 625.424 134.522C625.711 134.952 625.782 135.31 625.639 135.596C625.066 136.599 624.349 137.746 623.49 139.035C622.63 140.182 621.842 140.755 621.125 140.755ZM601.136 196.209C600.563 196.209 599.345 195.995 597.482 195.565C595.762 195.135 594.616 194.777 594.043 194.49C592.61 193.487 591.607 192.627 591.034 191.911C590.461 191.194 590.174 189.69 590.174 187.397C590.174 183.241 591.105 179.158 592.968 175.145C594.974 170.99 596.766 167.049 598.342 163.324C598.628 163.037 598.628 162.822 598.342 162.679V162.249C597.912 160.816 598.27 159.168 599.416 157.305C600.563 155.299 601.924 153.436 603.5 151.717C605.077 149.997 606.295 148.851 607.154 148.278C607.871 148.278 609.16 148.421 611.023 148.708C612.886 148.851 614.677 149.138 616.397 149.568C618.116 149.997 618.976 150.714 618.976 151.717C618.976 151.86 618.761 152.218 618.331 152.792C617.901 153.365 617.4 154.01 616.827 154.726L615.107 156.661C614.534 157.234 614.247 157.592 614.247 157.735C612.958 160.028 611.238 162.822 609.089 166.118C606.939 169.414 604.933 172.781 603.07 176.22C601.781 178.513 600.706 180.734 599.846 182.883C599.13 184.889 598.772 186.68 598.772 188.257C598.772 189.546 599.058 190.478 599.631 191.051C601.208 190.764 602.855 189.761 604.575 188.042C606.438 186.322 607.942 184.746 609.089 183.313H610.163C610.163 184.746 609.662 185.964 608.659 186.967L608.014 187.612C607.298 188.901 606.366 190.693 605.22 192.985C604.217 195.135 602.855 196.209 601.136 196.209ZM617.806 197.499C616.802 197.499 615.728 197.213 614.581 196.639C613.435 196.066 612.647 195.278 612.217 194.275L612.432 193.2C613.292 188.758 614.581 184.459 616.301 180.304C618.02 176.148 619.597 171.993 621.03 167.837C622.176 164.685 623.466 160.816 624.899 156.231C626.331 151.645 627.048 147.561 627.048 143.979C627.048 143.549 627.048 143.119 627.048 142.689C627.048 142.116 626.976 141.615 626.833 141.185C625.83 141.185 624.899 141.328 624.039 141.615C623.179 141.758 622.248 141.83 621.245 141.83H621.03C620.313 141.83 619.955 141.4 619.955 140.54C619.955 140.11 620.242 139.609 620.815 139.035C621.388 138.462 622.248 138.176 623.394 138.176C623.824 138.319 625.042 138.391 627.048 138.391C628.194 138.391 629.771 138.462 631.777 138.606C633.783 138.606 635.646 138.821 637.365 139.25C639.228 139.68 640.303 140.612 640.589 142.045C640.732 142.904 640.303 144.552 639.3 146.988C638.44 149.281 637.437 151.789 636.29 154.511C635.001 157.234 633.783 159.885 632.636 162.464C632.207 163.61 631.777 164.757 631.347 165.903C630.917 166.906 630.702 167.766 630.702 168.482V168.697L631.132 168.052C631.992 166.763 632.851 165.545 633.711 164.398C634.714 163.252 635.502 162.177 636.075 161.174C636.792 160.314 637.867 159.025 639.3 157.305C640.876 155.443 642.452 153.508 644.028 151.502C645.748 149.496 647.396 147.49 648.972 145.484C650.691 143.478 652.196 141.973 653.486 140.97C653.772 140.683 654.059 140.325 654.345 139.895C654.775 139.465 655.205 139.179 655.635 139.035C656.065 138.892 656.638 138.821 657.354 138.821C658.214 138.677 659.432 138.606 661.008 138.606C661.438 138.606 661.868 138.677 662.298 138.821C662.728 138.821 663.086 138.821 663.373 138.821C663.946 138.821 665.164 139.25 667.027 140.11C668.89 140.827 670.752 141.686 672.615 142.689C674.478 143.692 675.409 144.552 675.409 145.269C675.553 146.702 675.051 147.776 673.905 148.493C672.902 149.066 672.042 149.782 671.326 150.642C670.323 151.932 669.319 153.365 668.316 154.941C667.457 156.374 666.74 157.879 666.167 159.455L665.737 160.744C665.164 161.318 664.662 161.604 664.233 161.604C663.373 161.604 663.086 161.103 663.373 160.1C663.373 158.667 663.516 157.377 663.803 156.231C664.089 154.941 664.304 153.795 664.447 152.792C664.734 151.645 664.877 150.571 664.877 149.568C665.021 148.421 665.021 147.203 664.877 145.914C664.877 145.484 664.734 145.269 664.447 145.269C663.158 145.269 661.94 145.842 660.794 146.988C659.647 148.135 658.716 149.138 657.999 149.997L656.71 150.857C655.993 151.86 654.775 153.007 653.056 154.296L648.972 157.305C647.969 158.022 646.536 159.455 644.673 161.604C642.81 163.61 641.377 165.186 640.374 166.333C640.374 166.476 639.873 166.548 638.87 166.548H638.655L638.44 166.763V167.193C638.726 167.622 638.583 168.124 638.01 168.697C637.15 169.843 635.646 171.778 633.496 174.501C631.347 177.223 629.269 179.946 627.263 182.668C625.257 185.248 624.11 187.11 623.824 188.257C623.251 189.833 622.749 191.266 622.319 192.555C622.033 193.845 621.961 195.421 622.104 197.284C621.101 197.141 620.385 197.069 619.955 197.069C619.668 197.213 619.453 197.284 619.31 197.284C618.88 197.427 618.379 197.499 617.806 197.499Z" fill="#F26B2E"/>
<defs>
<linearGradient id="paint0_linear_1_1788" x1="0" y1="101.5" x2="454.931" y2="101.645" gradientUnits="userSpaceOnUse">
<stop stop-color="#0E1055"/>
<stop offset="0.659651" stop-color="#1F23BB"/>
</linearGradient>
</defs>
</svg>
