<svg width="123" height="39" viewBox="0 0 123 39" fill="none" xmlns="http://www.w3.org/2000/svg">
<path d="M7.42892 16.2093C3.13898 16.2093 0.523163 14.6816 0.523163 11.1241V10.9986H4.45735V11.438C4.45735 12.3797 4.79218 12.6308 7.42892 12.6308C9.81454 12.6308 10.0657 12.4425 10.0657 11.8147C10.0657 11.3125 9.79362 11.1032 8.64266 10.9567L4.24809 10.3708C1.63227 10.015 0.313898 8.61293 0.313898 6.35287C0.313898 4.11373 2.0508 1.76996 7.11502 1.76996C11.5724 1.76996 13.7069 3.71613 13.7069 6.85511V6.98067H9.77269V6.66677C9.77269 5.66229 9.33323 5.32747 6.69649 5.32747C4.68754 5.32747 4.24809 5.59951 4.24809 6.20638C4.24809 6.64584 4.4992 6.85511 5.25256 6.95974L9.64713 7.60846C13.0791 8.1107 13.9998 9.86853 13.9998 11.6682C13.9998 14.0748 12.1583 16.2093 7.42892 16.2093ZM22.8851 16H18.9509V5.51581H13.9913V1.97923H27.8238V5.51581H22.8851V16ZM35.2193 16.2093C30.3225 16.2093 28.0625 13.8446 28.0625 10.1196V1.97923H31.9967V9.80575C31.9967 11.7938 32.5617 12.4006 35.2193 12.4006C37.877 12.4006 38.442 11.7938 38.442 9.80575V1.97923H42.3762V10.1196C42.3762 13.8446 40.1162 16.2093 35.2193 16.2093ZM50.2515 16H43.1574V1.97923H50.2515C54.8762 1.97923 57.8059 4.55319 57.8059 8.98961C57.8059 13.426 54.8762 16 50.2515 16ZM50.2515 5.51581H47.0916V12.4634H50.2515C52.7417 12.4634 53.5997 12.1495 53.5997 8.98961C53.5997 5.82971 52.7417 5.51581 50.2515 5.51581ZM70.6704 16H58.2191V1.97923H70.6704V5.51581H62.1533V7.18993H70.3565V10.7056H62.1533V12.4634H70.6704V16ZM75.095 16H71.1608V1.97923H75.3461L79.2385 7.23178L81.2893 10.4545H81.5613L81.373 7.3992V1.97923H85.3072V16H81.1219L76.9784 10.601L75.1996 7.83865H74.9276L75.095 10.5172V16ZM94.5217 16H90.5875V5.51581H85.6279V1.97923H99.4604V5.51581H94.5217V16ZM106.584 16.2093C102.294 16.2093 99.6781 14.6816 99.6781 11.1241V10.9986H103.612V11.438C103.612 12.3797 103.947 12.6308 106.584 12.6308C108.97 12.6308 109.221 12.4425 109.221 11.8147C109.221 11.3125 108.949 11.1032 107.798 10.9567L103.403 10.3708C100.787 10.015 99.4689 8.61293 99.4689 6.35287C99.4689 4.11373 101.206 1.76996 106.27 1.76996C110.727 1.76996 112.862 3.71613 112.862 6.85511V6.98067H108.928V6.66677C108.928 5.66229 108.488 5.32747 105.851 5.32747C103.843 5.32747 103.403 5.59951 103.403 6.20638C103.403 6.64584 103.654 6.85511 104.408 6.95974L108.802 7.60846C112.234 8.1107 113.155 9.86853 113.155 11.6682C113.155 14.0748 111.313 16.2093 106.584 16.2093ZM115.092 9.47092H113.649V7.04344H114.967C115.469 7.04344 115.699 6.89696 115.699 6.29009V5.99712H113.46V1.97923H118.566V6.26916C118.566 8.4246 117.29 9.47092 115.092 9.47092ZM8.16135 34.2093C3.28547 34.2093 0.418531 31.3633 0.418531 26.9896C0.418531 22.616 3.28547 19.77 8.16135 19.77C12.8698 19.77 15.6949 22.0091 15.6949 25.7549V26.1107H11.3003V25.7549C11.3003 24.1645 10.547 23.5367 8.22413 23.5367C5.37812 23.5367 4.60384 24.2064 4.60384 26.9896C4.60384 29.7728 5.37812 30.4425 8.22413 30.4425C10.547 30.4425 11.3003 29.8147 11.3003 28.2243V27.8685H15.6949V28.2243C15.6949 31.9701 12.8698 34.2093 8.16135 34.2093ZM19.6821 34H15.2666L21.3143 19.9792H26.9436L33.0123 34H28.4921L27.4249 31.4051H20.7702L19.6821 34ZM23.0722 25.9014L22.256 27.8685H25.9809L25.1648 25.9014L24.244 23.5367H23.972L23.0722 25.9014ZM36.7398 34H32.8056V19.9792H40.9879C44.6919 19.9792 46.638 21.5278 46.638 24.2692C46.638 26.4874 45.5289 27.8057 42.8503 28.1406V28.3498C44.2943 28.7265 44.7547 29.4171 45.2778 30.4843L47.0147 34H42.4737L40.7995 30.568C40.2973 29.5217 39.8788 29.2288 38.3511 29.2288H36.7398V34ZM36.7398 23.5158V26.299H40.946C42.097 26.299 42.5155 26.0898 42.5155 24.897C42.5155 23.7879 42.097 23.5158 40.946 23.5158H36.7398ZM59.4657 34H47.0144V19.9792H59.4657V23.5158H50.9486V25.1899H59.1518V28.7056H50.9486V30.4634H59.4657V34ZM72.4074 34H59.9561V19.9792H72.4074V23.5158H63.8903V25.1899H72.0935V28.7056H63.8903V30.4634H72.4074V34ZM76.8321 34H72.8979V19.9792H81.0802C84.7842 19.9792 86.7303 21.5278 86.7303 24.2692C86.7303 26.4874 85.6212 27.8057 82.9426 28.1406V28.3498C84.3866 28.7265 84.8469 29.4171 85.3701 30.4843L87.107 34H82.5659L80.8918 30.568C80.3896 29.5217 79.9711 29.2288 78.4434 29.2288H76.8321V34ZM76.8321 23.5158V26.299H81.0383C82.1893 26.299 82.6078 26.0898 82.6078 24.897C82.6078 23.7879 82.1893 23.5158 81.0383 23.5158H76.8321Z" fill="#F26B2E"/>
<path d="M86.5859 38.7871C85.9368 38.7871 85.4045 38.5144 84.989 37.9692C84.5736 37.4239 84.3399 36.9046 84.2879 36.4112C84.236 35.84 84.2879 35.2298 84.4437 34.5807C84.5995 33.9315 84.8202 33.3603 85.1059 32.8669C85.1059 32.841 85.0929 32.815 85.0669 32.789C85.0669 32.7371 85.0669 32.6982 85.0669 32.6722C85.0669 32.5424 85.0929 32.4125 85.1448 32.2827C85.2227 32.1269 85.2746 31.9841 85.3006 31.8543C85.3785 31.6985 85.4564 31.5297 85.5343 31.348C85.6381 31.1402 85.729 30.9455 85.8069 30.7637L86.2354 29.829C86.2873 29.6472 86.3133 29.5563 86.3133 29.5563C86.1315 29.6602 85.716 29.816 85.0669 30.0237C84.4437 30.2055 83.7297 30.3872 82.9247 30.569C82.1198 30.7507 81.3798 30.9065 80.7047 31.0364C80.0556 31.1662 79.6141 31.2311 79.3804 31.2311C79.1727 31.2311 78.965 31.1143 78.7573 30.8806C78.5755 30.6469 78.4197 30.3872 78.2899 30.1016C78.186 29.79 78.1211 29.5693 78.0952 29.4395V29.3616C78.0952 29.1539 78.1471 29.05 78.2509 29.05C78.3808 29.024 78.4976 29.037 78.6015 29.089C78.6534 29.1149 78.7313 29.1668 78.8352 29.2447C78.965 29.3226 79.0429 29.3616 79.0689 29.3616C79.1987 29.3616 79.3155 29.3616 79.4194 29.3616C79.5233 29.3356 79.6271 29.3097 79.731 29.2837C79.9906 29.2318 80.2503 29.1798 80.51 29.1279C80.7696 29.05 81.0163 28.9851 81.25 28.9332L85.0669 28.1152C85.4045 28.0633 85.8329 27.9595 86.3522 27.8037C86.8715 27.6219 87.235 27.4012 87.4428 27.1415C87.5985 26.9338 87.7933 26.6482 88.027 26.2847C88.2607 25.9212 88.5073 25.5317 88.767 25.1162C89.0526 24.6748 89.3253 24.2334 89.5849 23.792C89.8446 23.3506 90.1042 22.9351 90.3639 22.5456C90.0783 22.6755 89.9354 22.6884 89.9354 22.5846C89.9354 22.4548 89.9484 22.3769 89.9744 22.3509C90.0783 22.1951 90.26 21.9484 90.5197 21.6109C90.7793 21.2733 91.026 21.0007 91.2597 20.793C90.2211 21.0266 89.0656 21.3253 87.7933 21.6888C86.521 22.0263 85.2487 22.3769 83.9764 22.7404C82.6521 23.0779 81.4058 23.3895 80.2373 23.6751C79.0689 23.9348 78.1081 24.0646 77.3551 24.0646C77.0176 24.0646 76.6541 24.0127 76.2646 23.9088C75.8751 23.805 75.5505 23.5972 75.2909 23.2857C75.1351 23.1039 75.0053 22.7923 74.9014 22.3509C74.7975 21.8835 74.7456 21.5719 74.7456 21.4161C74.7456 21.0266 74.9533 20.6372 75.3688 20.2477C75.7842 19.8582 76.2646 19.5336 76.8099 19.274C77.3551 18.9884 77.8095 18.8715 78.1731 18.9234C78.5366 18.6378 79.0818 18.3782 79.8089 18.1445C80.5619 17.8848 81.1851 17.755 81.6784 17.755C81.8861 17.755 82.0939 17.729 82.3016 17.6771C82.5093 17.6252 82.717 17.5992 82.9247 17.5992C83.0805 17.5473 83.2234 17.5213 83.3532 17.5213C83.4311 17.5213 83.5739 17.5473 83.7816 17.5992C84.0153 17.6252 84.1711 17.6641 84.249 17.716L84.21 17.6771C84.3139 17.7031 84.3658 17.755 84.3658 17.8329C84.3658 17.8848 84.3139 17.9108 84.21 17.9108C83.7946 18.0406 83.3662 18.1315 82.9247 18.1834C82.5093 18.2354 82.0939 18.3132 81.6784 18.4171C80.7436 18.6768 79.744 19.0533 78.6794 19.5466C77.6148 20.014 76.706 20.5333 75.953 21.1045C75.9011 21.1305 75.8491 21.2214 75.7972 21.3772C75.7193 21.533 75.6804 21.6628 75.6804 21.7667C75.7063 21.8186 75.8621 21.8705 76.1477 21.9225C76.4334 21.9744 76.6151 22.0004 76.693 22.0004C76.9007 22.0004 77.1085 22.0004 77.3162 22.0004C77.5499 21.9744 77.7706 21.9484 77.9783 21.9225C78.7573 21.8186 79.6141 21.7018 80.5489 21.5719C81.5096 21.4161 82.4184 21.2603 83.2753 21.1045C84.1321 20.9488 84.8073 20.8189 85.3006 20.7151C86.8845 20.2996 88.3126 19.988 89.5849 19.7803C90.8832 19.5726 92.3243 19.2999 93.9082 18.9624C94.1678 18.8845 94.6092 18.8326 95.2324 18.8066C95.8556 18.7806 96.3749 18.7157 96.7904 18.6119C97.4655 18.5599 98.0367 18.521 98.5041 18.495C98.9974 18.469 99.5817 18.4561 100.257 18.4561C100.672 18.4561 101.127 18.534 101.62 18.6897C102.139 18.8196 102.568 18.9884 102.905 19.1961C103.217 19.3778 103.567 19.6894 103.957 20.1308C104.372 20.5463 104.723 21.0007 105.008 21.494C105.32 21.9614 105.489 22.3639 105.515 22.7014C105.567 23.2207 105.502 23.5843 105.32 23.792C105.138 23.9997 104.892 24.1425 104.58 24.2204C104.294 24.2723 103.996 24.3892 103.684 24.5709C103.528 24.6748 103.36 24.7787 103.178 24.8825C103.022 24.9604 102.853 24.9994 102.672 24.9994H102.438V24.9215H102.399V24.6878H102.516C102.931 24.4022 103.347 24.0127 103.762 23.5193C104.178 23 104.385 22.4937 104.385 22.0004C104.385 21.5589 104.191 21.2084 103.801 20.9488C103.438 20.6631 102.97 20.4554 102.399 20.3256C101.854 20.1698 101.295 20.0789 100.724 20.0529C100.179 20.001 99.7115 19.975 99.322 19.975C98.5171 19.975 97.6342 20.001 96.6735 20.0529C95.7387 20.0789 94.8819 20.1957 94.1029 20.4035H93.9861C94.2457 20.6112 94.3885 20.8709 94.4145 21.1824C94.4145 21.2603 94.2977 21.4551 94.064 21.7667C93.8562 22.0783 93.6226 22.3898 93.3629 22.7014C93.1292 23.013 92.9475 23.2207 92.8176 23.3246C92.6359 23.4025 92.532 23.4025 92.506 23.3246V23.3635C92.506 23.4414 92.4931 23.5323 92.4671 23.6362H92.0776C92.0776 23.8958 91.9478 24.1295 91.6881 24.3373C91.4285 24.519 91.2207 24.7138 91.0649 24.9215C90.9611 25.0513 90.9092 25.2201 90.9092 25.4278C90.7534 25.4538 90.5456 25.5966 90.286 25.8562C90.0523 26.0899 89.8316 26.3496 89.6239 26.6352C89.4421 26.8949 89.3382 27.1156 89.3123 27.2973C89.3902 27.2973 89.4421 27.3103 89.4681 27.3363L89.546 27.3752C89.8576 27.3493 90.2081 27.3103 90.5976 27.2584C91.013 27.2065 91.3765 27.1805 91.6881 27.1805C91.766 27.1805 91.8439 27.1935 91.9218 27.2194C91.9997 27.2194 92.0776 27.2194 92.1555 27.2194C92.519 27.2194 92.8825 27.2064 93.2461 27.1805C93.6096 27.1545 93.9731 27.1415 94.3366 27.1415C94.4924 27.1415 94.7521 27.1805 95.1156 27.2584C95.5051 27.3363 95.9075 27.4401 96.323 27.57C96.7384 27.6998 97.089 27.8556 97.3746 28.0373C97.6862 28.1931 97.842 28.3619 97.842 28.5437L97.8809 28.7774C97.2577 28.4917 96.6475 28.297 96.0503 28.1931C95.4531 28.0893 94.8559 28.0373 94.2587 28.0373C93.2201 28.0373 92.2594 28.0893 91.3765 28.1931C90.4937 28.271 89.7147 28.5177 89.0396 28.9332C88.3645 29.3226 87.8193 29.9977 87.4038 30.9585C87.2999 31.1922 87.235 31.4388 87.2091 31.6985C87.1831 31.9322 87.1312 32.1659 87.0533 32.3996C86.8715 32.8929 86.6638 33.4382 86.4301 34.0354C86.2224 34.6326 86.1185 35.2298 86.1185 35.827C86.1185 36.1386 86.1315 36.4891 86.1575 36.8786C86.2094 37.2681 86.3133 37.6316 86.469 37.9692C86.9105 37.9951 87.235 37.8783 87.4428 37.6186C87.6764 37.3849 87.9231 37.1383 88.1828 36.8786C88.3126 36.6969 88.5073 36.606 88.767 36.606C88.6631 37.0214 88.4035 37.4888 87.988 38.0081C87.5726 38.5274 87.1052 38.7871 86.5859 38.7871ZM106.213 38.0081C105.953 38.0081 105.655 37.9432 105.317 37.8134C104.98 37.7095 104.707 37.5667 104.499 37.3849C103.876 36.8137 103.513 36.1646 103.409 35.4375C103.305 34.6845 103.227 33.9185 103.175 33.1396C103.071 33.2694 102.928 33.4252 102.747 33.607C102.591 33.7628 102.448 33.9056 102.318 34.0354C102.24 34.1133 102.162 34.2171 102.085 34.347C102.007 34.4508 101.929 34.5547 101.851 34.6586C101.669 34.8403 101.5 34.9831 101.345 35.087C101.189 35.1649 101.046 35.2688 100.916 35.3986C100.864 35.4505 100.76 35.5803 100.605 35.7881C100.553 35.8919 100.475 35.9828 100.371 36.0607C100.267 36.1126 100.176 36.1905 100.098 36.2944C99.9165 36.3204 99.7607 36.4112 99.6308 36.567C99.527 36.6969 99.4101 36.8397 99.2803 36.9955C99.0207 37.0993 98.735 37.2421 98.4234 37.4239C98.1378 37.5797 97.8522 37.6576 97.5666 37.6576C97.2031 37.6576 96.8006 37.5667 96.3592 37.3849C95.9437 37.2032 95.5672 36.9565 95.2297 36.6449C94.8921 36.3074 94.6974 35.9439 94.6455 35.5544H94.6065V34.8533C94.6065 34.4379 94.6584 34.1652 94.7623 34.0354C94.8142 33.9575 94.8532 33.8666 94.8791 33.7628C94.9051 33.6329 94.9311 33.5291 94.957 33.4512L95.5023 32.6722C95.5802 32.5424 95.775 32.3087 96.0865 31.9711C96.4241 31.6336 96.7746 31.296 97.1382 30.9585C97.5017 30.6209 97.7613 30.3872 97.9171 30.2574C98.1248 30.0756 98.4364 29.8679 98.8519 29.6342C99.2673 29.4005 99.6828 29.1668 100.098 28.9332C100.54 28.6995 100.89 28.5177 101.15 28.3879L101.306 28.3489C101.435 28.2451 101.643 28.1412 101.929 28.0373C102.24 27.9075 102.461 27.8296 102.591 27.8037C102.747 27.7517 102.993 27.7258 103.331 27.7258C103.668 27.6998 103.928 27.6738 104.11 27.6479C104.266 27.6479 104.396 27.6219 104.499 27.57L105.317 27.8037C105.603 27.8296 105.94 27.9595 106.33 28.1931C106.719 28.4268 106.927 28.7254 106.953 29.089C107.005 29.2707 106.992 29.4135 106.914 29.5174L106.564 29.3226C106.382 29.037 106.122 28.8682 105.785 28.8163C105.473 28.7384 105.149 28.6995 104.811 28.6995C104.084 28.6995 103.305 28.8812 102.474 29.2447C101.643 29.5823 100.851 30.0367 100.098 30.6079C99.3452 31.1532 98.6701 31.7504 98.0729 32.3996C97.5017 33.0487 97.0862 33.6719 96.8266 34.2691C96.8006 34.347 96.7746 34.4249 96.7487 34.5028C96.7487 34.5807 96.7357 34.6456 96.7097 34.6975C96.6318 34.9572 96.5539 35.2038 96.476 35.4375C96.4241 35.6712 96.4111 35.9309 96.4371 36.2165C96.4371 36.3983 96.463 36.5021 96.515 36.5281C96.5669 36.554 96.6708 36.6449 96.8266 36.8007L97.1382 36.9176L97.4108 36.8007L97.7224 36.6839C97.9301 36.606 98.0989 36.5021 98.2287 36.3723C98.3326 36.3204 98.4234 36.2944 98.5013 36.2944C98.5792 36.2684 98.6182 36.2425 98.6182 36.2165C98.7999 36.1646 98.8908 36.0997 98.8908 36.0218C98.9168 35.9179 98.9947 35.814 99.1245 35.7102C99.514 35.3467 99.8905 34.9961 100.254 34.6586C100.644 34.295 101.007 33.9185 101.345 33.5291C101.526 33.3213 101.747 33.0876 102.007 32.828C102.292 32.5683 102.552 32.3087 102.786 32.049C102.864 31.9711 102.928 31.8932 102.98 31.8153C103.058 31.7115 103.123 31.6206 103.175 31.5427C103.305 31.335 103.5 31.0494 103.759 30.6858C104.019 30.2964 104.318 30.1016 104.655 30.1016C104.707 30.0756 104.785 30.0627 104.889 30.0627C105.149 30.0627 105.356 30.1665 105.512 30.3742C105.668 30.556 105.746 30.7507 105.746 30.9585C105.746 31.2181 105.694 31.4648 105.59 31.6985C105.486 31.9062 105.408 32.1269 105.356 32.3606C105.252 32.9578 105.2 33.542 105.2 34.1133C105.2 34.295 105.2 34.4768 105.2 34.6586C105.2 34.8403 105.213 35.0351 105.239 35.2428C105.317 35.7881 105.59 36.2814 106.057 36.7228L106.213 36.7618C106.577 36.554 106.823 36.3463 106.953 36.1386C107.109 35.9309 107.317 35.6712 107.576 35.3596C107.576 35.3596 107.602 35.3467 107.654 35.3207C107.706 35.2688 107.745 35.2428 107.771 35.2428C107.875 35.2428 107.927 35.2947 107.927 35.3986V35.4375C107.927 35.5414 107.914 35.6453 107.888 35.7491C107.862 35.827 107.836 35.9309 107.81 36.0607C107.784 36.3723 107.628 36.7748 107.343 37.2681C107.083 37.7614 106.706 38.0081 106.213 38.0081ZM112.901 28.1542C112.641 28.1542 112.329 28.1282 111.966 28.0763C111.602 27.9984 111.408 27.7647 111.382 27.3752C111.382 27.3233 111.473 27.1935 111.654 26.9857C111.862 26.778 112.07 26.5703 112.277 26.3626C112.511 26.1548 112.654 26.025 112.706 25.9731C112.784 25.9212 112.966 25.7783 113.251 25.5447C113.563 25.311 113.771 25.272 113.874 25.4278C113.9 25.4538 113.913 25.6355 113.913 25.9731V26.5184C113.913 26.5703 113.887 26.6222 113.835 26.6742C113.809 26.6742 113.745 26.7001 113.641 26.7521C113.563 26.778 113.524 26.804 113.524 26.8299L113.563 26.8689C113.615 26.8949 113.654 26.9468 113.68 27.0247C113.732 27.1026 113.745 27.1675 113.719 27.2194C113.615 27.4012 113.485 27.6089 113.329 27.8426C113.173 28.0503 113.03 28.1542 112.901 28.1542ZM109.278 38.2029C109.175 38.2029 108.954 38.1639 108.616 38.086C108.305 38.0081 108.097 37.9432 107.993 37.8913C107.734 37.7095 107.552 37.5537 107.448 37.4239C107.344 37.2941 107.292 37.0214 107.292 36.606C107.292 35.853 107.461 35.113 107.798 34.3859C108.162 33.6329 108.487 32.9189 108.772 32.2438C108.824 32.1918 108.824 32.1529 108.772 32.1269V32.049C108.694 31.7894 108.759 31.4908 108.967 31.1532C109.175 30.7897 109.421 30.4521 109.707 30.1406C109.993 29.829 110.213 29.6212 110.369 29.5174C110.499 29.5174 110.733 29.5433 111.07 29.5953C111.408 29.6212 111.732 29.6732 112.044 29.7511C112.355 29.829 112.511 29.9588 112.511 30.1406C112.511 30.1665 112.472 30.2314 112.394 30.3353C112.316 30.4392 112.226 30.556 112.122 30.6858L111.81 31.0364C111.706 31.1402 111.654 31.2051 111.654 31.2311C111.421 31.6466 111.109 32.1529 110.72 32.7501C110.33 33.3473 109.967 33.9575 109.629 34.5807C109.395 34.9961 109.201 35.3986 109.045 35.7881C108.915 36.1516 108.85 36.4762 108.85 36.7618C108.85 36.9955 108.902 37.1642 109.006 37.2681C109.291 37.2162 109.59 37.0344 109.902 36.7228C110.239 36.4112 110.512 36.1256 110.72 35.866H110.914C110.914 36.1256 110.823 36.3463 110.642 36.5281L110.525 36.6449C110.395 36.8786 110.226 37.2032 110.018 37.6186C109.837 38.0081 109.59 38.2029 109.278 38.2029ZM112.299 38.4366C112.117 38.4366 111.923 38.3846 111.715 38.2808C111.507 38.1769 111.364 38.0341 111.286 37.8523L111.325 37.6576C111.481 36.8527 111.715 36.0737 112.026 35.3207C112.338 34.5677 112.624 33.8147 112.883 33.0617C113.091 32.4904 113.325 31.7894 113.584 30.9585C113.844 30.1276 113.974 29.3876 113.974 28.7384C113.974 28.6605 113.974 28.5826 113.974 28.5047C113.974 28.4009 113.961 28.31 113.935 28.2321C113.753 28.2321 113.584 28.2581 113.429 28.31C113.273 28.336 113.104 28.3489 112.922 28.3489H112.883C112.753 28.3489 112.689 28.271 112.689 28.1152C112.689 28.0373 112.741 27.9465 112.844 27.8426C112.948 27.7387 113.104 27.6868 113.312 27.6868C113.39 27.7128 113.61 27.7258 113.974 27.7258C114.182 27.7258 114.467 27.7387 114.831 27.7647C115.194 27.7647 115.532 27.8037 115.843 27.8816C116.181 27.9595 116.376 28.1282 116.428 28.3879C116.454 28.5437 116.376 28.8423 116.194 29.2837C116.038 29.6991 115.856 30.1535 115.649 30.6469C115.415 31.1402 115.194 31.6206 114.987 32.088C114.909 32.2957 114.831 32.5034 114.753 32.7111C114.675 32.8929 114.636 33.0487 114.636 33.1785V33.2175L114.714 33.1006C114.87 32.8669 115.025 32.6462 115.181 32.4385C115.363 32.2308 115.506 32.036 115.61 31.8543C115.74 31.6985 115.934 31.4648 116.194 31.1532C116.48 30.8157 116.765 30.4651 117.051 30.1016C117.362 29.7381 117.661 29.3746 117.947 29.0111C118.258 28.6475 118.531 28.3749 118.765 28.1931C118.816 28.1412 118.868 28.0763 118.92 27.9984C118.998 27.9205 119.076 27.8686 119.154 27.8426C119.232 27.8166 119.336 27.8037 119.466 27.8037C119.621 27.7777 119.842 27.7647 120.128 27.7647C120.206 27.7647 120.284 27.7777 120.361 27.8037C120.439 27.8037 120.504 27.8037 120.556 27.8037C120.66 27.8037 120.881 27.8816 121.218 28.0373C121.556 28.1672 121.893 28.323 122.231 28.5047C122.568 28.6865 122.737 28.8423 122.737 28.9721C122.763 29.2318 122.672 29.4265 122.465 29.5563C122.283 29.6602 122.127 29.79 121.997 29.9458C121.815 30.1795 121.634 30.4392 121.452 30.7248C121.296 30.9844 121.166 31.2571 121.062 31.5427L120.985 31.7764C120.881 31.8802 120.79 31.9322 120.712 31.9322C120.556 31.9322 120.504 31.8413 120.556 31.6595C120.556 31.3999 120.582 31.1662 120.634 30.9585C120.686 30.7248 120.725 30.5171 120.751 30.3353C120.803 30.1276 120.829 29.9328 120.829 29.7511C120.855 29.5433 120.855 29.3226 120.829 29.089C120.829 29.0111 120.803 28.9721 120.751 28.9721C120.517 28.9721 120.296 29.076 120.089 29.2837C119.881 29.4914 119.712 29.6732 119.582 29.829L119.349 29.9848C119.219 30.1665 118.998 30.3742 118.687 30.6079L117.947 31.1532C117.765 31.283 117.505 31.5427 117.168 31.9322C116.83 32.2957 116.57 32.5813 116.389 32.789C116.389 32.815 116.298 32.828 116.116 32.828H116.077L116.038 32.8669V32.9448C116.09 33.0227 116.064 33.1136 115.96 33.2175C115.804 33.4252 115.532 33.7757 115.142 34.2691C114.753 34.7624 114.376 35.2558 114.013 35.7491C113.649 36.2165 113.442 36.554 113.39 36.7618C113.286 37.0474 113.195 37.3071 113.117 37.5407C113.065 37.7744 113.052 38.0601 113.078 38.3976C112.896 38.3716 112.766 38.3587 112.689 38.3587C112.637 38.3846 112.598 38.3976 112.572 38.3976C112.494 38.4236 112.403 38.4366 112.299 38.4366Z" fill="white"/>
</svg>
