<svg width="1154" height="1454" viewBox="0 0 1154 1454" fill="none" xmlns="http://www.w3.org/2000/svg">
<path d="M1165.82 91.2381C1186.83 105.568 1195.23 134.284 1186.5 163.828L1066.37 569.959L1065.34 569.351L942.641 498.557L1065.95 81.7122C1073.32 56.6138 1068.46 32.0399 1053.94 16.4949C1052.92 15.4733 1051.9 14.4517 1050.79 13.4854C1050.1 12.7951 1049.44 12.1875 1048.75 11.7182C1047.92 11.0279 1047.12 10.4204 1046.29 9.81299C1086 36.8166 1125.7 63.986 1165.38 90.9896C1165.55 91.0172 1165.68 91.1553 1165.82 91.2381Z" fill="#EB4900"/>
<path d="M778.169 1446.16C756.825 1456.87 733.908 1456.4 716.844 1444.72C677.36 1417.86 637.849 1390.91 598.366 1363.96C598.918 1364.29 599.47 1364.57 599.994 1364.84C601.762 1365.95 603.612 1366.83 605.517 1367.58C606.483 1367.99 607.422 1368.32 608.443 1368.68C617.638 1371.88 628.02 1372.63 638.871 1370.53C667.918 1364.87 693.789 1340.05 702.928 1309.07L826.267 892.225L1216.99 816.157C1245.98 810.496 1271.91 785.674 1281.05 754.695C1288.48 729.596 1283.56 705.022 1268.98 689.422C1268.1 688.455 1267.22 687.572 1266.25 686.771C1265.37 685.888 1264.4 685.059 1263.46 684.314C1262.77 683.762 1262.16 683.292 1261.47 682.823C1301.18 709.826 1340.88 736.996 1380.56 764.055C1380.7 764.137 1380.84 764.248 1380.97 764.331C1401.99 778.661 1410.3 807.376 1401.57 836.92C1392.43 867.9 1366.51 892.722 1337.51 898.382L946.735 974.368L823.478 1391.27C816.437 1414.93 799.512 1435.47 778.169 1446.16Z" fill="#EB4900"/>
<path d="M331.074 145.428L645.675 327.081L963.341 22.4478C965.246 20.5979 967.233 18.9136 969.194 17.2569C983.248 5.93638 999.484 0 1014.97 0C1016.69 0 1018.37 0.0827869 1020.08 0.276064C1020.22 0.276064 1020.41 0.276064 1020.63 0.276064C1022.26 0.41412 1023.97 0.690273 1025.6 0.966384C1027.65 1.38055 1029.69 1.93275 1031.73 2.54019C1032.89 2.87153 1034.11 3.28572 1035.27 3.83794C1036.7 4.39016 1038.19 5.08044 1039.63 5.74311C1040.46 6.2125 1041.26 6.62666 1042.09 7.09605C1043.19 7.70349 1044.27 8.39373 1045.29 9.08401V9.1393C1045.35 9.19452 1045.48 9.27728 1045.57 9.27728C1045.84 9.47056 1046.04 9.69146 1046.31 9.82952C1047.14 10.437 1047.94 11.0444 1048.77 11.7347C1049.51 12.2869 1050.21 12.8943 1050.81 13.5018C1051.92 14.4682 1052.94 15.4898 1053.96 16.5114C1068.48 32.0564 1073.34 56.6303 1065.97 81.7288L942.66 498.573L1065.36 569.368L1066.39 569.976L1257.23 680.144C1258.31 680.751 1259.41 681.441 1260.44 682.132V682.215C1260.77 682.408 1261.04 682.629 1261.4 682.905H1261.48C1262.17 683.374 1262.78 683.871 1263.47 684.396C1264.44 685.224 1265.38 686.025 1266.26 686.853C1267.23 687.682 1268.11 688.565 1268.99 689.504C1283.6 705.132 1288.52 729.678 1281.06 754.776C1271.92 785.756 1245.99 810.578 1217 816.239L826.279 892.307L702.941 1309.15C693.802 1340.13 667.957 1364.95 638.883 1370.61C628.032 1372.74 617.677 1371.97 608.455 1368.76C607.433 1368.43 606.467 1368.07 605.529 1367.66C603.623 1366.83 601.773 1365.95 600.006 1364.93C599.122 1364.46 598.239 1363.9 597.411 1363.35C596.997 1363.16 596.666 1362.88 596.307 1362.66C595.009 1361.78 593.711 1360.81 592.497 1359.74C591.751 1359.13 590.923 1358.44 590.232 1357.75C589.487 1357 588.741 1356.31 588.051 1355.57C586.615 1354.07 585.317 1352.5 584.102 1350.84C583.55 1350.15 583.081 1349.49 582.612 1348.8C582.336 1348.39 582.059 1348.06 581.866 1347.64C581.452 1347.03 581.037 1346.34 580.651 1345.65C578.525 1342.04 576.841 1338.14 575.46 1333.92L489.038 1063.47L488.982 1063.28L457.257 964.013L66.5328 1040.08C54.9361 1042.35 43.8091 1041.32 34.2005 1037.57C32.9028 1037.1 31.605 1036.49 30.3901 1035.94C29.5618 1035.53 28.7611 1035.11 28.0156 1034.64C27.3254 1034.31 26.7173 1033.9 26.027 1033.54C25.3368 1033.12 24.674 1032.65 23.9837 1032.18C23.5143 1031.91 23.1002 1031.58 22.686 1031.3C22.6308 1031.22 22.5483 1031.16 22.4931 1031.11C21.6095 1030.56 20.7811 1029.87 19.9804 1029.12C19.0968 1028.43 18.2684 1027.68 17.4677 1026.86C16.7222 1026.17 16.032 1025.42 15.3417 1024.67C14.1268 1023.43 13.0223 1022.08 12.0007 1020.73C11.3933 1019.9 10.8412 1019.1 10.2338 1018.27C10.1785 1018.13 10.0402 1017.99 9.95737 1017.85C9.40515 1016.97 8.85319 1016.09 8.32858 1015.2C6.20253 1011.59 4.51832 1007.69 3.2206 1003.52C2.88927 1002.64 2.61319 1001.67 2.3923 1000.74C2.06097 999.714 1.78464 998.693 1.64658 997.671C1.37047 996.511 1.09453 995.352 0.956472 994.192C0.763194 993.447 0.680543 992.701 0.625321 991.873C0.432043 990.575 0.293583 989.277 0.21075 987.98C-0.258638 982.043 0.0726609 975.969 1.03905 969.977C1.12188 969.894 1.12188 969.839 1.03905 969.784C2.06066 964.179 3.55189 958.601 5.59511 953.134C7.72117 947.612 10.3719 942.283 13.5748 937.175C14.0441 936.347 14.5407 935.601 15.0654 934.856C17.0534 931.791 19.2904 928.864 21.6926 926.048C22.7142 924.888 23.7356 923.729 24.7572 922.652C25.7788 921.492 26.8832 920.388 27.96 919.366L345.626 614.733L227.422 244.883C218.697 217.382 228.72 183.42 252.328 160.779C275.908 138.138 307.743 131.981 331.074 145.428Z" fill="#F26B2E"/>
<path d="M187.115 1122.28C171.488 1125.29 156.495 1122.47 144.539 1114.35C105.055 1087.4 65.5436 1060.54 26.0598 1033.54C26.75 1033.87 27.3581 1034.28 28.0483 1034.64C28.7938 1035.11 29.6221 1035.52 30.4229 1035.94C31.6377 1036.49 32.9355 1037.1 34.2332 1037.57C43.8419 1041.32 54.9688 1042.34 66.5655 1040.08L457.29 964.011L489.015 1063.27L489.07 1063.47L187.115 1122.28Z" fill="#EB4900"/>
</svg>
